<svg id="Layer_1" data-name="Layer 1" xmlns="http://www.w3.org/2000/svg" viewBox="0 0 197.2 187.09"><defs><style>.cls-1{fill:#fff;fill-rule:evenodd;}</style></defs><title>access-restrictions</title><path class="cls-1" d="M99.89,103.78a35,35,0,1,1,35-34.61A34.91,34.91,0,0,1,99.89,103.78Zm20.42-58.24A30.93,30.93,0,0,0,77,48c-11.87,13.14-9.34,31.62-.29,41.14ZM79.53,92.13a31,31,0,0,0,43.52-2.69c11.74-13.19,9.08-31.59.12-40.95Z" transform="translate(-1.4 -6.45)"/><path class="cls-1" d="M1.4,145.05V18.39a62.76,62.76,0,0,1,3.27-6.12c2.08-3,5.32-4.54,8.66-5.82H186.58a4.16,4.16,0,0,0,.78.41,16.18,16.18,0,0,1,11.22,15q-.24,59.85,0,119.69c0,8.07-6.9,16-15.7,15.93-18.6-.23-37.2-.06-55.8,0h-2.64c.7,3,1,5.75,2,8.16,2.49,6,8,8.83,13.28,11.66,3.71,2,6.79,5.48,6.18,9a8.83,8.83,0,0,1-8.82,7.29q-37.25,0-74.47,0a8.8,8.8,0,0,1-8.48-6.77c-.75-3.34,1.47-7,4.89-9A83.09,83.09,0,0,0,69.4,171c4.24-3.35,5.82-8,5.46-13.6H71c-18,0-36.05,0-54.07,0-6.19,0-10.64-2.84-13.7-8A33.19,33.19,0,0,1,1.4,145.05Zm190.53-23.91V22.35c0-6.3-3-9.33-9.27-9.33H17c-5.9,0-9,3.09-9,9v99.09ZM8.22,128.06a2.74,2.74,0,0,0-.2.58c0,4.62-.06,9.24,0,13.85,0,5.29,3.13,8.31,8.44,8.32h167c5.3,0,8.38-3,8.43-8.32.05-4.3,0-8.6,0-12.9a14.19,14.19,0,0,0-.15-1.52Zm110.09,29.59H81.52A25.1,25.1,0,0,1,73,176.87h53.77C120.22,169.39,119.22,167.12,118.31,157.65ZM99.9,187h11.34c8.65,0,17.3,0,26,0,1.21,0,2.14-.1,2.12-1.7s-1.1-1.63-2.22-1.61-2,.16-3.06.16q-21.06,0-42.11,0c-9.74,0-19.48-.11-29.22-.15-1.89,0-2.63.71-2,2.22A2.89,2.89,0,0,0,63,187C75.29,187,87.59,187,99.9,187Z" transform="translate(-1.4 -6.45)"/><path class="cls-1" d="M17.93,114.62V23h164v91.6Zm6.63-85.06V108H175.29V29.56Z" transform="translate(-1.4 -6.45)"/></svg>