<svg xmlns="http://www.w3.org/2000/svg" width="48.531" height="48.531" viewBox="0 0 48.531 48.531">
  <g id="Iconly_Bulk_Plus" data-name="Iconly/Bulk/Plus" transform="translate(0.5 0.5)" opacity="0.4">
    <g id="Plus" transform="translate(0 0)" opacity="0.6">
      <path id="Path_34200" d="M34.856,0H12.675C4.584,0,0,4.584,0,12.675V34.856c0,8.07,4.563,12.675,12.675,12.675H34.856c8.091,0,12.675-4.605,12.675-12.675V12.675C47.531,4.584,42.947,0,34.856,0Z" fill="#200e32" stroke="rgba(0,0,0,0)" stroke-width="1" opacity="0.4"/>
      <path id="Path_34201" d="M17.4,11.19h-6.11v6.057a1.781,1.781,0,0,1-3.563,0V11.19H1.615a1.783,1.783,0,0,1,0-3.551H7.706V1.6a1.8,1.8,0,0,1,3.582,0V7.639H17.4a1.783,1.783,0,0,1,0,3.551Z" transform="translate(14.259 14.259)" fill="#200e32" stroke="rgba(0,0,0,0)" stroke-width="1"/>
    </g>
  </g>
</svg>
