<svg id="Layer_1" data-name="Layer 1" xmlns="http://www.w3.org/2000/svg" viewBox="0 0 190.96 164.48"><defs><style>.cls-1{fill:#fff;fill-rule:evenodd;}</style></defs><title>ap</title><path class="cls-1" d="M195.46,56.34c.23-10.47-1.28-21.37-3.61-32.16-.88-4.1-3.34-6.36-6.76-6.42A6.75,6.75,0,0,0,178.2,26c2.36,10.8,4.23,21.72,3.53,32.76-.61,9.65-2.12,19.24-3.45,28.83-.6,4.3,1.14,7.66,5.12,8.69,3.62.93,7.17-1.34,8.17-5.48A136.62,136.62,0,0,0,195.46,56.34Z" transform="translate(-4.52 -17.76)"/><path class="cls-1" d="M171.73,57.79c0-11.73-1.48-18.2-2.95-26.89-.58-3.41-3.4-5.25-6.77-5.19a6.67,6.67,0,0,0-6.51,5.58,10,10,0,0,0,.3,3.6A103,103,0,0,1,155.64,80a6.77,6.77,0,0,0,5.11,8.41,6.48,6.48,0,0,0,8-5.19C170.29,74.57,171.73,68.52,171.73,57.79Z" transform="translate(-4.52 -17.76)"/><path class="cls-1" d="M147.5,57.13a63.51,63.51,0,0,0-1.3-14,6.62,6.62,0,0,0-8.48-5.32c-3.52.93-5.55,4.51-4.68,8.43A49.68,49.68,0,0,1,133,68a6.77,6.77,0,0,0,5.07,8.43,6.56,6.56,0,0,0,8.07-5.17A60,60,0,0,0,147.5,57.13Z" transform="translate(-4.52 -17.76)"/><path class="cls-1" d="M109.16,79.3c4.66,14.26,9.27,28.36,13.89,42.46q8.36,25.45,16.71,50.91c1.34,4.09-.48,8-4.15,9.2-3.82,1.23-7.43-.68-8.83-4.88-3.62-10.88-7.21-21.77-10.67-32.7-.73-2.29-1.69-3.26-4.28-3.19-7.92.2-15.84.15-23.76,0-2.08,0-2.92.67-3.54,2.61C81,154.84,77.3,165.89,73.68,177c-.89,2.73-2.55,4.61-5.47,5.06-5.59.87-9.31-3.91-7.44-9.62q9.69-29.61,19.44-59.21c3.68-11.24,7.35-22.49,11.11-34-7-3.22-11.84-8.33-14-15.7a22.79,22.79,0,0,1,.59-14.7,23.81,23.81,0,0,1,45.44,2.38C125.69,60.74,122.4,72.81,109.16,79.3Zm-8.89-12.14A10.12,10.12,0,0,0,110.39,56.9,10.18,10.18,0,0,0,90,57.28,10.2,10.2,0,0,0,100.27,67.16Zm.28,29.93-.65,0c-3.27,10-6.54,20-9.86,30.07h20.37C107.06,116.93,103.8,107,100.55,97.09Z" transform="translate(-4.52 -17.76)"/><path class="cls-1" d="M4.54,56.34C4.31,45.87,5.82,35,8.15,24.18c.88-4.1,3.34-6.36,6.76-6.42A6.75,6.75,0,0,1,21.8,26c-2.37,10.8-4.23,21.71-3.53,32.76.61,9.65,2.11,19.24,3.45,28.83.6,4.3-1.14,7.66-5.12,8.69C13,97.22,9.43,95,8.42,90.81A137.08,137.08,0,0,1,4.54,56.34Z" transform="translate(-4.52 -17.76)"/><path class="cls-1" d="M28.27,57.79c0-11.73,1.48-18.2,2.95-26.89.58-3.41,3.4-5.25,6.76-5.19a6.68,6.68,0,0,1,6.52,5.58,9.83,9.83,0,0,1-.31,3.6A103.33,103.33,0,0,0,44.36,80a6.77,6.77,0,0,1-5.11,8.41,6.48,6.48,0,0,1-8-5.19C29.71,74.57,28.27,68.52,28.27,57.79Z" transform="translate(-4.52 -17.76)"/><path class="cls-1" d="M52.5,57.13a64.15,64.15,0,0,1,1.29-14,6.63,6.63,0,0,1,8.49-5.32c3.52.93,5.55,4.51,4.68,8.43A49.53,49.53,0,0,0,67,68a6.77,6.77,0,0,1-5.07,8.43,6.56,6.56,0,0,1-8.07-5.17A60,60,0,0,1,52.5,57.13Z" transform="translate(-4.52 -17.76)"/></svg>