<svg id="Layer_1" data-name="Layer 1" xmlns="http://www.w3.org/2000/svg" viewBox="0 0 164.51 192.01"><defs><style>.cls-1{fill:#fff;}</style></defs><title>ar</title><path class="cls-1" d="M99.19,166.25a2.3,2.3,0,0,1-1.16-.32l-59.1-34.86a2.27,2.27,0,0,1-1.11-1.95V62.66a2.26,2.26,0,0,1,1.09-1.94L99,24.23a2.29,2.29,0,0,1,2.38,0l58.11,36a2.25,2.25,0,0,1,1.07,1.93v67a2.25,2.25,0,0,1-1.11,1.95l-59.1,34.86A2.3,2.3,0,0,1,99.19,166.25ZM42.36,127.82l56.83,33.52L156,127.82V63.38L100.16,28.83,42.36,63.94Z" transform="translate(-17.75 -4)"/><path class="cls-1" d="M20,102.7a2.26,2.26,0,0,1-2.27-2.27v-78a2.27,2.27,0,0,1,4.54,0v78A2.27,2.27,0,0,1,20,102.7Z" transform="translate(-17.75 -4)"/><path class="cls-1" d="M180,102.7a2.27,2.27,0,0,1-2.27-2.27v-78a2.27,2.27,0,0,1,4.54,0v78A2.26,2.26,0,0,1,180,102.7Z" transform="translate(-17.75 -4)"/><path class="cls-1" d="M20,141.71a2.27,2.27,0,0,1-2.27-2.27V117.79a2.27,2.27,0,1,1,4.54,0v21.65A2.27,2.27,0,0,1,20,141.71Z" transform="translate(-17.75 -4)"/><path class="cls-1" d="M40.09,42.35a2.28,2.28,0,0,1-2.28-2.27V6.27a2.28,2.28,0,0,1,4.55,0V40.08A2.27,2.27,0,0,1,40.09,42.35Z" transform="translate(-17.75 -4)"/><path class="cls-1" d="M160.81,42.35a2.27,2.27,0,0,1-2.27-2.27V6.27a2.27,2.27,0,1,1,4.54,0V40.08A2.27,2.27,0,0,1,160.81,42.35Z" transform="translate(-17.75 -4)"/><path class="cls-1" d="M180,141.71a2.27,2.27,0,0,1-2.27-2.27V117.79a2.27,2.27,0,1,1,4.54,0v21.65A2.27,2.27,0,0,1,180,141.71Z" transform="translate(-17.75 -4)"/><path class="cls-1" d="M45.37,67.78a2.3,2.3,0,0,1-1.08-.27L39,64.66a2.27,2.27,0,0,1,2.15-4l5.28,2.85a2.27,2.27,0,0,1-1.07,4.27Z" transform="translate(-17.75 -4)"/><path class="cls-1" d="M85,89.15a2.18,2.18,0,0,1-1.07-.27L74,83.54a2.27,2.27,0,1,1,2.16-4l9.9,5.34A2.27,2.27,0,0,1,85,89.15ZM65.18,78.47a2.3,2.3,0,0,1-1.08-.27l-9.91-5.35a2.27,2.27,0,1,1,2.16-4l9.91,5.34a2.27,2.27,0,0,1-1.08,4.27Z" transform="translate(-17.75 -4)"/><path class="cls-1" d="M100.17,97.35a2.32,2.32,0,0,1-1.08-.28l-5.28-2.85a2.27,2.27,0,1,1,2.16-4l4.18,2.25,4.12-2.34a2.27,2.27,0,1,1,2.24,4l-5.22,3A2.24,2.24,0,0,1,100.17,97.35Z" transform="translate(-17.75 -4)"/><path class="cls-1" d="M114.93,89a2.27,2.27,0,0,1-1.12-4.25l9.53-5.41a2.27,2.27,0,0,1,2.24,4l-9.53,5.4A2.3,2.3,0,0,1,114.93,89ZM134,78.16a2.27,2.27,0,0,1-1.13-4.24l9.54-5.41a2.27,2.27,0,0,1,2.24,3.95l-9.54,5.41A2.22,2.22,0,0,1,134,78.16Z" transform="translate(-17.75 -4)"/><path class="cls-1" d="M153.07,67.35a2.27,2.27,0,0,1-1.13-4.25l5.22-3a2.29,2.29,0,0,1,3.1.86,2.26,2.26,0,0,1-.86,3.09l-5.22,3A2.23,2.23,0,0,1,153.07,67.35Z" transform="translate(-17.75 -4)"/><path class="cls-1" d="M99.19,166.25A2.27,2.27,0,0,1,96.92,164v-6a2.27,2.27,0,0,1,4.54,0v6A2.27,2.27,0,0,1,99.19,166.25Z" transform="translate(-17.75 -4)"/><path class="cls-1" d="M99.19,148.87a2.27,2.27,0,0,1-2.27-2.27V135.22a2.27,2.27,0,1,1,4.54,0V146.6A2.27,2.27,0,0,1,99.19,148.87Zm0-22.76a2.27,2.27,0,0,1-2.27-2.28V112.45a2.27,2.27,0,1,1,4.54,0v11.38A2.28,2.28,0,0,1,99.19,126.11Z" transform="translate(-17.75 -4)"/><path class="cls-1" d="M99.19,103.34a2.26,2.26,0,0,1-2.27-2.27v-6a2.27,2.27,0,0,1,4.54,0v6A2.27,2.27,0,0,1,99.19,103.34Z" transform="translate(-17.75 -4)"/><path class="cls-1" d="M98.61,196c-36.15,0-64.46-14.29-64.46-32.54,0-7.23,4.44-14,12.86-19.67a2.27,2.27,0,0,1,2.53,3.78c-4.95,3.31-10.85,8.76-10.85,15.88,0,15.19,27.44,28,59.92,28s59.93-12.82,59.93-28c0-4.55-2.54-9.13-7.34-13.23a2.27,2.27,0,1,1,3-3.46c5.84,5,8.93,10.77,8.93,16.69C163.08,181.71,134.76,196,98.61,196Z" transform="translate(-17.75 -4)"/></svg>