<svg id="Layer_1" data-name="Layer 1" xmlns="http://www.w3.org/2000/svg" viewBox="0 0 144.44 190.35"><defs><style>.cls-1{fill:#fff;fill-rule:evenodd;}</style></defs><title>balance-sheet</title><path class="cls-1" d="M27.78,4.83H172.22V195.17H27.78Zm7.58,7.61V187.55H164.65V12.44Z" transform="translate(-27.78 -4.83)"/><path class="cls-1" d="M122.87,76.06a11.77,11.77,0,0,1-1.44-9.73,11.44,11.44,0,0,1,22.35,4.52,11.25,11.25,0,0,1-11.36,10.06,6.23,6.23,0,0,0-5.15,2.1c-4.92,5.07-10,10-15,14.94a2.37,2.37,0,0,0-.81,2.83,11.41,11.41,0,0,1-7.16,14.39c-6,2-12.09-1-14.53-7A4.22,4.22,0,0,0,87.4,106c-3-1-6.11-1.66-9.14-2.59a3.94,3.94,0,0,0-4.23.89c-3.69,3.1-8,3.43-12.25,1.33a10.7,10.7,0,0,1-6.26-10.17A10.86,10.86,0,0,1,62.17,85a11.24,11.24,0,0,1,15.89,8.22,3.21,3.21,0,0,0,2.87,3c2.63.56,5.19,1.45,7.82,2a3.07,3.07,0,0,0,2.52-.73c3.48-4.17,7.74-5.54,13-4.14a2.28,2.28,0,0,0,1.86-.22C111.68,87.57,117.2,81.88,122.87,76.06Zm13.34-6.59a3.82,3.82,0,1,0-3.74,3.89A4,4,0,0,0,136.21,69.47Zm-35.51,31a3.92,3.92,0,0,0-3.9,3.7,4,4,0,0,0,3.7,3.93,3.82,3.82,0,0,0,.2-7.63Zm-30.06-5a3.72,3.72,0,1,0-7.43,0,3.72,3.72,0,1,0,7.43,0Z" transform="translate(-27.78 -4.83)"/><path class="cls-1" d="M52.44,42.68V35.44h95.05v7.24Z" transform="translate(-27.78 -4.83)"/><path class="cls-1" d="M147.57,130.73V138H52.51v-7.24Z" transform="translate(-27.78 -4.83)"/><path class="cls-1" d="M52.43,164.65v-7.24h95.06v7.24Z" transform="translate(-27.78 -4.83)"/></svg>