<svg id="Layer_1" data-name="Layer 1" xmlns="http://www.w3.org/2000/svg" viewBox="0 0 194.6 190.57"><defs><style>.cls-1,.cls-2{fill:#fff;}.cls-2{fill-rule:evenodd;}</style></defs><title>banking</title><path class="cls-1" d="M98.84,38.71v-5a8.74,8.74,0,0,1-4.27-2,4.54,4.54,0,0,1-1.35-3.31A4.25,4.25,0,0,1,94.75,25a6.87,6.87,0,0,1,4.09-1.54V22.27H101v1.19a7.12,7.12,0,0,1,3.75,1.3,4.8,4.8,0,0,1,1.78,2.88l-3.75.4A2.57,2.57,0,0,0,101,26.12v4.7a10.43,10.43,0,0,1,4.85,2A4.23,4.23,0,0,1,107.13,36a4.78,4.78,0,0,1-1.63,3.67A7.79,7.79,0,0,1,101,41.53v2.25H98.84V41.6A7.65,7.65,0,0,1,94.67,40a5.94,5.94,0,0,1-2-3.66L96.5,36a3.58,3.58,0,0,0,.89,1.66A3.93,3.93,0,0,0,98.84,38.71Zm0-12.63a2.8,2.8,0,0,0-1.4.82,1.88,1.88,0,0,0-.52,1.27,1.78,1.78,0,0,0,.48,1.19,3.28,3.28,0,0,0,1.44.88ZM101,38.88A3.29,3.29,0,0,0,102.8,38a2.11,2.11,0,0,0,.69-1.57,1.89,1.89,0,0,0-.58-1.39,3.91,3.91,0,0,0-1.92-.89Z" transform="translate(-2.7 -4.71)"/><path class="cls-2" d="M25.24,73.57c-6.36-.72-7-1.22-7.73-5.84l-2.57-.33V58.26H185.13v9.11l-2.58.36c-.08,5-3.38,5.93-7.72,5.59V149c.13.08.27.26.41.27,6.51.41,7.09,1,7.13,7.66,0,2.3,0,4.6,0,7.14H17.86c0-3.75-.21-7.52.08-11.25.17-2.11,1.81-3.37,4.07-3.46,1,0,2,0,3.23,0Zm126.44,81.34c.4-4.57.6-4.72,7.47-5.84V73.61c-6.67-1-6.87-1.18-7.61-5.91h-36c-.75,4.76-1.39,5.25-7.55,5.84v75.71c6.17.33,6.46.55,7.66,5.66ZM84.61,67.74H48.45c-.48,4.5-.78,4.73-7.55,5.93v75.45c6.48.77,6.48.77,7.82,5.77H83.9C85.05,153,85.64,151,87,150.13s3.44-.8,5.22-1.14V73.68C85.3,72.39,85.21,72.31,84.61,67.74Z" transform="translate(-2.7 -4.71)"/><path class="cls-2" d="M19.09,54.68,58,30.41Q77.9,18,97.8,5.54c1.49-.93,2.56-1.2,4.22-.16q38.49,24.12,77.07,48.1c.67.41,1.3.89,2.43,1.68H19.18Zm80.74-6.17a16.79,16.79,0,0,0,16.92-16.35,16.71,16.71,0,0,0-33.42-.44A16.78,16.78,0,0,0,99.83,48.51Z" transform="translate(-2.7 -4.71)"/><path class="cls-2" d="M2.7,195.29V184.62H197.3v10.67Z" transform="translate(-2.7 -4.71)"/><path class="cls-2" d="M11.69,179.48V170.1H188.27v9.38Z" transform="translate(-2.7 -4.71)"/></svg>