<svg id="Layer_1" data-name="Layer 1" xmlns="http://www.w3.org/2000/svg" viewBox="0 0 196.47 94.97"><defs><style>.cls-1{fill:#fff;fill-rule:evenodd;}</style></defs><title>BunkerContracts</title><path class="cls-1" d="M198.23,147.48c-.7,0-1.4-.1-2.1-.1H3.87c-.71,0-1.41.07-2.1.1v-6.9h10c1-30.65,13.59-55.18,38.7-72.74a84.12,84.12,0,0,1,53.74-15.2C127.55,53.83,147.45,63,163.6,79.86s24,37.17,24.41,60.72h10.22Zm-81.36-7.06h64.37c-1-28.91-12.74-52.11-37-67.62-29.66-19-60.35-18.68-89.69.67C31,89,19.52,112,18.63,140.44H83V138.1q0-25.23,0-50.45C83,84,84.07,83,87.69,83q12.27,0,24.55,0c3.6,0,4.63,1.06,4.63,4.72v52.72Zm-7,.05V90H90v50.49Z" transform="translate(-1.77 -52.52)"/><path class="cls-1" d="M79.65,106.62c0,4.22,0,8.43,0,12.66,0,3.07-1.24,4.36-4.26,4.37q-11,0-22,0c-2.82,0-4.21-1.27-4.23-4.06q-.09-13,0-25.9c0-2.65,1.4-4,4.11-4,7.47,0,15-.06,22.44,0,2.78,0,4,1.42,4,4.25C79.66,98.17,79.65,102.4,79.65,106.62Zm-7,10.13V96.68H56.07v20.07Z" transform="translate(-1.77 -52.52)"/><path class="cls-1" d="M150.72,106.64c0,4.22,0,8.44,0,12.65,0,3.18-1.23,4.36-4.45,4.36q-10.83,0-21.67,0c-3.09,0-4.32-1.19-4.33-4.27q0-12.76,0-25.51c0-2.88,1.21-4.15,4.06-4.18q11.12-.09,22.25,0c2.93,0,4.12,1.32,4.14,4.29C150.74,98.2,150.72,102.42,150.72,106.64Zm-7-10H127.19V116.7h16.57Z" transform="translate(-1.77 -52.52)"/></svg>