<svg id="Layer_1" data-name="Layer 1" xmlns="http://www.w3.org/2000/svg" viewBox="0 0 192.37 145.02"><defs><style>.cls-1{fill:#fff;fill-rule:evenodd;}</style></defs><title>BunkerMgt</title><path class="cls-1" d="M196.13,143.66c0,8.32-.09,16.63.05,24.94,0,3-.91,3.92-3.9,3.88-10.69-.14-21.38,0-32.07,0-4.72,0-4.78,0-4.89-4.7-.36-15.79-.43-31.58-1.06-47.36C153,89.58,124.77,65.78,94.17,69.49c-28.38,3.45-48.41,25.88-48.52,54.44-.06,14.6-.11,29.21,0,43.81,0,3.49-.94,4.84-4.62,4.77-11.28-.2-22.56-.1-33.84-.06-1.88,0-3.41-.27-3.37-2.57.35-20.17-.93-40.53,1.46-60.46C10,70.65,38.9,39.81,76.67,30.38A96,96,0,0,1,196.12,125.5c-.08,6.05,0,12.11,0,18.17ZM192,168.11c0-10,.24-19.71-.07-29.42-.35-11.24.11-22.73-2.05-33.66-9.37-47.41-54-78.82-101.85-72.57A91.63,91.63,0,0,0,8.2,120.41C7.74,135.6,8.06,150.81,8,166a11,11,0,0,0,.33,2H41.43V163.8q0-20,0-39.9c0-17.36,6.2-32.15,19.15-43.6,17.94-15.87,38.72-20,61-11.12,22.49,9,34.9,26.34,36.87,50.56.81,9.92.49,19.93.62,29.9.07,6.11,0,12.23,0,18.48Z" transform="translate(-3.82 -27.49)"/><path class="cls-1" d="M99.85,172.46c-13.77,0-27.55-.05-41.32,0-2.92,0-4.25-.7-4.22-4,.14-16.15-.16-32.3.1-48.45C54.82,95,76,75,101,75.57a45.82,45.82,0,0,1,44.47,45.3c.22,15.91,0,31.82.06,47.73,0,3-1.16,3.9-4,3.89-13.89-.09-27.78,0-41.67,0Zm41.44-4.38c0-13.49.05-26.53,0-39.57a102.89,102.89,0,0,0-.62-13.84C137.82,94.49,119,79,98.47,79.77c-20.71.76-38.87,17.66-39.7,38.05-.66,16.48-.11,33-.08,49.5,0,.19.23.39.45.76Z" transform="translate(-3.82 -27.49)"/><path class="cls-1" d="M189.15,139.19A12.67,12.67,0,0,1,176.58,152a12.88,12.88,0,1,1-.17-25.76A12.65,12.65,0,0,1,189.15,139.19Zm-4.09-.28a8.75,8.75,0,0,0-8.68-8.54,9,9,0,0,0-8.66,8.67,8.67,8.67,0,1,0,17.34-.13Z" transform="translate(-3.82 -27.49)"/><path class="cls-1" d="M99.8,60.51A12.61,12.61,0,0,1,87.14,47.86a12.86,12.86,0,1,1,25.71.08C112.78,55.19,107.21,60.56,99.8,60.51Zm-8.46-12.8a8.76,8.76,0,0,0,8.45,8.8,8.62,8.62,0,0,0,8.82-8.35,8.83,8.83,0,0,0-8.55-9A9,9,0,0,0,91.34,47.71Z" transform="translate(-3.82 -27.49)"/><path class="cls-1" d="M38.1,139a12.81,12.81,0,0,1-25.61.4,13,13,0,0,1,13-13.18A12.68,12.68,0,0,1,38.1,139Zm-4.18.28a8.64,8.64,0,0,0-8.7-8.83,8.64,8.64,0,1,0,.05,17.27A8.44,8.44,0,0,0,33.92,139.24Z" transform="translate(-3.82 -27.49)"/><path class="cls-1" d="M125.5,126.09c2.38,0,4.76-.1,7.13,0a6.26,6.26,0,0,1,6.29,6,6.06,6.06,0,0,1-5.94,6.33c-5.21.2-10.46.15-15.66-.14a5.83,5.83,0,0,1-5.6-6.2,6.21,6.21,0,0,1,5.94-6c1.3-.13,2.61,0,3.92,0S124.2,126.09,125.5,126.09Zm0,4.24v0a59.16,59.16,0,0,0-7,.09c-.87.11-2.33.45-2.42,2s1.59,2,2.42,2c4.58.19,9.19.16,13.77,0,.84,0,2.4-.35,2.44-2s-1.57-1.81-2.46-1.92A53.4,53.4,0,0,0,125.45,130.33Z" transform="translate(-3.82 -27.49)"/></svg>