<?xml version="1.0" encoding="utf-8"?>
<!-- Generator: Adobe Illustrator 23.0.0, SVG Export Plug-In . SVG Version: 6.00 Build 0)  -->
<svg version="1.1" id="Layer_1" xmlns="http://www.w3.org/2000/svg" xmlns:xlink="http://www.w3.org/1999/xlink" x="0px" y="0px"
	 viewBox="0 0 200 200" style="enable-background:new 0 0 200 200;" xml:space="preserve">
<style type="text/css">
	.st0{fill-rule:evenodd;clip-rule:evenodd;fill:#FFFFFF;}
</style>
<g>
	<path class="st0" d="M74.4,176.4c-17-0.2-31-2.1-44.2-8.2c-7.6-3.5-14.3-8.2-19.3-15c-8.3-11.2-9.3-23.4-5.1-36.3
		c3.5-10.5,9.7-19.2,17.4-27c1.7-1.7,4.1-1.7,5.8-0.2c1.7,1.6,1.6,3.9,0,5.9c-3.5,4.3-7.2,8.4-10.2,13c-4.6,7-7.4,14.8-7.1,23.4
		c0.3,9.7,4.9,17.2,12.3,23.2c7.6,6.1,16.4,9.3,25.8,11.2c19.9,3.9,39.5,2.1,58.9-3.2c15.8-4.4,31.3-9.6,45.4-18.2
		c2.2-1.4,4.7-0.7,5.9,1.3c1.2,2.1,0.4,4.3-1.9,5.7c-10.5,6.3-21.7,10.9-33.3,14.7c-11.6,3.9-23.3,7.1-35.4,8.5
		C83.5,175.8,77.6,176.1,74.4,176.4z"/>
	<path class="st0" d="M125.3,47.5c17.3,0.2,31.3,2.1,44.5,8.2c7.6,3.5,14.4,8.3,19.4,15.1c4.3,5.8,6.9,12.3,7.3,19.5
		c0.5,8.6-3,15.8-8.5,22.1c-5,5.8-11.1,10.3-17.2,14.9c-1.9,1.4-4.1,1-5.5-0.7c-1.4-1.7-1.1-4.2,0.7-5.7c3.5-2.9,7.2-5.7,10.7-8.7
		c2-1.8,3.9-3.7,5.7-5.7c6.9-7.8,7.7-16.4,3.4-25.7c-3-6.4-7.8-11.2-13.8-14.9c-8-5-16.9-7.8-26.1-9c-32.6-4.3-62.8,3.4-91.3,19
		c-1,0.6-2.2,1.1-3.3,1.1c-1.7,0-3-0.9-3.6-2.6c-0.6-1.7-0.3-3.3,1.1-4.4c0.6-0.5,1.3-0.9,2.1-1.3c18.3-10.4,37.9-17.1,58.8-19.7
		C115.9,48.2,122.1,47.8,125.3,47.5z"/>
	<path class="st0" d="M117.3,116.1c1.8,2.5,3.8,3.8,6.5,3.9c3.9,0.1,7.8,0,11.7,0c2.9,0,4.8,1.7,4.8,4.1c0,2.4-1.9,4.1-4.7,4
		c-4.8-0.1-9.6,0.2-14.3-0.4c-7.6-0.9-13.3-8-13.3-15.7c0-7.8,5.7-14.7,13.4-15.9c9.5-1.6,18.1,5,18.9,14.6c0.3,3.5-1.4,5.3-4.9,5.4
		C129.5,116.1,123.6,116.1,117.3,116.1z M117.4,107.9c4.3,0,8.3,0,12.3,0c0.3,0,0.7-0.1,1.1-0.1
		C128.7,103.2,120.8,102.3,117.4,107.9z"/>
	<path class="st0" d="M59.8,104c0,4.2,0,8.1,0,12.1c0,2.5,0,5,0,7.5c-0.1,2.7-1.7,4.5-4,4.5c-2.4,0-4.1-1.9-4.1-4.7
		c0-7.7,0-15.3,0-23c0-3.1,1.6-4.7,4.6-4.7c5,0,10.1,0,15.1,0c7.1,0,12.3,5,12.5,12.1c0.1,5.3,0.1,10.6,0,15.8
		c0,2.6-1.9,4.5-4.2,4.4c-2.3-0.1-3.9-1.9-3.9-4.6c0-5,0-9.9,0-14.9c0-3.1-1.5-4.6-4.6-4.6C67.6,104,63.9,104,59.8,104z"/>
	<path class="st0" d="M100,95.8c1.4,0,2.5,0,3.7,0c2.6,0.1,4.4,1.8,4.4,4.2c-0.1,2.3-1.8,3.9-4.4,4c-1.2,0-2.4,0-3.7,0
		c0,4.3-0.1,8.3,0,12.4c0.1,2,1.6,3.3,3.7,3.6c2.8,0.3,4.5,2.1,4.2,4.5c-0.3,2.5-2.4,4-5.2,3.7c-6.3-0.8-10.8-5.6-10.9-11.9
		c-0.1-10.7,0-21.4,0-32c0-2.4,1.2-3.9,3.2-4.3c2-0.4,3.9,0.6,4.6,2.4c0.2,0.7,0.3,1.5,0.3,2.2C100,88.2,100,91.9,100,95.8z"/>
	<path class="st0" d="M156.4,123.7c-2.9-0.1-5.2,0.6-6.7,3.3c-0.2-0.1-0.5-0.2-0.7-0.2c-0.2-1.6-0.6-3.2-0.6-4.8
		c-0.1-9.8-0.1-19.6-0.1-29.4c0-2.8,0-5.7,0-8.5c0-2.6,1.6-4.3,4-4.3c2.3,0,3.9,1.6,4.1,4c0.1,0.8,0,1.6,0,2.4
		c0,11.7,0,23.5-0.1,35.2C156.4,122.2,156.4,122.8,156.4,123.7z"/>
	<path class="st0" d="M43.8,112.1c0,3.8,0,7.5,0,11.3c0,2.8-1.7,4.7-4.1,4.7c-2.4,0-4.1-1.9-4.1-4.7c0-7.7,0-15.3,0-23
		c0-2.8,1.7-4.7,4.1-4.7c2.4,0,4.1,1.9,4.1,4.7C43.8,104.4,43.8,108.3,43.8,112.1z"/>
	<path class="st0" d="M39.6,87.8c-2.2,0-4.1-1.9-4.1-4c0-2.2,1.9-4,4.1-4c2.2,0,4.1,1.9,4,4.1C43.7,86,41.9,87.8,39.6,87.8z"/>
	<path class="st0" d="M168.8,79.8c2.2,0.1,4,2.1,3.9,4.3c-0.2,2.3-2,3.9-4.3,3.8c-2.2-0.1-3.9-2-3.8-4.2
		C164.7,81.3,166.5,79.6,168.8,79.8z"/>
</g>
</svg>
