<svg id="Layer_1" data-name="Layer 1" xmlns="http://www.w3.org/2000/svg" viewBox="0 0 192.59 192.06"><defs><style>.cls-1{fill:#fff;fill-rule:evenodd;}</style></defs><title>business-analysis</title><path class="cls-1" d="M3.7,81.76A78,78,0,0,1,72.32,4.68c30.56-3.7,55.4,7.19,73.19,32,17.93,24.95,19.51,52.13,6.58,80-1.37,3-.92,4.4,1.22,6.5q18.23,17.8,36.2,35.88c6.25,6.27,8.42,13.79,5.51,22.28s-9.21,13.51-18.18,14.6c-7,.85-12.86-1.71-17.78-6.63-12-12-24.08-24-36-36.1-2.06-2.09-3.46-2.33-6.15-1A78.24,78.24,0,0,1,5.16,95.94C4.31,91.28,4.17,86.49,3.7,81.76Zm78.76,72.35c40-.07,71.71-32.32,71.69-72.92,0-39-32.38-71.27-71.37-71.21-40.6.07-72.69,32.08-72.62,72.44C10.23,121.86,42.84,154.19,82.46,154.11Zm43.8-6.57c12,12,24.29,24.28,36.58,36.53,6.88,6.85,16,7.3,22.29,1.15,6.43-6.3,6.11-15.6-.83-22.57Q167,145.31,149.66,128c-.8-.79-1.66-1.51-2.08-1.9Z" transform="translate(-3.7 -3.97)"/><path class="cls-1" d="M128.47,94.86c0,9.51-.09,19,0,28.54.05,3.31-1.24,4.74-4.51,4.68-4.11-.07-8.23-.06-12.34,0-2.82,0-4.32-1.1-4.32-4.09q.06-29.13,0-58.24c0-2.75,1.31-3.92,4.06-3.86,4.24.1,8.49.11,12.73,0,3.16-.08,4.37,1.37,4.34,4.43C128.42,75.83,128.46,85.34,128.47,94.86Zm-14.6-26.71v53.4h8.21V68.15Z" transform="translate(-3.7 -3.97)"/><path class="cls-1" d="M74.41,102.44c0-7.08.08-14.16,0-21.23,0-3.15,1.3-4.49,4.35-4.46q6.18.07,12.36,0c2.78,0,4.38,1.06,4.37,4.07q0,21.81,0,43.62c0,2.43-1.27,3.55-3.57,3.57-4.64,0-9.27.05-13.9,0-2.51,0-3.61-1.39-3.58-4,.08-7.21,0-14.42,0-21.62Zm6.28,19.09H89V83.32H80.69Z" transform="translate(-3.7 -3.97)"/><path class="cls-1" d="M93,43.53c-3.48-.27-6.13-.15-8.56-.83-1.21-.33-3.16-.92-3-3.27.36-2.13,2.44-2.62,3.64-2.59C90.71,37,96.35,37.51,102,38c2.25.18,3.3,1.58,2.79,3.68-1.35,5.49-2.72,11-4.48,16.34-.36,1.11-1.77,2.9-3.73,2.46-1.68-.37-1.89-2.73-1.84-4.07.07-2.22,1-4.42,1.77-7.65-2.21,1.49-3.57,2.38-4.9,3.31C76.39,62.8,61.22,73.62,45.92,84.28c-1.31.92-3.89,2-5,1-1.89-1.71-1.67-3.59,1.25-5.65Q65.79,62.89,89.42,46.22C90.43,45.51,91.39,44.73,93,43.53Z" transform="translate(-3.7 -3.97)"/><path class="cls-1" d="M62,108.75c0,4.24,0,8.48,0,12.72,0,2.52-1.12,3.79-3.73,3.77-5.52,0-11.05-.06-16.57,0-2.58,0-3.85-1.07-3.85-3.63,0-8.6,0-17.21,0-25.81,0-2.49,1.32-3.74,3.87-3.73,5.39,0,10.79,0,16.18,0,2.89,0,4.18,1.43,4.12,4.31C61.92,100.53,62,104.64,62,108.75Zm-17.7,10.11H55.51V98.43H44.27Z" transform="translate(-3.7 -3.97)"/></svg>