<?xml version="1.0" encoding="utf-8"?>
<!-- Generator: Adobe Illustrator 23.0.0, SVG Export Plug-In . SVG Version: 6.00 Build 0)  -->
<svg version="1.1" id="Layer_1" xmlns="http://www.w3.org/2000/svg" xmlns:xlink="http://www.w3.org/1999/xlink" x="0px" y="0px"
	 viewBox="0 0 179.9 195.9" style="enable-background:new 0 0 179.9 195.9;" xml:space="preserve">
<style type="text/css">
	.st0{fill-rule:evenodd;clip-rule:evenodd;fill:#FFFFFF;}
</style>
<title>cargo-list</title>
<path class="st0" d="M131.9,187.7c0-7.9,0-15.6,0-23.4c0-2.7,1.4-4.3,3.7-4.4c2.1-0.2,4,1.3,4.2,3.4c0,0.2,0,0.4,0,0.5
	c0.1,9.4,0.1,18.8,0,28.2c0,2.5-1.7,3.8-4.5,3.8c-10.7,0-21.3,0-32,0H5.4c-4.3,0-5.4-1.1-5.4-5.5C0,132.8,0,75.2,0,17.5
	C0,13,1.1,12,5.6,12H52c0-2.4,0-4.8,0-7.2C52,1.3,53.3,0,56.8,0C66.9,0,77,0,87,0c3.6,0,4.9,1.3,4.9,5c0,2.2,0,4.5,0,7h42.8
	c3.9,0,5.1,1.2,5.1,5c0,12.8,0,25.6,0,38.5c0,2.3-0.9,3.9-3.2,4.4c-2,0.5-3.9-0.6-4.6-2.5c-0.2-0.8-0.3-1.6-0.2-2.5
	c0-10.7,0-21.3,0-32v-2.8h-40c0,1.2,0,2.4,0,3.6c-0.1,2.7-1.5,4.2-4.1,4.3c-10.6,0-21.2,0-31.7,0c-2.6,0-4-1.5-4.1-4
	c0-1.2,0-2.5,0-3.8H8.2v167.6L131.9,187.7z M83.8,8.2H60.2v11.7h23.7V8.2z"/>
<path class="st0" d="M148.1,67.9c9,0,18,0,27,0c3.5,0,4.9,1.3,4.9,4.8c0,15.5,0,31,0,46.4c0,3.3-1.4,4.7-4.6,4.7
	c-18.2,0-36.5,0-54.7,0c-3.2,0-4.6-1.4-4.6-4.5c0-15.6,0-31.3,0-46.9c0-3.1,1.4-4.5,4.6-4.5C129.8,67.9,138.9,67.9,148.1,67.9z
	 M171.7,115.8V76.2h-11.8c0,2.6,0,5,0,7.4c0,2.9-1.4,4.3-4.3,4.3c-5.1,0-10.2,0-15.3,0c-3,0-4.4-1.5-4.4-4.4c0-2.5,0-4.9,0-7.3
	h-11.9v39.7L171.7,115.8z M143.9,79.8h7.8v-3.7h-7.8V79.8z"/>
<path class="st0" d="M143.9,143.9c0-4.1,0-7.9,0-11.6c0-2.8,1.6-4.4,4-4.4s3.9,1.6,3.9,4.4c0,5.1,0,10.1,0,15.2
	c0,2.8-1.5,4.3-4.3,4.3c-31.7,0-63.4,0-95.1,0c-2.8,0-4.4-1.5-4.5-3.9s1.6-4,4.6-4L143.9,143.9L143.9,143.9z"/>
<path class="st0" d="M69.8,71.9c-9.6,0-19.3,0-28.9,0c-3.2,0-4.9-1.4-4.9-4s1.7-4,4.9-4c19.4,0,38.7,0,58.1,0c3.2,0,4.9,1.4,4.9,4
	s-1.7,4-4.9,4C89.3,71.9,79.6,71.9,69.8,71.9z"/>
<path class="st0" d="M69.9,83.9c5.7,0,11.5,0,17.2,0c3.2,0,4.8,1.5,4.8,4.1s-1.7,3.9-4.8,3.9c-11.5,0-23,0-34.4,0
	c-3.2,0-4.8-1.5-4.8-4.1s1.8-3.9,4.8-3.9H69.9z"/>
<path class="st0" d="M69.9,103.9c5.8,0,11.6,0,17.5,0c2.9,0,4.6,1.6,4.5,4.1s-1.7,3.9-4.5,3.9c-11.7,0-23.3,0-34.9,0
	c-2.9,0-4.6-1.6-4.5-4.1s1.7-3.9,4.5-3.9C58.3,103.9,64.1,103.9,69.9,103.9z"/>
<path class="st0" d="M69.9,131.9c-5.8,0-11.6,0-17.5,0c-2.9,0-4.6-1.5-4.5-4.1s1.7-3.9,4.5-3.9c11.6,0,23.3,0,34.9,0
	c2.9,0,4.6,1.5,4.5,4.1s-1.7,3.9-4.5,3.9C81.6,131.9,75.8,131.9,69.9,131.9z"/>
<path class="st0" d="M71.7,51.9c-3.7,0-7.5,0-11.2,0c-2.8,0-4.4-1.5-4.5-3.9s1.6-4.1,4.5-4.1c7.6,0,15.3,0,22.9,0
	c2.8,0,4.4,1.5,4.5,3.9s-1.6,4.1-4.5,4.1C79.5,51.9,75.6,51.9,71.7,51.9z"/>
<path class="st0" d="M40.2,83.9c2.2,0.1,3.9,2,3.8,4.2c-0.1,2.2-2,3.9-4.2,3.8s-3.9-2-3.8-4.2c0,0,0-0.1,0-0.1
	C36.1,85.5,38,83.8,40.2,83.9C40.1,83.9,40.2,83.9,40.2,83.9z"/>
<path class="st0" d="M40.1,111.9c-2.2,0.1-4.1-1.6-4.2-3.8s1.6-4.1,3.8-4.2s4.1,1.6,4.2,3.8c0,0.1,0,0.1,0,0.2
	c0.1,2.1-1.4,3.9-3.5,4C40.3,111.9,40.2,111.9,40.1,111.9z"/>
<path class="st0" d="M44,127.8c0.1,2.2-1.7,4.1-3.9,4.1c-2.2,0.1-4.1-1.7-4.1-3.9s1.7-4.1,3.9-4.1c0,0,0.1,0,0.1,0
	c2.1-0.1,3.9,1.6,4,3.7C43.9,127.7,44,127.8,44,127.8z"/>
<path class="st0" d="M44,147.8c0,2.2-1.8,4.1-4,4.1c0,0,0,0-0.1,0c-2.2,0-3.9-1.8-3.9-3.9c0,0,0-0.1,0-0.1c-0.1-2.1,1.5-3.8,3.6-3.9
	c0.1,0,0.2,0,0.3,0c2.2-0.1,4,1.6,4.1,3.7C43.9,147.7,43.9,147.8,44,147.8z"/>
</svg>
