<?xml version="1.0" encoding="utf-8"?>
<!-- Generator: Adobe Illustrator 23.0.0, SVG Export Plug-In . SVG Version: 6.00 Build 0)  -->
<svg version="1.1" id="Layer_1" xmlns="http://www.w3.org/2000/svg" xmlns:xlink="http://www.w3.org/1999/xlink" x="0px" y="0px"
	 viewBox="0 0 194.2 156.6" style="enable-background:new 0 0 194.2 156.6;" xml:space="preserve">
<style type="text/css">
	.st0{fill-rule:evenodd;clip-rule:evenodd;fill:#FFFFFF;}
</style>
<title>chart-teams</title>
<path class="st0" d="M85.1,33.5c-10-9-7.9-21.7-1.1-28.2c7.4-7.1,19.1-7,26.4,0.2c6.9,6.8,8.3,19.4-1.3,28c16,7.9,22.9,21,22.5,38.6
	H62.8C61.4,61.5,66.1,41.9,85.1,33.5z M125,65.7c-0.7-13.3-11.7-28-27.9-28c-16.3,0-27.2,15-27.8,28H125z M97.1,6.4
	c-6.9,0-12.5,5.5-12.6,12.4c0,0,0,0,0,0V19c0,6.9,5.7,12.5,12.6,12.4c6.9,0,12.5-5.7,12.4-12.6C109.6,12,104,6.4,97.1,6.4z"/>
<path class="st0" d="M171.7,118.1c16.1,7.9,22.9,21,22.6,38.5h-68.7c-1.6-11.8,4.2-30.5,22.3-38.4c-5.5-5-7.9-11-6.6-18.3
	c0.8-4.7,3.5-8.9,7.4-11.6c7.9-5.8,19-4.6,25.4,2.9C179.8,97.8,181,109.6,171.7,118.1z M187.7,150.2c-1.1-14.4-12.8-29.3-30.3-27.9
	c-13.1,1-26.8,16-25.3,27.9H187.7z M159.8,115.9c6.9,0.6,12.9-4.4,13.5-11.3c0.6-6.9-4.4-12.9-11.3-13.5c-0.5,0-1.1-0.1-1.6,0
	c-0.2,0-0.5,0-0.7,0c-6.9-0.1-12.6,5.4-12.7,12.3c-0.1,6.8,5.2,12.4,12,12.6C159.3,115.9,159.5,115.9,159.8,115.9z"/>
<path class="st0" d="M46.3,118.2c17.6,7.8,23.8,25.7,22.3,38.4H0.2c-1.6-16.3,7.4-31.8,22.3-38.5c-5.2-4.6-7.6-10.3-6.8-17.2
	c0.6-4.7,2.9-8.9,6.6-11.9c7.5-6.4,18.8-5.8,25.6,1.3C54.2,96.7,56.2,109,46.3,118.2z M62.3,150.2c-0.8-13.6-12.2-28.8-29.1-27.9
	S6.9,139,6.6,150.2L62.3,150.2z M34.5,115.9c6.9,0,12.5-5.5,12.5-12.4C47,96.6,41.4,91,34.5,91c-6.9,0-12.5,5.5-12.5,12.4
	C22,110.3,27.6,115.9,34.5,115.9C34.4,115.9,34.4,115.9,34.5,115.9z"/>
<path class="st0" d="M94,78.4h6.3v31.3c0.1,1.1,0.5,2.1,1.2,2.9c7.1,7.2,14.3,14.3,21.4,21.5c0.4,0.4,0.9,0.9,1.3,1.4l-4.4,4.4
	l-22.4-22.6l-22.7,22.8l-4.7-4.8c0.2-0.3,0.7-0.8,1.2-1.2c7.1-7.2,14.3-14.3,21.5-21.5c0.8-0.8,1.3-1.9,1.2-3v-29L94,78.4z"/>
</svg>
