<?xml version="1.0" encoding="utf-8"?>
<!-- Generator: Adobe Illustrator 23.0.0, SVG Export Plug-In . SVG Version: 6.00 Build 0)  -->
<svg version="1.1" id="Capa_1" xmlns="http://www.w3.org/2000/svg" xmlns:xlink="http://www.w3.org/1999/xlink" x="0px" y="0px"
	 viewBox="0 0 512 512" style="enable-background:new 0 0 512 512;" xml:space="preserve">
<style type="text/css">
	.st0{fill:#F44336;}
	.st1{display:none;fill:#FFC107;}
	.st2{display:none;fill:#4CAF50;}
	.st3{display:none;fill:#F44336;}
	.st4{display:none;fill:#2196F3;}
	.st5{display:none;fill:#FAFAFA;}
	.st6{fill:#4B7CF3;}
	.st7{fill:#FFFFFF;}
</style>
<path class="st0" d="M493.2,160H256c-53-0.1-96,42.9-96.1,95.9c0,16.5,4.2,32.7,12.3,47L53.6,99.4C140-12.4,300.6-33,412.5,53.4
	C448.4,81.1,476.2,117.9,493.2,160z"/>
<path class="st1" d="M512,256c-0.1,141.3-114.7,255.9-256,256c-10.7,0-21.4-0.7-32-2.1L339.2,304c26.4-46,10.7-104.6-35.2-131.2
	c-14.5-8.4-31-12.8-47.8-12.8h237C505.7,190.5,512.1,223.1,512,256z"/>
<path class="st2" d="M339.2,304L224,509.9h-0.2C83.6,492.2-15.7,364.2,2,224c5.7-45.4,23.5-88.4,51.5-124.5L172.2,303l0.6,1.1
	c26.5,46,85.1,61.8,131.1,35.3C318.6,330.9,330.8,318.7,339.2,304z"/>
<path class="st3" d="M339.2,304c-26.5,46-85.1,61.8-131.1,35.3c-14.7-8.4-26.9-20.6-35.3-35.3l-0.6-1.1
	c-25.9-46.3-9.4-104.8,36.8-130.7c14.4-8.1,30.6-12.3,47-12.3h0.2c16.8,0,33.3,4.4,47.8,12.8C349.9,199.4,365.6,258.1,339.2,304z"/>
<path class="st4" d="M339.2,304c-26.5,46-85.1,61.8-131.1,35.3c-14.7-8.4-26.9-20.6-35.3-35.3l-0.6-1.1
	c-25.9-46.3-9.4-104.8,36.8-130.7c14.4-8.1,30.6-12.3,47-12.3h0.2c16.8,0,33.3,4.4,47.8,12.8C349.9,199.4,365.6,258.1,339.2,304z"/>
<path class="st5" d="M255.7,362.7c-18.6,0-36.9-4.9-53-14.2c-16.2-9.4-29.7-22.9-39.1-39.1c-29.5-51-12-116.3,39-145.7
	c16.2-9.4,34.6-14.3,53.4-14.3c58.9,0,106.7,47.7,106.7,106.6c0,18.8-4.9,37.2-14.3,53.4l0,0C329.3,342.4,293.9,362.7,255.7,362.7z
	 M256.2,170.7c-30.6-0.2-59,16.1-74.2,42.7c-23.6,40.9-9.5,93.1,31.3,116.7s93.1,9.5,116.7-31.3l0,0c23.6-40.8,9.6-93-31.2-116.6
	C285.8,174.7,271.2,170.7,256.2,170.7L256.2,170.7L256.2,170.7z"/>
<circle class="st6" cx="256" cy="256" r="256"/>
<g>
	<path class="st7" d="M205.3,200.7h-56.9v36.5h47.6c4.4,0,7.7,1,9.9,3c2.2,2,3.3,4.6,3.3,7.9s-1.1,5.9-3.3,7.9
		c-2.2,1.9-5.5,2.9-9.8,2.9h-47.6v47c0,6-1.3,10.4-4,13.3c-2.7,2.9-6.1,4.3-10.4,4.3c-4.3,0-7.8-1.5-10.5-4.4c-2.7-2.9-4-7.3-4-13.2
		V196.2c0-4.1,0.6-7.5,1.8-10.2c1.2-2.6,3.2-4.5,5.8-5.7c2.6-1.2,6-1.8,10.1-1.8h68.1c4.6,0,8,1,10.3,3.1s3.4,4.7,3.4,8
		c0,3.4-1.1,6.1-3.4,8.1C213.3,199.7,209.9,200.7,205.3,200.7z"/>
	<path class="st7" d="M241.6,305.9V193.5c0-5.8,1.3-10.2,4-13.1c2.7-2.9,6.1-4.4,10.3-4.4c4.3,0,7.9,1.4,10.6,4.3
		c2.7,2.9,4,7.3,4,13.2v112.4c0,5.9-1.3,10.3-4,13.2c-2.7,2.9-6.2,4.4-10.6,4.4c-4.2,0-7.6-1.5-10.3-4.4
		C242.9,316.1,241.6,311.7,241.6,305.9z"/>
	<path class="st7" d="M297.5,293.3l31.9-46.6l-26.8-41.4c-2.5-4-4.4-7.5-5.7-10.4c-1.3-2.9-1.9-5.7-1.9-8.3c0-2.7,1.2-5.2,3.6-7.3
		c2.4-2.2,5.4-3.3,8.9-3.3c4,0,7.1,1.2,9.4,3.6c2.2,2.4,5.3,6.8,9.3,13.2l21.4,34.6l22.9-34.6c1.9-2.9,3.5-5.4,4.8-7.5
		c1.3-2.1,2.6-3.8,3.8-5.2c1.2-1.4,2.6-2.4,4.1-3.1c1.5-0.7,3.3-1,5.3-1c3.6,0,6.6,1.1,8.9,3.3c2.3,2.2,3.5,4.8,3.5,7.7
		c0,4.3-2.5,10.2-7.5,17.7l-28.1,42l30.3,46.6c2.7,4.1,4.7,7.5,5.9,10.2c1.2,2.7,1.8,5.2,1.8,7.6c0,2.3-0.6,4.3-1.7,6.2
		c-1.1,1.9-2.7,3.4-4.7,4.5c-2,1.1-4.3,1.7-6.8,1.7c-2.7,0-5-0.6-6.9-1.7c-1.9-1.1-3.4-2.5-4.6-4.2c-1.2-1.7-3.3-5-6.5-9.8
		l-25.1-39.5l-26.7,40.7c-2.1,3.2-3.6,5.5-4.4,6.8c-0.9,1.3-1.9,2.6-3.2,3.8c-1.2,1.2-2.7,2.2-4.4,2.9c-1.7,0.7-3.7,1.1-5.9,1.1
		c-3.5,0-6.4-1.1-8.7-3.2c-2.3-2.1-3.5-5.3-3.5-9.3C290.4,306.1,292.8,300.3,297.5,293.3z"/>
</g>
</svg>
