<svg id="Layer_1" data-name="Layer 1" xmlns="http://www.w3.org/2000/svg" viewBox="0 0 155.36 188.3"><defs><style>.cls-1{fill:#fff;fill-rule:evenodd;}</style></defs><title>Claims</title><path class="cls-1" d="M134.68,5.85C144,9,147.5,15.46,147.39,25.24c-.33,30.77-.12,61.54-.12,92.31v5.19c10.47,2.07,18.75,7.24,24.55,16,14,21.28,1.56,50.18-23.55,54.63a9.66,9.66,0,0,0-1.87.76h-9.21a5.83,5.83,0,0,0-1.41-.71c-12.81-2.27-21.65-9.65-26.81-21.35-1.19-2.68-2.49-3.39-5.2-3.37-16,.11-32,.06-48.07.06-5.85,0-11.71.16-17.55-.06-9.65-.37-15.75-6.37-15.77-15.79q-.15-54.77,0-109.51A7.63,7.63,0,0,1,24,38.48C34.86,27.5,45.88,16.7,56.85,5.85Zm1.69,116.8v-4q0-47.48,0-94.93c0-5.84-1.19-7-7.15-7H68.57c-1.33,0-2.67.12-4.23.19,0,7.9,0,15.42,0,22.93,0,6.26-1.64,7.88-7.88,7.88h-23c-.09,1.75-.2,3-.2,4.21q0,49.35,0,98.69c0,6.06,1.21,7.24,7.38,7.24q30.53,0,61.05,0c1.37,0,2.73-.12,4.15-.18C107.67,138.77,117.77,127.25,136.37,122.65Zm30.27,35.74c-.08-13.94-11.15-25.2-24.76-25.17-13.9,0-24.87,11.32-24.79,25.52a24.78,24.78,0,0,0,49.55-.35ZM53.19,25.87l-11,10.79h11Z" transform="translate(-22.32 -5.85)"/><path class="cls-1" d="M84.69,71.27c-11.13,0-22.27,0-33.4,0-4.64,0-7-1.8-7-5.26s2.61-5.51,6.92-5.52q33.62,0,67.22,0c5.31,0,8.35,3.69,6.06,7.54a7.75,7.75,0,0,1-5.6,3.08C107.52,71.42,96.1,71.27,84.69,71.27Z" transform="translate(-22.32 -5.85)"/><path class="cls-1" d="M84.91,114.83c-11.27,0-22.55,0-33.82,0-4.38,0-6.61-1.73-6.77-5s2.42-5.7,6.7-5.71q33.81-.06,67.63,0c4.14,0,6.59,2.16,6.61,5.39s-2.36,5.32-6.54,5.34C107.45,114.85,96.18,114.82,84.91,114.83Z" transform="translate(-22.32 -5.85)"/><path class="cls-1" d="M84.91,82q16.71,0,33.41,0c4.28,0,7,2.16,7,5.43s-2.84,5.45-7.06,5.45q-33.4,0-66.81,0c-4.36,0-7-2-7.09-5.37C44.2,83.94,46.72,82,51.5,82Q68.21,81.95,84.91,82Z" transform="translate(-22.32 -5.85)"/><path class="cls-1" d="M63.84,137.13c-4.17,0-8.34.07-12.51,0s-6.94-2.23-7-5.51c-.07-3.45,2.29-5.37,6.84-5.39,8.61,0,17.23.07,25.84,0,3.67,0,5.9,1.49,6.36,5.1.4,3.16-2.25,5.66-6.18,5.8-4.44.16-8.89,0-13.34,0Z" transform="translate(-22.32 -5.85)"/><path class="cls-1" d="M147.26,151.52c0,2.23,0,4.45,0,6.68-.07,3.35-2,5.21-5.16,5.39a5,5,0,0,1-5.61-4.94,112.21,112.21,0,0,1,0-15c.23-3.09,2.4-5,5.75-4.73,3.1.22,4.8,2,5,5.1C147.35,146.51,147.25,149,147.26,151.52Z" transform="translate(-22.32 -5.85)"/><path class="cls-1" d="M147.3,172.69c-.18,3.27-1.74,5.26-5,5.55a5.41,5.41,0,0,1-5.87-5.16c-.1-2.87,2.67-5.84,5.53-5.64C145.09,167.67,147,169.48,147.3,172.69Z" transform="translate(-22.32 -5.85)"/></svg>