<svg id="Layer_1" data-name="Layer 1" xmlns="http://www.w3.org/2000/svg" viewBox="0 0 195.57 195.62"><defs><style>.cls-1{fill:#fff;fill-rule:evenodd;}</style></defs><title>COAMgt</title><path class="cls-1" d="M2.22,188.64V76.34c3.19-7.07,8.84-9.29,16.31-9.06,11.19.34,22.39.09,33.58.09h7c.08-1.67.18-2.91.18-4.15,0-7.51-.17-15,.12-22.51a9.78,9.78,0,0,1,2.44-6c9.74-10,19.75-19.83,29.56-29.8a8.62,8.62,0,0,1,6.72-2.75c28.25.09,56.49.05,84.74.05,10.46,0,14.88,4.4,14.88,14.81V166.29c0,10.93-4.37,15.3-15.23,15.29H124.76c-1.11,10.88-1.8,12-9.48,16.24H11.39A16.55,16.55,0,0,1,2.22,188.64ZM67.35,67.37h5.54c12.6,0,25.2,0,37.8,0,8.81,0,13.76,5,13.77,13.72q0,30.35,0,60.71v31.57h58.67c5.55,0,6.46-.89,6.46-6.38q0-75,0-150.07c0-5.7-.74-6.46-6.34-6.46q-39.72,0-79.43,0c-1.21,0-2.42.14-3.82.22,0,9.28,0,18.17,0,27.07,0,2.55-.65,4.87-3.5,5-5.53.25-11.08.07-16.69.07v-8H91.49V16.39c-8.1,8.16-15.62,15.71-23.08,23.3a3.69,3.69,0,0,0-1,2.33C67.32,50.27,67.35,58.52,67.35,67.37ZM10.43,132.49q0,25.57,0,51.17c0,5,.89,5.92,5.72,5.93q47.16,0,94.32,0c4.86,0,5.76-.93,5.76-5.88q0-51.17,0-102.34c0-4.72-1.11-5.79-5.9-5.79q-47,0-93.94,0c-5,0-6,1-6,6.1Q10.4,107.1,10.43,132.49Z" transform="translate(-2.22 -2.19)"/><path class="cls-1" d="M132.43,36.2C125,43.73,118.1,50.8,111,58.06l-5.56-5.81c8.16-8.18,16.24-16.41,24.48-24.47,2.17-2.12,4.42-1.1,6.35.87,4.72,4.79,9.48,9.55,13.89,14L162,30.91l-4.7-.46V22.76c5.56,0,11.12-.24,16.63.18,1.21.09,3.13,2.4,3.23,3.79.39,5.17.16,10.39.16,15.9h-7.8c-.12-1.7-.24-3.31-.43-5.86-1.72,1.68-3,2.93-4.29,4.2-3.34,3.32-6.64,6.67-10,10-3,3-4.78,3-7.73.06C142.31,46.25,137.61,41.44,132.43,36.2Z" transform="translate(-2.22 -2.19)"/><path class="cls-1" d="M177.15,92v7.7H137V92Z" transform="translate(-2.22 -2.19)"/><path class="cls-1" d="M177.09,120.28H136.91v-7.83h40.18Z" transform="translate(-2.22 -2.19)"/><path class="cls-1" d="M177.17,153.25v7.61H137v-7.61Z" transform="translate(-2.22 -2.19)"/><path class="cls-1" d="M136.85,79.29v-7.5H177.1v7.5Z" transform="translate(-2.22 -2.19)"/><path class="cls-1" d="M136.78,140.46V133H177v7.47Z" transform="translate(-2.22 -2.19)"/><path class="cls-1" d="M63.72,83.79c10.3,0,20.59,0,30.89,0,7.91,0,13.36,4.82,13.56,11.88s-5.38,12.5-13.38,12.54q-31.46.11-62.93,0c-7.77,0-13.32-5.19-13.38-12.17C18.42,88.88,24,83.81,32.07,83.79,42.62,83.76,53.17,83.78,63.72,83.79ZM63.43,100c10.31,0,20.61,0,30.92,0,3,0,5.57-.76,5.55-4.21,0-3.24-2.51-4-5.36-4q-31.11,0-62.22,0c-2.95,0-5.64.71-5.55,4.24s2.78,4,5.74,4C42.81,100,53.12,100,63.43,100Z" transform="translate(-2.22 -2.19)"/><path class="cls-1" d="M63.14,132.65c-2.54,0-5.08.11-7.61,0-2.83-.16-4.44-1.69-4.42-4.64.08-11.14-1.42-12,11.09-11.75,2.79.07,5.58,0,8.37,0,3.44,0,4.94,1.77,5,5.25.25,11.2.32,11.19-10.93,11.16H63.14Z" transform="translate(-2.22 -2.19)"/><path class="cls-1" d="M63,157.13c-2,0-4.06,0-6.09,0a7,7,0,0,1-2.26-.15c-6.17-2.28-2.83-7.57-3.46-11.53-.46-2.87,1.44-4.6,4.27-4.68,5.2-.14,10.41-.11,15.61,0,2.83.06,4.43,1.64,4.48,4.58,0,.13,0,.25,0,.38C76.07,157.2,76.06,157.21,63,157.13Z" transform="translate(-2.22 -2.19)"/><path class="cls-1" d="M63,181.57c-2,0-4.06,0-6.09,0a6.89,6.89,0,0,1-2.63-.23c-5.74-2.63-2.49-7.78-3.08-11.8-.39-2.7,1.6-4.25,4.23-4.31,5.33-.12,10.66,0,16,0a1.86,1.86,0,0,1,.74.12c5.93,2.51,2.66,7.7,3.26,11.7.44,2.89-1.61,4.39-4.43,4.51-2.67.1-5.34,0-8,0Z" transform="translate(-2.22 -2.19)"/><path class="cls-1" d="M30.76,132.7c-2.15,0-4.31,0-6.46,0-4.52-.09-5.75-1.37-5.84-6-.21-10.32-.16-10.38,10.14-10.43,3.17,0,6.34,0,9.51,0,3,0,4.61,1.46,4.8,4.63.69,11.43.41,11.77-11,11.77H30.76Z" transform="translate(-2.22 -2.19)"/><path class="cls-1" d="M96.33,116.26H99c8.6,0,12.24,5.45,8.73,13.53-.58,1.34-2.82,2.63-4.38,2.75-4.92.35-9.88.2-14.82.13-3,0-4.58-1.51-4.77-4.69-.67-11.38-.42-11.7,11-11.74h1.53Z" transform="translate(-2.22 -2.19)"/><path class="cls-1" d="M30.51,157.12c-2.16,0-4.31,0-6.46,0a5.62,5.62,0,0,1-2.26-.2C16,154.35,19,149.2,18.57,145.17c-.32-2.78,1.72-4.39,4.58-4.43,5.06-.06,10.14-.1,15.2,0,2.81,0,4.51,1.5,4.53,4.49,0,2.41,0,4.82,0,7.23,0,3.19-1.78,4.57-4.77,4.64C35.58,157.16,33,157.12,30.51,157.12Z" transform="translate(-2.22 -2.19)"/><path class="cls-1" d="M95.77,157.12H89.68a9.14,9.14,0,0,1-1.89-.05c-6.41-1.45-3.39-6.65-4-10.33-.49-3,.42-5.81,4.12-6,5.31-.2,10.65-.25,16,0,3.8.18,4.39,2,4.35,10.1,0,3.24-.61,6-4.5,6.18-2.65.16-5.32,0-8,0Z" transform="translate(-2.22 -2.19)"/><path class="cls-1" d="M30.65,181.57c-2,0-4.06,0-6.08,0a7.68,7.68,0,0,1-2.64-.19c-5.8-2.27-2.89-7.34-3.39-11.23-.38-3,1.4-4.87,4.47-4.94,5.19-.11,10.39-.12,15.59,0,2.64.07,4.21,1.55,4.28,4.34,0,.13,0,.25,0,.38C43.64,181.46,43.45,181.64,30.65,181.57Z" transform="translate(-2.22 -2.19)"/><path class="cls-1" d="M96,181.57c-.64,0-1.27,0-1.91,0-11.77.39-10.45-.65-10-12.85,0-1.23,2.61-3.26,4.12-3.38,5.17-.43,10.38-.17,15.58-.16a2.4,2.4,0,0,1,.76.08c6.2,2.2,3.12,7.47,3.63,11.45.38,3-1.49,4.74-4.56,4.84C101,181.63,98.48,181.57,96,181.57Z" transform="translate(-2.22 -2.19)"/></svg>