<?xml version="1.0" encoding="utf-8"?>
<!-- Generator: Adobe Illustrator 23.0.0, SVG Export Plug-In . SVG Version: 6.00 Build 0)  -->
<svg version="1.1" id="Layer_1" xmlns="http://www.w3.org/2000/svg" xmlns:xlink="http://www.w3.org/1999/xlink" x="0px" y="0px"
	 viewBox="0 0 196.1 149" style="enable-background:new 0 0 196.1 149;" xml:space="preserve">
<style type="text/css">
	.st0{fill-rule:evenodd;clip-rule:evenodd;fill:#FFFFFF;}
</style>
<title>contacts</title>
<path class="st0" d="M101.9,15.7h81.7c5.6,0,10,2.8,11.7,7.6c0.5,1.5,0.8,3.2,0.8,4.8c0,36.2,0,72.4,0,108.6
	c0,7.2-5.1,12.4-12.3,12.4c-8.6,0-17.1,0-25.6,0h-1.2v-7.8h-7.8v7.6h-102v-7.7h-7.8v7.6c-0.3,0.1-0.6,0.1-0.9,0.1
	c-8.8,0-17.7,0-26.5,0c-5.6,0-10.4-3.9-11.5-9.3c-0.2-1-0.3-2-0.3-3c0-41.4,0-82.8,0-124.3c0-6.2,3.6-10.8,9.5-12.1
	C10.4,0.1,11.3,0,12.2,0C38,0,63.9,0,89.7,0c6.1-0.2,11.3,4.2,12.1,10.2C102,12.1,102,13.9,101.9,15.7z M94.1,23.5c0-4,0-7.8,0-11.6
	c0.1-1.8-1-3.4-2.8-3.9c-0.7-0.1-1.3-0.2-2-0.2H12.6c-0.4,0-0.8,0-1.2,0C9.6,8,8.1,9.4,7.9,11.2c-0.1,0.7-0.1,1.3-0.1,2v123.1
	c0,3.5,1.4,4.9,4.9,4.9h18.6v-7.7h23.6v7.7h86.3v-7.7h23.6v7.6c0.1,0.1,0.2,0.1,0.4,0.1c6.4,0,12.8,0,19.3,0c1.9,0,3.5-1.3,3.8-3.2
	c0.1-0.6,0.2-1.3,0.1-2V28.6c0-0.6,0-1.1-0.1-1.7c-0.2-1.9-1.7-3.3-3.6-3.4c-0.6-0.1-1.2,0-1.8,0L94.1,23.5L94.1,23.5z"/>
<path class="st0" d="M82.4,105.8H23.6c0-3.6,1.7-6.9,4.7-8.9c2.7-1.6,5.5-3,8.4-4.3c2-1,4.1-1.7,6.1-2.8s3.3-2.8,3-5.3
	c0-0.4,0-0.7,0-1.1c0-1.8,0.1-3.5-1.3-5c-0.7-0.9-1.2-2-1.5-3.1c-0.5-1.3-0.6-2.8-2-3.8s-1.9-4.9-0.5-6.4c0.2-0.4,0.2-0.8,0.1-1.2
	c-0.7-3.2-1-6.5-0.9-9.8c0.5-6.2,4.4-10.3,10.6-10.8c1.9-0.2,3.8-0.1,5.7,0.3c1.1,0.2,2.1,1.1,3.1,1.8c0.3,0.2,0.5,0.5,0.8,0.6
	c4.4,1.6,6.2,3.9,6.4,8.6c0.1,3.2-0.2,6.4-1.1,9.4c-0.2,0.6-0.2,1.3,0.2,1.8c1.3,1.8,0.4,5.5-1.5,6.7c-0.3,0.2-0.5,0.5-0.6,0.9
	C63,75.7,62,78,60.5,79.9c-0.2,0.3-0.3,0.6-0.3,1c0,1.4,0.1,2.9,0,4.3c-0.1,1.6,0.7,3,2,3.9c1.5,1,3,1.8,4.6,2.5
	c2.6,1.2,5.2,2.1,7.8,3.3c3.5,1.7,6.3,4.2,7.4,8.2C82.1,103.9,82.2,104.8,82.4,105.8z"/>
<path class="st0" d="M102,66.5v-7.7h70.5v7.7H102z"/>
<path class="st0" d="M172.5,78.5v7.7h-70.5v-7.7H172.5z"/>
<path class="st0" d="M172.5,105.8h-70.4v-7.7h70.4V105.8z"/>
</svg>
