<svg id="layers_1_" data-name="layers (1)" xmlns="http://www.w3.org/2000/svg" xmlns:xlink="http://www.w3.org/1999/xlink" width="38" height="38" viewBox="0 0 38 38">
  <defs>
    <linearGradient id="linear-gradient" x1="0.5" y1="1" x2="0.5" gradientUnits="objectBoundingBox">
      <stop offset="0" stop-color="#fd3a84"/>
      <stop offset="1" stop-color="#ffa68d"/>
    </linearGradient>
    <linearGradient id="linear-gradient-2" x1="0.5" y1="1" x2="0.5" gradientUnits="objectBoundingBox">
      <stop offset="0" stop-color="#ffc2cc"/>
      <stop offset="1" stop-color="#fff2f4"/>
    </linearGradient>
  </defs>
  <path id="Path_17" data-name="Path 17" d="M19,317.315a1.076,1.076,0,0,1-.5-.122L.615,307.837a1.182,1.182,0,0,1,0-2.075l8.98-4.639a1.075,1.075,0,0,1,1,0L19,305.5l8.408-4.38a1.075,1.075,0,0,1,1,0l8.98,4.639a1.182,1.182,0,0,1,0,2.075L19.5,317.192a1.076,1.076,0,0,1-.5.122Z" transform="translate(0 -279.315)" fill="url(#linear-gradient)"/>
  <path id="Path_18" data-name="Path 18" d="M19,197.237a1.076,1.076,0,0,1-.5-.122L.615,187.837a1.182,1.182,0,0,1,0-2.075l8.98-4.639a1.075,1.075,0,0,1,1,0L19,185.5l8.408-4.38a1.075,1.075,0,0,1,1,0l8.98,4.639a1.182,1.182,0,0,1,0,2.075L19.5,197.115a1.076,1.076,0,0,1-.5.122Z" transform="translate(0 -167.957)" fill="url(#linear-gradient-2)"/>
  <path id="Path_19" data-name="Path 19" d="M19,20.954a1.076,1.076,0,0,1-.5-.122L.615,11.553a1.182,1.182,0,0,1,0-2.075L18.5.123a1.075,1.075,0,0,1,1,0L37.385,9.478a1.182,1.182,0,0,1,0,2.075L19.5,20.832a1.076,1.076,0,0,1-.5.122Z" transform="translate(0 0)" fill="url(#linear-gradient)"/>
</svg>
