<svg xmlns="http://www.w3.org/2000/svg" xmlns:xlink="http://www.w3.org/1999/xlink" width="43.133" height="43.133" viewBox="0 0 43.133 43.133">
  <defs>
    <linearGradient id="linear-gradient" x1="0.5" y1="1" x2="0.5" gradientUnits="objectBoundingBox">
      <stop offset="0" stop-color="#fd5900"/>
      <stop offset="1" stop-color="#ffde00"/>
    </linearGradient>
    <linearGradient id="linear-gradient-2" x1="0.5" y1="1" x2="0.5" gradientUnits="objectBoundingBox">
      <stop offset="0" stop-color="#ffe59a"/>
      <stop offset="1" stop-color="#ffffd5"/>
    </linearGradient>
  </defs>
  <g id="return-of-investment" transform="translate(0 0)">
    <path id="Path_22" data-name="Path 22" d="M104.9,91a13.9,13.9,0,1,0,13.9,13.9A13.916,13.916,0,0,0,104.9,91Z" transform="translate(-83.334 -83.334)" fill="url(#linear-gradient)"/>
    <g id="Group_21" data-name="Group 21" transform="translate(0 0)">
      <g id="Group_20" data-name="Group 20" transform="translate(0 0)">
        <path id="Path_23" data-name="Path 23" d="M24.515,18.408a1.264,1.264,0,1,0,2.527,0A4.092,4.092,0,0,0,25.3,15.163,5.955,5.955,0,0,0,22.83,14.1v-.117a1.264,1.264,0,0,0-2.527,0V14.1a5.955,5.955,0,0,0-2.473,1.061,4.092,4.092,0,0,0-1.739,3.245,4.092,4.092,0,0,0,1.739,3.245A5.955,5.955,0,0,0,20.3,22.713v3.711c-.978-.316-1.685-.976-1.685-1.7a1.264,1.264,0,1,0-2.527,0,4.092,4.092,0,0,0,1.739,3.245A5.955,5.955,0,0,0,20.3,29.032v.117a1.264,1.264,0,0,0,2.527,0v-.117A5.955,5.955,0,0,0,25.3,27.971a3.9,3.9,0,0,0,0-6.49A5.955,5.955,0,0,0,22.83,20.42V16.709c.978.316,1.685.976,1.685,1.7Zm-4.212,1.7c-.978-.316-1.685-.976-1.685-1.7s.707-1.383,1.685-1.7Zm4.212,4.62c0,.723-.707,1.383-1.685,1.7v-3.4C23.808,23.343,24.515,24,24.515,24.726Zm17.617-9.574a1.264,1.264,0,0,0-2.409.764A18.964,18.964,0,0,1,10.807,37.2a1.263,1.263,0,0,0,.521-2.456L5.967,32.962a1.264,1.264,0,0,0-1.6,1.6l1.787,5.361a1.264,1.264,0,1,0,2.4-.8l-.2-.591a21.493,21.493,0,0,0,33.776-23.38ZM2.527,21.482a18.962,18.962,0,0,1,29.8-15.554,1.263,1.263,0,0,0-.521,2.456l5.361,1.787a1.264,1.264,0,0,0,1.6-1.6L36.978,3.212a1.264,1.264,0,1,0-2.4.8l.2.591A21.493,21.493,0,0,0,1,27.982a1.264,1.264,0,0,0,2.409-.764,18.947,18.947,0,0,1-.883-5.735Z" transform="translate(0 0)" fill="url(#linear-gradient-2)"/>
      </g>
    </g>
  </g>
</svg>
