<?xml version="1.0" encoding="utf-8"?>
<!-- Generator: Adobe Illustrator 23.0.0, SVG Export Plug-In . SVG Version: 6.00 Build 0)  -->
<svg version="1.1" id="Layer_1" xmlns="http://www.w3.org/2000/svg" xmlns:xlink="http://www.w3.org/1999/xlink" x="0px" y="0px"
	 viewBox="0 0 196.4 158" style="enable-background:new 0 0 196.4 158;" xml:space="preserve">
<style type="text/css">
	.st0{fill-rule:evenodd;clip-rule:evenodd;fill:#FFFFFF;}
</style>
<title>email-intelligent</title>
<path class="st0" d="M31,124.4v-4.6c-0.9-0.1-1.6-0.1-2.4-0.1c-8.1-0.2-14.1-6.1-14.2-14.3c-0.1-6.8-0.1-13.6,0-20.3
	c0.1-1.5-0.5-2.9-1.6-3.9c-9.1-8.6-8.9-22.3,0.1-31c0.8-0.9,1.3-2.1,1.4-3.4c0.2-4.3,0-8.6,0.1-12.8c0.1-8.9,6.2-14.9,15.1-14.9h37
	V5.5c0-0.9,0-1.7,0-2.6c0-1.6,0.7-2.8,2.3-2.9c1.9-0.1,2.6,1.3,2.6,2.9c0,2.3,0,4.7,0,7v9.2c4.3,0,8.4,0,12.5,0
	c1.9,0,3.9,0.1,5.8,0.5c6.3,1.4,10.9,7,10.9,13.4c0.1,24.2,0.1,48.5,0,72.7c0,7.6-6.1,13.8-13.8,14c-0.8,0-1.7,0-2.7,0v4.7
	c5.5,0,10.8,0,16.2,0c7.5,0.1,13.6,4.9,14.5,12.2c0.5,5.1,0.5,10.3,0.1,15.4c-0.2,3.6-3.5,6-7.4,6c-20,0-40,0-60.1,0
	c-13.1,0-26.2,0-39.3,0c-5.3,0-8-2.8-8-8.1c0-3.6,0-7.2,0-10.8c-0.2-8,6.1-14.6,14-14.7c0.2,0,0.3,0,0.5,0
	C19.9,124.4,25.3,124.4,31,124.4z M95.8,76.6v-2.2c0-13.3,0-26.7,0-40C95.8,28,91.9,24,85.5,24c-18.7,0-37.4,0-56.1,0
	c-6.4,0-10.2,4-10.2,10.5c0,13.1,0,26.2,0,39.3c0,0.8,0.1,1.5,0.1,2.4H22c9.3,0,18.5,0.1,27.8-0.1c2.4-0.1,4.7,0.8,6.5,2.4
	c3.5,3.2,7.2,6.2,10.8,9.2C71.1,84.4,75,81.1,79,78c1-0.8,2.3-1.2,3.5-1.3C86.8,76.5,91.2,76.6,95.8,76.6z M19.2,81.2v23
	c0,6.8,4,10.8,10.7,10.8h55.4c6.4,0,10.5-4.1,10.5-10.5c0-6.9,0-13.7,0-20.6c0-0.8-0.1-1.5-0.1-2.5c-3.6,0-7,0.1-10.4-0.1
	c-1.9-0.1-3.8,0.6-5.2,2c-3.4,3-6.9,5.8-10.4,8.7c-2.4,2-2.8,1.9-5.2-0.1c-1.8-1.3-3.4-2.7-5-4.3c-4.8-5.4-10.6-7.3-17.8-6.7
	S26.9,81.2,19.2,81.2z M52.7,153.2c1.8-7.9,6.9-12.8,13.5-13c7.9-0.3,12.7,3.7,15.6,13c8.6,0,17.2,0,25.9,0c1.8,0,2.5-1.3,2.5-3
	c0-3.5,0-7,0-10.5c0-6.5-3.8-10.3-10.3-10.3H15.1c-6.3,0-10.2,3.8-10.3,10.1c-0.1,3.2,0,6.4,0,9.6c0,3.6,0.5,4.1,4.3,4.1L52.7,153.2
	L52.7,153.2z M36.1,124.2h42.8v-4.4H36.1L36.1,124.2z M76.1,153.1c-0.5-4.4-4.5-7.5-9.2-7.4c-4.5,0.1-8.3,3.3-8.8,7.4H76.1z
	 M14.3,56.6c-4.4,4.8-4,15.1,0,18.2V56.6z"/>
<path class="st0" d="M156,55.1h34.6c4.2,0,5.8,1.7,5.8,5.8c0,16.9,0,33.8,0,50.7c0,4-1.7,5.8-5.6,5.8h-70.1c-4,0-5.7-1.6-5.7-5.6
	c0-17,0-34,0-51c0-4,1.6-5.6,5.7-5.6L156,55.1z M189.8,112.5c-8.6-8.7-17-17.3-25.6-26c-2.4,1.9-4.9,3.7-7.1,5.7
	c-1.9,1.7-3.5,1.6-5.3-0.1s-3.7-3.1-5.3-4.5l-24.3,25L189.8,112.5z M154.6,87.8L189.8,60h-68.4L154.6,87.8z M191.3,106.4V65
	l-22.9,18L191.3,106.4z M119.8,106.2L142,83.7l-22.2-18.6V106.2z"/>
<path class="st0" d="M141.6,40.8c-0.7,0.8-1.2,1.9-1.9,2c-0.9,0.2-2.5-0.3-2.8-0.9c-1.8-4.2-3.5-8.4-5.1-12.7c0-1,0.4-2,1.3-2.6
	c0.7-0.3,2.5,0,2.8,0.6C137.9,31.6,139.7,36.1,141.6,40.8z"/>
<path class="st0" d="M179.8,28.3c-0.3,1-0.4,1.5-0.6,2c-1.4,3.6-2.9,7.2-4.3,10.8c-0.6,1.6-1.7,2.5-3.4,1.8s-1.8-2-1.2-3.5
	c1.5-3.8,2.9-7.5,4.6-11.2c0.6-1,1.6-1.6,2.8-1.7C178.4,26.4,179.2,27.7,179.8,28.3z"/>
<path class="st0" d="M158.1,34.8c0,1.9,0,3.9,0,5.8c0,1.3-1.1,2.4-2.4,2.4c-1.3,0-2.4-1.1-2.4-2.4c0-3.9,0-7.8,0-11.7
	c-0.1-1.3,0.9-2.5,2.2-2.5s2.5,0.9,2.5,2.2c0,0.1,0,0.2,0,0.3C158.1,30.9,158.1,32.8,158.1,34.8z"/>
<path class="st0" d="M48,69.5c-2.6,0-4.7-2.1-4.9-4.7c-0.1-2.7,2-4.9,4.7-5c2.7-0.1,4.9,2,5,4.7C52.8,67.2,50.7,69.4,48,69.5z"/>
<path class="st0" d="M83.9,59.8c2.6,0.1,4.7,2.2,4.8,4.8c-0.1,2.7-2.2,4.8-4.9,4.9c-2.7-0.1-4.8-2.3-4.7-5
	C79.1,61.9,81.3,59.8,83.9,59.8z"/>
<path class="st0" d="M94,134.1c1.6,0,3.1-0.1,4.7,0c3.3,0.1,6.1,2.6,6.5,5.9c0.2,2.8,0.3,5.6,0.2,8.4c0.1,1.2-0.8,2.3-2,2.5
	c-0.2,0-0.3,0-0.5,0c-1.3,0-2.4-1.1-2.3-2.4c0-0.1,0-0.2,0-0.3c0-2.1,0-4.2,0-6.3s-1-3-3-3c-2.8,0-5.6,0-8.4,0c-1.8,0-3-0.7-2.9-2.5
	s1.3-2.3,3-2.3S92.5,134.1,94,134.1L94,134.1z"/>
</svg>
