<?xml version="1.0" encoding="utf-8"?>
<!-- Generator: Adobe Illustrator 23.0.0, SVG Export Plug-In . SVG Version: 6.00 Build 0)  -->
<svg version="1.1" id="Layer_1" xmlns="http://www.w3.org/2000/svg" xmlns:xlink="http://www.w3.org/1999/xlink" x="0px" y="0px"
	 viewBox="0 0 194.2 178.1" style="enable-background:new 0 0 194.2 178.1;" xml:space="preserve">
<style type="text/css">
	.st0{fill-rule:evenodd;clip-rule:evenodd;fill:#FFFFFF;}
</style>
<title>estimation</title>
<path class="st0" d="M127.7,118.3V98.4h-2.2c-6.7,0-13.3,0.1-20,0c-1.1-0.1-2.1,0.6-2.4,1.7c-4.2,10.2-8.4,20.3-12.7,30.5
	c-2.2,5.2-6.1,6.9-11.4,4.7C54.7,125.1,30.2,115,5.7,104.9c-5.3-2.2-7-6.4-4.8-11.7c7.7-18.6,15.4-37.1,22.9-55.8
	c1.6-3.9,3.7-6.4,7.8-7.9c9.8-3.6,19.4-7.6,29-11.6c1.6-0.8,3.6-0.8,5.2,0c1.2,0.6,2.5,1,4,1.5c0-4.4,0-8.6,0-12.8
	c0-4.4,2.2-6.6,6.6-6.6c19.6,0,39.3,0,58.9,0c5.8,0,11.6,0,17.4,0c4.6,0,6.7,2.2,6.7,6.7c0,28.3,0,56.5,0,84.7
	c0,4.5-2.2,6.7-6.7,6.7H149v12.9c5.3-1.8,9.7-0.4,13.2,3.9c2.7-1.3,5.4-2.5,8.5-1.8c2.7,0.6,5.1,2.2,6.6,4.6c2.7-0.4,5.2-1.2,7.6-1
	c5.2,0.4,9.3,4.8,9.2,10c0.1,10.4,0.2,20.8,0,31.1c-0.2,8.1-6.9,16-15.5,18.8c-2,0.7-4.1,1.1-6.3,1.2c-8.3,0.1-16.6,0.4-24.8,0
	c-8.6-0.4-15-4.9-19-12.5c-6.1-11.5-12.2-23-18.2-34.6c-2.2-3.8-1-8.7,2.8-11c0,0,0.1,0,0.1,0C117.5,117,122.9,116.4,127.7,118.3z
	 M153.3,92.2v-86H75.6v86.1h51.9c0-3.6,0-6.8,2-9.7c3.3-4.8,9.9-5.9,14.7-2.6c0.3,0.2,0.5,0.4,0.8,0.6c3.7,3,4.2,7.1,3.8,11.6
	L153.3,92.2z M30.8,38.4c-0.3,0.5-0.4,0.8-0.5,1.1C22.4,58.3,14.5,77.2,6.6,96c-0.7,1.7-0.4,2.6,1.4,3.3
	c24.4,10.1,48.7,20.2,73,30.3c2.2,0.9,2.8,0.7,3.7-1.5c3.9-9.3,7.8-18.6,11.7-27.9c0.2-0.4,0.2-0.8,0.4-1.4H76.2
	c-4,0-6.4-2.4-6.4-6.4c0-6.8,0-13.7,0-20.6c0-14.6,0-29.2,0-43.8c0-0.7-0.2-1.7-0.7-2c-1.3-0.7-2.7-1.3-4.2-1.9
	c-2.8,6.8-5.5,13.5-8.2,20.1c-1.4,3.4-2.4,3.9-5.8,2.5L30.8,38.4z M133.9,111.2L133.9,111.2c0,7.2,0,14.5,0,21.7
	c0,2.3-1.1,3.4-3.1,3.5s-3.1-1.2-3.1-3.4c-0.1-1.4,0-2.9,0-4.3c0-3.2-1.7-5-4.9-5.2c-1.4-0.1-2.8,0.2-4.2,0.6
	c-3.8,1.4-4,1.9-2.2,5.5c5.9,11.2,11.8,22.5,17.8,33.7c2.7,5,7,8.1,12.6,8.4c8.6,0.5,17.2,0.5,25.8,0c9.8-0.6,15.5-7.5,15.5-17.3
	c0-8.4,0-16.8,0-25.2c0-0.8-0.1-1.7-0.2-2.5c-0.5-2.4-2.9-3.9-5.3-3.4c-1.9,0.4-3.4,2.1-3.5,4c-0.1,0.8,0,1.6-0.1,2.3
	c-0.1,1.6-1.5,2.7-3,2.6c-0.1,0-0.2,0-0.3,0c-1.5,0-2.7-1.2-2.7-2.7c0-0.1,0-0.2,0-0.3c-0.1-1.6,0-3.1,0-4.7c0-2.9-1.8-4.9-4.4-5
	s-4.4,1.6-4.6,4.7c-0.1,1.6,0,3.3-0.1,4.9c0.1,1.6-1.1,3-2.7,3.1c-0.2,0-0.4,0-0.6,0c-1.8-0.1-2.9-1.2-2.9-3.2c0-2.4,0-4.7,0-7.1
	c0.1-2.5-1.8-4.7-4.3-4.8c-0.1,0-0.2,0-0.2,0c-2.6,0-4.5,2-4.5,4.9c0,2.3,0,4.6,0,6.9c0,2.1-1.1,3.3-3,3.4s-3.1-1.1-3.2-3.4
	c0-1.5,0-3,0-4.5c0-11.6,0-23.2,0-34.8c0-2.1-0.6-3.8-2.6-4.6c-3.1-1.4-6.1,0.8-6.1,4.5C133.9,96.6,134,103.9,133.9,111.2
	L133.9,111.2z M36.7,34.1l14.5,6l6.3-14.5L36.7,34.1z"/>
<path class="st0" d="M115,13.4h28c3.2,0,4,0.8,4,3.8c0,5.6,0,11.2,0,16.8c0,2.4-1,3.3-3.3,3.3H86.7c-3.4,0-4.1-0.7-4.1-4.1
	c0-5.4,0-10.7,0-16c0-3,0.8-3.8,3.8-3.8C96,13.4,105.5,13.4,115,13.4z M140.8,19.9h-52v11.5h52V19.9z"/>
<path class="st0" d="M114.8,70.6c-1,0-2.1,0.1-3.1,0c-1.7,0-3-1.3-3-3c0-0.1,0-0.1,0-0.2c0-1.6,1.3-2.9,2.9-2.9c0,0,0.1,0,0.1,0
	c1.9-0.1,3.9-0.1,5.9,0c1.7,0,3,1.3,3.1,2.9c0,0.1,0,0.1,0,0.2c0,1.7-1.3,3-2.9,3.1c-0.1,0-0.1,0-0.2,0
	C116.6,70.6,115.7,70.6,114.8,70.6z"/>
<path class="st0" d="M134.6,70.6c-1,0-2,0-2.9,0c-1.6,0-3-1.2-3-2.9c0-0.1,0-0.2,0-0.3c-0.1-1.6,1.2-2.9,2.8-3c0.1,0,0.2,0,0.4,0
	c1.9-0.1,3.8-0.1,5.6,0c1.7-0.1,3,1.2,3.1,2.9c0,0.1,0,0.1,0,0.2c0.1,1.6-1.1,3-2.8,3.1c-0.1,0-0.2,0-0.2,0
	C136.6,70.6,135.6,70.6,134.6,70.6z"/>
<path class="st0" d="M114.5,84.7c-1,0-2.1,0-3.1,0c-1.8-0.1-2.6-1.3-2.8-2.9c-0.2-1.5,0.9-2.9,2.5-3.1c0,0,0.1,0,0.1,0
	c2.2-0.1,4.4-0.1,6.6,0c1.6,0.2,2.8,1.6,2.7,3.3c0,1.5-1.2,2.8-2.8,2.8c-0.1,0-0.1,0-0.2,0C116.6,84.8,115.6,84.7,114.5,84.7z"/>
<path class="st0" d="M95,64.4c1,0,2-0.1,2.9,0c1.6,0,2.9,1.4,2.9,3c0.1,1.6-1,2.9-2.6,3.1c-0.1,0-0.2,0-0.2,0
	c-2.1,0.1-4.2,0.1-6.2,0c-1.6,0-2.8-1.3-2.8-2.8c0-0.1,0-0.2,0-0.3c-0.1-1.6,1.1-2.9,2.7-3c0.1,0,0.1,0,0.2,0
	C92.9,64.3,93.9,64.4,95,64.4z"/>
<path class="st0" d="M94.7,84.8c-0.9,0-1.8,0-2.7,0c-1.9-0.1-3-1.1-3-2.8c-0.2-1.5,0.8-3,2.4-3.2c0.2,0,0.3,0,0.5,0c2-0.1,4-0.1,6,0
	c1.7,0.1,3,1.5,2.9,3.2c0,0,0,0,0,0.1c-0.1,1.8-1.1,2.7-3.1,2.8C96.7,84.8,95.7,84.8,94.7,84.8L94.7,84.8z"/>
<path class="st0" d="M114.7,56.2c-1.1,0-2.2,0.1-3.3,0c-1.5,0-2.7-1.3-2.7-2.8c0-0.1,0-0.1,0-0.2c0.1-1.6,0.8-2.8,2.5-2.9
	c2.3-0.1,4.5-0.1,6.8,0c1.6,0.2,2.8,1.8,2.5,3.4c-0.2,1.3-1.2,2.4-2.5,2.5C116.9,56.3,115.8,56.2,114.7,56.2L114.7,56.2z"/>
<path class="st0" d="M94.8,56.2c-1,0-2.1,0.1-3.1,0c-1.5,0-2.8-1.2-2.8-2.7c0-0.1,0-0.1,0-0.2c0-1.8,0.8-3,2.6-3.1
	c2.2-0.1,4.4-0.1,6.6,0c1.5,0.1,2.7,1.4,2.6,2.9c0,0.1,0,0.1,0,0.2c0.1,1.5-1.1,2.8-2.6,2.8c-0.1,0-0.2,0-0.3,0
	C97,56.2,95.9,56.2,94.8,56.2L94.8,56.2z"/>
<path class="st0" d="M134.8,56.2c-1.1,0-2.2,0.1-3.3,0c-1.7,0-3-1.3-3-3s1.3-3,3-3c2.1-0.1,4.3-0.1,6.4,0c1.6,0.1,2.8,1.4,2.7,3
	c0,0.1,0,0.2,0,0.2c0,1.5-1.2,2.7-2.7,2.8c-0.1,0-0.2,0-0.3,0C136.7,56.2,135.7,56.2,134.8,56.2L134.8,56.2z"/>
<path class="st0" d="M24.8,89.9c0.5,0.2,1,0.3,1.6,0.5c15,6.2,30,12.5,45,18.8c1.9,0.8,2.6,2.3,2,3.8c-0.8,1.9-2.4,2.6-4.5,1.7
	c-11-4.6-22-9.1-32.9-13.7c-4.1-1.7-8.2-3.4-12.2-5.1c-1.5-0.5-2.4-2-2-3.6C22,90.7,23.1,90.1,24.8,89.9z"/>
<path class="st0" d="M54.9,88.7c-0.2-0.1-0.7-0.2-1.2-0.4c-7.4-3.1-14.9-6.2-22.3-9.2c-2.1-0.9-3-2.5-2.3-4.3s2.4-2.2,4.6-1.3
	c7.5,3.1,14.9,6.2,22.3,9.3c1.6,0.4,2.5,2.1,2.1,3.7C57.8,88,56.8,88.7,54.9,88.7z"/>
<path class="st0" d="M39.6,55.7c0.5,0.1,1,0.3,1.5,0.5c4.9,2,9.9,4,14.8,6c2.3,0.9,3.1,2.5,2.3,4.4c-0.6,1.7-2.4,2.1-4.7,1.2
	l-15.4-6.2c-1.5-0.6-2.6-1.7-2.1-3.5C36.5,56.6,37.6,55.7,39.6,55.7z"/>
</svg>
