<svg id="Layer_1" data-name="Layer 1" xmlns="http://www.w3.org/2000/svg" viewBox="0 0 194.16 160.67"><defs><style>.cls-1{fill:#fff;}</style></defs><title>FFA-Options</title><path class="cls-1" d="M76.68,37.71a15.17,15.17,0,0,1,.38-3.33H6.25a3.33,3.33,0,0,0,0,6.66H77.06A15.31,15.31,0,0,1,76.68,37.71Z" transform="translate(-2.92 -19.66)"/><path class="cls-1" d="M193.75,34.38h-86.7a14.78,14.78,0,0,1,0,6.66h86.7a3.33,3.33,0,1,0,0-6.66Z" transform="translate(-2.92 -19.66)"/><path class="cls-1" d="M92.05,55.75a18,18,0,1,1,18-18A18.06,18.06,0,0,1,92.05,55.75Zm0-30.74a12.7,12.7,0,1,0,12.7,12.7A12.71,12.71,0,0,0,92.05,25Z" transform="translate(-2.92 -19.66)"/><path class="cls-1" d="M130.9,99.24a15.17,15.17,0,0,1,.37-3.33H6.25a3.33,3.33,0,0,0,0,6.66h125A16,16,0,0,1,130.9,99.24Z" transform="translate(-2.92 -19.66)"/><path class="cls-1" d="M193.75,95.91H161.27a15.17,15.17,0,0,1,0,6.66h32.48a3.33,3.33,0,1,0,0-6.66Z" transform="translate(-2.92 -19.66)"/><path class="cls-1" d="M146.27,117.28a18,18,0,1,1,18-18A18.06,18.06,0,0,1,146.27,117.28Zm0-30.74A12.7,12.7,0,1,0,159,99.24,12.71,12.71,0,0,0,146.27,86.54Z" transform="translate(-2.92 -19.66)"/><path class="cls-1" d="M193.75,159H75.27a15.17,15.17,0,0,1,0,6.66H193.75a3.33,3.33,0,1,0,0-6.66Z" transform="translate(-2.92 -19.66)"/><path class="cls-1" d="M44.9,162.29a16,16,0,0,1,.37-3.33h-39a3.33,3.33,0,0,0,0,6.66h39A15.8,15.8,0,0,1,44.9,162.29Z" transform="translate(-2.92 -19.66)"/><path class="cls-1" d="M60.27,180.34a18,18,0,1,1,18-18.05A18.07,18.07,0,0,1,60.27,180.34Zm0-30.74A12.7,12.7,0,1,0,73,162.29,12.71,12.71,0,0,0,60.27,149.6Z" transform="translate(-2.92 -19.66)"/></svg>