<?xml version="1.0" encoding="utf-8"?>
<!-- Generator: Adobe Illustrator 23.0.0, SVG Export Plug-In . SVG Version: 6.00 Build 0)  -->
<svg version="1.1" id="Layer_1" xmlns="http://www.w3.org/2000/svg" xmlns:xlink="http://www.w3.org/1999/xlink" x="0px" y="0px"
	 viewBox="0 0 194.8 194.9" style="enable-background:new 0 0 194.8 194.9;" xml:space="preserve">
<style type="text/css">
	.st0{fill-rule:evenodd;clip-rule:evenodd;fill:#FFFFFF;}
</style>
<title>file-transfer</title>
<path class="st0" d="M15.4,80.8c-2.4,0-4.6,0-6.7,0c-4.7,0.2-8.5-3.5-8.7-8.1c0-0.2,0-0.4,0-0.6C0,51,0,29.9,0,8.9
	C0,4,3.8,0.1,8.7,0c0,0,0.1,0,0.1,0c8.4,0,16.9-0.1,25.3,0c4.5-0.1,8.5,2.6,10.1,6.8c0.6,1.3,1.1,2.7,1.5,4.1c0.3,1.3,1,1.7,2.4,1.7
	c14.5-0.1,28.9,0,43.4,0c6,0,9.3,3.3,9.3,9.3c0,2.9,0,5.7,0,8.6c0,1.1,0.2,1.7,1.4,2c3.6,0.9,6.1,4.2,5.9,7.9
	c0.1,15.2,0.1,30.4,0,45.7c0,5.1-3.7,8.6-9.1,8.7c-6,0.1-11.9,0-17.9,0c-18.6,0-37.2-0.1-55.7,0c-6.1,0.1-10.3-3.9-9.9-10
	C15.5,83.4,15.4,82.2,15.4,80.8z M99.3,40.2H23.7v46.2h75.6V40.2z M92.4,20.7H79.3c-11.4,0-22.8,0-34.2,0c-3.2,0-4.6-1-5.8-3.9
	c-0.8-1.9-1.5-3.9-2.3-5.8c-1-2.5-1.6-2.9-4.3-2.9c-7.5,0-15,0-22.4,0C8.5,8.1,8,8.6,8,10.4c0.1,12.4,0,24.7,0,37.1
	C8,55.3,8,63.2,8,71c0,1.5,0.4,2.3,2.1,2.1s3.4,0,5.4,0v-2.4c0-9.5,0.2-19-0.1-28.5C15.2,35,20.2,31.9,25.5,32
	C47.1,32.1,68.8,32,90.4,32h2V20.7z"/>
<path class="st0" d="M183.9,137.2c1.4,0.1,2.7,0.1,3.9,0.2c4,0.3,7,3.7,7,7.7c-0.2,5.2-0.8,10.4-1.2,15.5c-0.7,8-1.5,16-2.1,24
	c-0.4,5.6-2.8,9-7.5,10.1c-0.7,0.1-1.5,0.2-2.3,0.2h-66.6c-5.8,0-9.3-3.9-8.6-9.7c0.1-0.9,0.1-1.8,0.2-2.9h-6.3
	c-5.1,0-8.6-3.5-8.6-8.6c0-19,0-38,0-57.1c0-5.2,3.3-8.6,8.5-8.6c7.6,0,15.1,0,22.6,0c4.8,0,8.1,2.3,10,6.8s1.9,4.6,7,4.6
	c11.8,0,23.6,0.2,35.4-0.1c4.6-0.2,8.5,3.3,8.7,7.9c0,0.3,0,0.6,0,0.9C183.7,131,183.9,134,183.9,137.2z M114.5,186.8h64
	c4.7,0,4.6,0,5-4.8c0.6-7.8,1.4-15.6,2.1-23.5c0.4-4.3,0.8-8.7,1.1-13.2h-28.9c-12.6,0-25.1,0-37.7,0c-1.5,0-2.2,0.4-2.2,2
	s-0.2,3.3-0.4,4.9c-0.7,7.8-1.4,15.5-2.1,23.3C115.1,179.2,114.8,182.9,114.5,186.8L114.5,186.8z M99.4,116.1v3.8
	c0,16.1,0,32.2,0,48.3c0,6.6,0,6.6,6.6,5.9c0.6-0.2,1.1-0.7,1.3-1.3c0.9-8.9,1.9-17.8,2.7-26.6c0.5-5.6,4-8.9,9.5-8.9h52.9
	c0.9,0,1.7-0.1,2.5-0.1v-9.6h-2.4c-13.5,0-27,0-40.5,0c-2.6,0-3.9-0.9-4.8-3.2c-0.8-2.1-1.5-4.3-2.5-6.3c-0.5-0.9-1.3-1.6-2.3-1.8
	C114.8,116.1,107.3,116.1,99.4,116.1z"/>
<path class="st0" d="M135.6,67.1c0.6,4.3,1,8.2,1.5,12.1c0.1,1,0.3,2,0.4,3c0.4,1.9-0.6,3.7-2.4,4.4c-1.8,0.8-4,0.1-4.9-1.7
	c-0.5-1.2-0.9-2.5-1-3.8c-1-7.7-2-15.4-2.9-23.2c-0.4-3.2,0.7-4.5,3.9-4.7c8.5-0.7,16.9-1.4,25.4-2.1c2.1-0.2,4,1.3,4.3,3.5
	c0,0.1,0,0.2,0,0.3c0.2,2.7-1.1,4.2-3.8,4.4c-4.7,0.4-9.3,0.8-14,1.1c-0.2,0-0.5,0.1-1.1,0.2l8.7,7.4l24.1,20.3
	c1.8,1.3,2.2,3.8,0.9,5.6c-0.1,0.1-0.1,0.2-0.2,0.3c-1.5,1.8-3.9,2-5.9,0.3c-10.7-8.8-21.3-17.6-31.9-26.4L135.6,67.1z"/>
<path class="st0" d="M60.9,140.4c0-4.9,0-9.9,0-14.8c-0.1-1.9,1.2-3.6,3-4.1c1.7-0.4,3.5,0.4,4.4,1.9c0.4,0.7,0.6,1.5,0.6,2.3
	c0.3,8.3,0.6,16.6,0.8,24.9c0.1,2.9-1.6,4.5-4.5,4.4c-8.4-0.2-16.9-0.5-25.3-0.8c-2.8-0.1-4.2-1.5-4.2-4s1.8-4.1,4.5-4
	c4.1,0.1,8.3,0.2,12.4,0.4c0.7,0,1.3,0,2.4,0c-0.7-0.7-1.1-1.2-1.5-1.6l-28.7-28.3c-2.3-2.3-2.2-5,0.2-6.6c1.7-1.2,3.5-0.9,5.3,0.8
	c7.3,7.1,14.5,14.2,21.7,21.3c2.8,2.8,5.5,5.8,8.3,8.6L60.9,140.4z"/>
<path class="st0" d="M61.6,50.7c4.9,0,9.8,0,14.6,0c2.8,0,4.3,1.3,4.5,3.6c0.2,2.9-1.3,4.6-4.4,4.6c-5.7,0-11.4,0-17.1,0
	c-4.1,0-8.2,0-12.3,0c-2.6,0-4.4-1.5-4.6-3.6c-0.3-2.7,1.4-4.6,4.5-4.6C51.7,50.7,56.6,50.7,61.6,50.7z"/>
<path class="st0" d="M61.7,75.5c-5,0-10,0-15,0c-2.8,0-4.4-1.6-4.4-4.1s1.7-4,4.5-4c8,0,16.1,0,24.1,0c1.9,0,3.8,0,5.7,0
	c2.6,0.1,4.1,1.5,4.2,3.9s-1.3,4.1-4.1,4.1C71.7,75.5,66.7,75.5,61.7,75.5z"/>
<path class="st0" d="M153,154.2c4.9,0,9.8,0,14.6,0c2.8,0,4.4,1.4,4.4,3.9c0.1,2.7-1.4,4.3-4.4,4.3c-3.7,0.1-7.4,0-11,0
	c-6.1,0-12.3,0-18.4,0c-2.8,0-4.4-1.3-4.6-3.5c-0.3-2.9,1.4-4.7,4.6-4.7C143.1,154.2,148.1,154.2,153,154.2z"/>
<path class="st0" d="M150.9,178.6c-4.9,0-9.9,0-14.8,0c-3,0-4.5-1.4-4.5-4.1s1.6-3.9,4.5-3.9c9.9,0,19.8,0,29.7,0
	c3.4,0,5.3,2.8,4,5.8c-0.6,1.5-2.2,2.4-3.8,2.3C160.9,178.6,155.9,178.6,150.9,178.6z"/>
</svg>
