<svg xmlns="http://www.w3.org/2000/svg" xmlns:xlink="http://www.w3.org/1999/xlink" width="40.889" height="40.889" viewBox="0 0 40.889 40.889">
  <defs>
    <linearGradient id="linear-gradient" x1="0.5" y1="1" x2="0.5" gradientUnits="objectBoundingBox">
      <stop offset="0" stop-color="#00b59c"/>
      <stop offset="1" stop-color="#9cffac"/>
    </linearGradient>
    <linearGradient id="linear-gradient-2" x1="0.5" y1="1" x2="0.5" gradientUnits="objectBoundingBox">
      <stop offset="0" stop-color="#c3ffe8"/>
      <stop offset="0.997" stop-color="#f0fff4"/>
    </linearGradient>
  </defs>
  <g id="settings" transform="translate(0 0)">
    <g id="Group_23" data-name="Group 23" transform="translate(0 0)">
      <g id="Group_22" data-name="Group 22">
        <path id="Path_24" data-name="Path 24" d="M40.215,16.972l-2.428-1.181a17.819,17.819,0,0,0-1.794-4.321l.835-2.5a1.2,1.2,0,0,0-.289-1.226L33.151,4.35a1.2,1.2,0,0,0-1.226-.289l-2.5.835A17.82,17.82,0,0,0,25.1,3.1L23.918.674A1.2,1.2,0,0,0,22.841,0H18.049a1.2,1.2,0,0,0-1.077.674L15.791,3.1A17.818,17.818,0,0,0,11.469,4.9l-2.5-.835a1.2,1.2,0,0,0-1.226.289L4.35,7.739a1.2,1.2,0,0,0-.289,1.226l.835,2.5A17.821,17.821,0,0,0,3.1,15.791L.674,16.972A1.2,1.2,0,0,0,0,18.049v4.792a1.2,1.2,0,0,0,.674,1.077L3.1,25.1A17.818,17.818,0,0,0,4.9,29.42l-.835,2.5a1.2,1.2,0,0,0,.289,1.226l3.388,3.388a1.2,1.2,0,0,0,1.226.289l2.5-.835a17.823,17.823,0,0,0,4.321,1.794l1.181,2.428a1.2,1.2,0,0,0,1.077.674h4.792a1.2,1.2,0,0,0,1.077-.674L25.1,37.788a17.823,17.823,0,0,0,4.321-1.794l2.5.835a1.2,1.2,0,0,0,1.226-.289l3.388-3.388a1.2,1.2,0,0,0,.289-1.226l-.835-2.5A17.821,17.821,0,0,0,37.788,25.1l2.428-1.181a1.2,1.2,0,0,0,.674-1.077V18.049a1.2,1.2,0,0,0-.674-1.077ZM20.445,32.424A11.979,11.979,0,1,1,32.424,20.445,11.993,11.993,0,0,1,20.445,32.424Zm4.792-17.969a1.2,1.2,0,0,1-1.2-1.2,1.2,1.2,0,0,0-1.2-1.2H18.049a1.2,1.2,0,0,0-1.2,1.2,1.2,1.2,0,0,1-1.2,1.2,1.2,1.2,0,0,0-1.2,1.2v4.226A9.866,9.866,0,0,0,19.909,28.7a1.2,1.2,0,0,0,1.071,0,9.867,9.867,0,0,0,5.454-8.825V15.653A1.2,1.2,0,0,0,25.236,14.455Z" transform="translate(0 0)" fill="url(#linear-gradient)"/>
      </g>
    </g>
    <g id="Group_25" data-name="Group 25" transform="translate(7.267 7.267)">
      <g id="Group_24" data-name="Group 24">
        <path id="Path_25" data-name="Path 25" d="M105.58,98.188h-.205V109.1a7.426,7.426,0,0,0,2.4-5.487v-3.233A3.612,3.612,0,0,1,105.58,98.188Zm-5,2.191v3.233a7.426,7.426,0,0,0,2.4,5.487V98.188h-.205A3.612,3.612,0,0,1,100.583,100.378ZM104.177,91a13.177,13.177,0,1,0,13.177,13.177A13.192,13.192,0,0,0,104.177,91Zm0,23.959a10.781,10.781,0,1,1,10.781-10.781A10.794,10.794,0,0,1,104.177,114.959Z" transform="translate(-91 -91)" fill="url(#linear-gradient-2)"/>
      </g>
    </g>
  </g>
</svg>
