<?xml version="1.0" encoding="utf-8"?>
<!-- Generator: Adobe Illustrator 23.0.0, SVG Export Plug-In . SVG Version: 6.00 Build 0)  -->
<svg version="1.1" id="Layer_1" xmlns="http://www.w3.org/2000/svg" xmlns:xlink="http://www.w3.org/1999/xlink" x="0px" y="0px"
	 viewBox="0 0 195.9 195.2" style="enable-background:new 0 0 195.9 195.2;" xml:space="preserve">
<style type="text/css">
	.st0{fill:#FFFFFF;}
</style>
<title>fixture-list</title>
<path class="st0" d="M141.6,101.8c-2.1-0.1-3.7-1.9-3.6-4c0.1-2,1.7-3.5,3.6-3.6l0,0c2.1,0.1,3.7,1.9,3.6,4
	C145.1,100.1,143.6,101.7,141.6,101.8z"/>
<path class="st0" d="M192.1,113.3h-38.3c-2.1,0-3.8-1.7-3.8-3.8v0v-23c0-2.1,1.7-3.8,3.8-3.8h38.3c2.1,0,3.8,1.7,3.9,3.8
	c0,0,0,0,0,0.1v23C196,111.6,194.2,113.3,192.1,113.3C192.1,113.3,192.1,113.3,192.1,113.3z M157.7,105.6h30.6V90.3h-30.6V105.6z"/>
<path class="st0" d="M130.3,38.9h-12.1v-7.5c0-2.1-1.7-3.8-3.8-3.8H76.1c-2.1,0-3.8,1.7-3.8,3.8v7.7H61.8V15.3
	c0-2.1-1.7-3.8-3.8-3.8c0,0,0,0-0.1,0H45.9V3.8c0-2.1-1.7-3.8-3.8-3.8c0,0,0,0,0,0H3.8C1.7,0,0,1.7,0,3.8c0,0,0,0,0,0v23
	c0,2.1,1.8,3.8,3.8,3.8h38.3c2.1,0,3.8-1.7,3.8-3.8v-7.6h8.3v47.4h-8.3v-7.6c0-2.1-1.7-3.8-3.8-3.8c0,0,0,0,0,0H3.8
	c-2.1,0-3.8,1.7-3.8,3.8c0,0,0,0,0,0v23c0,2.1,1.7,3.8,3.8,3.8h38.3c2.1,0,3.8-1.7,3.8-3.8v-7.7H58c2.1,0,3.8-1.7,3.8-3.8V46.7h10.5
	v7.7c0,2.1,1.7,3.8,3.8,3.8h38.3c2.1,0,3.8-1.7,3.8-3.8v-7.8h8.3v102.5h-8.3v-8.3c0-2.1-1.7-3.8-3.8-3.8H76.1
	c-2.1,0-3.8,1.7-3.8,3.8v7.7H61.8v-23.7c0-2.1-1.7-3.8-3.8-3.8c0,0,0,0,0,0H45.9v-7.7c0-2.1-1.7-3.8-3.8-3.8H3.8
	c-2.1,0-3.8,1.7-3.8,3.8c0,0,0,0,0,0v23c0,2.1,1.7,3.8,3.8,3.8c0,0,0,0,0,0h38.3c2.1,0,3.8-1.7,3.8-3.8c0,0,0,0,0,0v-7.7h8.3V176
	h-8.3v-7.7c0-2.1-1.7-3.8-3.8-3.8H3.8c-2.1,0-3.8,1.7-3.8,3.8c0,0,0,0,0,0v23c0,2.1,1.7,3.8,3.8,3.8c0,0,0,0,0,0h38.3
	c2.1,0,3.8-1.7,3.8-3.8l0,0v-7.6H58c2.1,0,3.8-1.7,3.8-3.8c0,0,0,0,0,0v-23.8h10.5v7.7c0,2.1,1.7,3.8,3.8,3.8h38.3
	c2.1,0,3.8-1.7,3.8-3.8v-7h12.1c2.1,0,3.8-1.7,3.8-3.8l0,0V42.7C134.1,40.6,132.4,38.9,130.3,38.9z M38.3,23H7.7V7.7h30.6L38.3,23
	L38.3,23z M38.3,78.1H7.7V62.8h30.6L38.3,78.1L38.3,78.1z M110.6,50.5H80V35.2h30.6C110.6,35.2,110.6,50.5,110.6,50.5z M38.3,132.4
	H7.7v-15.3h30.6L38.3,132.4L38.3,132.4z M38.3,187.5H7.7v-15.3h30.6L38.3,187.5L38.3,187.5z M110.6,160H80v-15.3h30.6
	C110.6,144.7,110.6,160,110.6,160z"/>
</svg>
