<?xml version="1.0" encoding="utf-8"?>
<!-- Generator: Adobe Illustrator 23.0.0, SVG Export Plug-In . SVG Version: 6.00 Build 0)  -->
<svg version="1.1" id="Layer_1" xmlns="http://www.w3.org/2000/svg" xmlns:xlink="http://www.w3.org/1999/xlink" x="0px" y="0px"
	 viewBox="0 0 200 200" style="enable-background:new 0 0 200 200;" xml:space="preserve">
<style type="text/css">
	.st0{fill-rule:evenodd;clip-rule:evenodd;fill:#FFFFFF;}
	.st1{fill:#FFFFFF;}
</style>
<g>
	<path class="st0" d="M165.1,97c-1.7-3.2-3.3-6.3-4.8-9.5c-3.9-7.6-7.8-15.3-11.7-22.9c-3.2-6.2-2.1-14.4,2.6-19.8
		c4.2-4.8,9.4-6.9,15.7-6.4c8.5,0.7,15.5,7.7,16.4,16.2c0.4,3.7-0.3,7.2-2,10.5c-5.3,10.3-10.6,20.7-15.8,31
		C165.4,96.4,165.2,96.6,165.1,97z M165.1,45.8c-6.1,0-11,4.9-11,11c0,6.1,4.9,11,11,10.9c6.1,0,11-4.9,10.9-11
		C176,50.6,171.1,45.8,165.1,45.8z"/>
	<g>
		<path class="st1" d="M151.6,163.5c-0.5,0-0.9-0.1-1.3-0.3L100,138.7l-49.4,24.5c-0.8,0.4-1.8,0.4-2.6,0l-42.1-20
			c-0.7-0.3-1.3-1-1.6-1.7c-0.3-0.8-0.2-1.6,0.2-2.3l32.1-62.7c0.4-0.8,1.2-1.4,2.2-1.6c0.9-0.2,1.9,0.1,2.6,0.8l20.9,19.8
			l36.2-22.5c0.9-0.6,2.1-0.6,3.1-0.1l41.2,23.8c0.8,0.4,1.3,1.2,1.5,2.1l9.8,57.3l35-17.5l-15.1-30.6c-0.7-1.5-0.1-3.3,1.4-4
			c1.5-0.7,3.3-0.1,4,1.4l16.4,33.3c0.7,1.5,0.1,3.3-1.4,4L153,163.1c-0.3,0.1-0.5,0.2-0.8,0.3c0,0-0.1,0-0.1,0
			C151.9,163.4,151.8,163.5,151.6,163.5z M11.2,139.1l38,18l49.5-24.5c0.8-0.4,1.8-0.4,2.6,0l46.4,22.6l-9.2-54.1l-38.4-22.2
			l-36.7,22.8c-1.2,0.7-2.7,0.6-3.7-0.4L40.1,82.7L11.2,139.1z"/>
		<path class="st1" d="M100,138.3L100,138.3c-1.7,0-3-1.3-3-3l0-59.9c0-1.7,1.3-3,3-3l0,0c1.7,0,3,1.3,3,3l0,59.9
			C103,137,101.6,138.3,100,138.3z"/>
		<path class="st1" d="M49.2,163.5c-0.2,0-0.4,0-0.6-0.1c-1.6-0.3-2.7-1.9-2.3-3.5l12.6-61.3c0.3-1.6,1.9-2.7,3.5-2.3
			c1.6,0.3,2.7,1.9,2.3,3.5l-12.6,61.3C51.9,162.5,50.6,163.5,49.2,163.5z"/>
		<path class="st1" d="M141.2,102.2c-0.4,0-0.8-0.1-1.2-0.3c-1.5-0.7-2.2-2.5-1.5-4l2-4.5c0.7-1.5,2.5-2.2,4-1.5
			c1.5,0.7,2.2,2.5,1.5,4l-2,4.5C143.4,101.5,142.3,102.2,141.2,102.2z"/>
	</g>
</g>
</svg>
