<svg id="Layer_1" data-name="Layer 1" xmlns="http://www.w3.org/2000/svg" viewBox="0 0 190.74 187.09"><defs><style>.cls-1,.cls-2{fill:#fff;}.cls-1{fill-rule:evenodd;}</style></defs><title>income-statement</title><path class="cls-1" d="M167.86,101.54c0-16.15-.05-32.3,0-48.44a13.82,13.82,0,0,1,9.41-13.34c5.61-1.81,12.31.14,15.38,5.29a19.47,19.47,0,0,1,2.57,9.38c.18,31.62.12,63.25.08,94.87a13.89,13.89,0,0,1-.78,4.89c-3.12,8-6.32,16.05-9.69,24-.56,1.31-2.08,3-3.2,3s-2.76-1.61-3.3-2.89c-3.4-8.1-6.63-16.28-9.75-24.5a15.67,15.67,0,0,1-.72-5.35C167.84,132.82,167.86,117.18,167.86,101.54Zm21.21,46.81V64.82h-14.9v83.53Zm.14-90.07c.38-4.82,1.06-9.6-3.65-11.82a10.45,10.45,0,0,0-8.26.26c-4.49,2.44-3.71,7.1-3.16,11.56Zm-7.62,112.31c2.4-6.06,4.27-10.76,6.27-15.83H175.4Z" transform="translate(-4.63 -6.45)"/><path class="cls-1" d="M120.54,103v5.33H74.88V103Z" transform="translate(-4.63 -6.45)"/><path class="cls-1" d="M120.68,118.79v5.3H74.8v-5.3Z" transform="translate(-4.63 -6.45)"/><path class="cls-1" d="M74.79,140v-5.3h45.8c.07,1.71.14,3.31.23,5.3Z" transform="translate(-4.63 -6.45)"/><path class="cls-2" d="M145.32,23.49H106.9V36.11H57.09V24.56h0v-.83H50.25c0,.06,0,0,0,0h0s0,0,0,0H4.63V193.55H159.69V23.49ZM140.7,42.74V145.39c-6.85,0-13.62.26-20.35-.08-4.63-.24-6.27,1.42-6.13,6,.23,7.61.06,15.23.06,23.14H23.79V42.74Zm-4,108.92-16.16,18v-18Zm16.85,36.11c-1.48.1-2.93.28-4.39.28q-67,0-134,.07c-3.4,0-5.08-.47-5.06-4.54q.2-75.24.09-150.48c0-1,.12-2,.2-3.3H50.54v6.62H17.92V180.67h5.52c30.16,0,60.32-.06,90.48.08a9.57,9.57,0,0,0,8.09-3.66c7.19-8.32,14.72-16.34,21.92-24.65,1.4-1.61,2.74-4,2.75-6,.16-35.83.11-71.65.09-107.48a25.16,25.16,0,0,0-.36-2.63h-33V29.78h40.13Z" transform="translate(-4.63 -6.45)"/><path class="cls-2" d="M47,130.39v-8.15c-3.14-.73-5.43-1.82-6.89-3.29a7.31,7.31,0,0,1-2.2-5.36,6.83,6.83,0,0,1,2.48-5.35,11.09,11.09,0,0,1,6.61-2.5v-1.93h3.47v1.93a11.53,11.53,0,0,1,6.07,2.11,7.69,7.69,0,0,1,2.87,4.65l-6.06.64A4.21,4.21,0,0,0,50.49,110v7.61q5.76,1.26,7.84,3.27a6.86,6.86,0,0,1,2.09,5.16A7.74,7.74,0,0,1,57.79,132a12.6,12.6,0,0,1-7.3,2.95v3.64H47v-3.54a12.35,12.35,0,0,1-6.74-2.51A9.62,9.62,0,0,1,37,126.62l6.26-.55a6,6,0,0,0,1.44,2.68A6.39,6.39,0,0,0,47,130.39ZM47,110a4.59,4.59,0,0,0-2.26,1.32,3,3,0,0,0-.84,2.06,2.86,2.86,0,0,0,.77,1.91A5.31,5.31,0,0,0,47,116.7Zm3.47,20.68a5.23,5.23,0,0,0,2.93-1.35,3.41,3.41,0,0,0,1.12-2.54,3.07,3.07,0,0,0-.94-2.25,6.49,6.49,0,0,0-3.11-1.44v7.58Z" transform="translate(-4.63 -6.45)"/><path class="cls-2" d="M116.56,29.49H88.86V19.15a6.7,6.7,0,0,0-13.4,0V29.49H52.23v-6H69.46V19.15a12.7,12.7,0,1,1,25.4,0v4.34h21.69v6Z" transform="translate(-4.63 -6.45)"/><rect class="cls-2" x="36.23" y="71.06" width="82.96" height="6"/><rect class="cls-2" x="49.92" y="55.16" width="6" height="18.9"/><rect class="cls-2" x="61.9" y="46.11" width="7.3" height="27.95"/><rect class="cls-2" x="74.35" y="58.12" width="5.51" height="15.94"/><rect class="cls-2" x="86.15" y="52.49" width="6.41" height="21.57"/><rect class="cls-2" x="99.47" y="61.62" width="4.87" height="12.44"/></svg>