<svg id="Layer_1" data-name="Layer 1" xmlns="http://www.w3.org/2000/svg" viewBox="0 0 194.59 194.55"><defs><style>.cls-1,.cls-2{fill:#fff;}.cls-2{fill-rule:evenodd;}</style></defs><title>M2MExposure</title><path class="cls-1" d="M163.51,197.28H121.45c-4.25,0-6.69-2.46-6.7-6.75v-3c0-5.36,0-10.91,0-16.38.09-12.69,8.7-24.38,20.91-28.92a25.2,25.2,0,0,1,6-35.79,25.18,25.18,0,0,1,31.82,2.6,24.71,24.71,0,0,1,7.78,18.38,24.31,24.31,0,0,1-4.95,14.81,30.12,30.12,0,0,1,8.87,5c7.82,6.37,11.86,14.57,12,24.37.08,4.85.06,9.77,0,14.53v4.29c0,4.52-2.42,6.91-6.95,6.91Zm-42.76-6a3.21,3.21,0,0,0,.7.06h68.86a4.23,4.23,0,0,0,.94-.08,4.9,4.9,0,0,0,.07-.92l0-4.3c0-4.73,0-9.61,0-14.4-.14-8.08-3.36-14.58-9.84-19.86a26.5,26.5,0,0,0-11-5.15l-5.15-1.22,3.73-3.76c4.26-4.29,6.34-9,6.35-14.26a18.72,18.72,0,0,0-6-14.1,19.25,19.25,0,0,0-24.32-2,18.6,18.6,0,0,0-7.65,10.54c-2,7.37-.21,13.87,5.57,19.88l3.57,3.71L140.24,147c-11.26,2.91-19.49,13.09-19.56,24.19,0,5.44,0,11,0,16.32v3A4.16,4.16,0,0,0,120.75,191.27Z" transform="translate(-2.7 -2.72)"/><path class="cls-2" d="M61.4,72.93c1.39,4.2,2.64,8.11,4,12,.15.42,1,.79,1.52.82,1.91.1,3.83,0,5.86,0V92H28.42v-6.2c1.87,0,3.84.06,5.79,0a2,2,0,0,0,1.53-.82c1.39-3.86,2.65-7.77,4-12H37.41c-6.25,0-12.5,0-18.76,0a15.83,15.83,0,0,1-15.92-16q0-19.16,0-38.32A15.83,15.83,0,0,1,18.58,2.74q32,0,64.05,0A15.83,15.83,0,0,1,98.46,18.63q0,19.15,0,38.32a15.85,15.85,0,0,1-15.95,16C75.6,73,68.69,72.93,61.4,72.93ZM9.06,50.52H92.13V48.28q0-14.56,0-29.14c0-5.94-4.06-10.07-10-10.07H19.08c-5.93,0-10,4.09-10,10q0,13.77,0,27.54Zm83,6.6H9.17a9.38,9.38,0,0,0,9.39,9.45c8.45,0,16.9,0,25.34,0q19.26,0,38.51,0A9.42,9.42,0,0,0,92,57.12ZM42.27,85.63H58.91c-.77-2.3-1.46-4.43-2.2-6.55s-.9-4.78-2.31-5.73S50.18,73,48,73c-.2,0-.44-.06-.59,0-.42.24-1,.46-1.15.82C44.9,77.67,43.63,81.57,42.27,85.63Z" transform="translate(-2.7 -2.72)"/><path class="cls-2" d="M93.07,185.48l7-6.65c-.06-.17-.11-.33-.16-.5h-2c-10.37,0-20.75,0-31.12,0a22.3,22.3,0,0,1-22.55-22.7q0-27.34,0-54.68V98.67h6.33v2.93q0,26.64,0,53.28c0,10.45,6.81,17.17,17.27,17.14,10,0,20,0,29.93,0h2.12c.08-.18.18-.35.27-.52L92.89,165l5-4.79c1.68,1.79,3.41,3.7,5.2,5.54,2.28,2.33,4.62,4.6,6.9,6.93,1.47,1.5,1.81,3.18.57,4.44-4.27,4.36-8.68,8.6-13.1,13Z" transform="translate(-2.7 -2.72)"/><path class="cls-2" d="M116,38.37l7.28,6.56-4.87,4.72c-2.12-2.2-4.26-4.45-6.43-6.67-2-2-4-3.94-5.92-5.93-1.29-1.31-1.69-3-.4-4.3,4.25-4.39,8.66-8.61,13.09-13l4.38,4.6-7.16,6.49.31.5c.56,0,1.11.12,1.67.12h18.76a22.29,22.29,0,0,1,22.48,22.37c0,14.24,0,28.48,0,42.71v1.77h-6.33V87.39q0-16.67,0-33.33a16,16,0,0,0-16-16.25c-6.84-.08-13.69,0-20.53,0Z" transform="translate(-2.7 -2.72)"/><path class="cls-2" d="M42.1,20l4,3.91L30.34,39.7l-3.77-4.17Z" transform="translate(-2.7 -2.72)"/><path class="cls-2" d="M70.93,20l3.88,3.91C69.53,29.17,64.29,34.4,59,39.72L55.12,35.8Z" transform="translate(-2.7 -2.72)"/></svg>