<?xml version="1.0" encoding="utf-8"?>
<!-- Generator: Adobe Illustrator 23.0.0, SVG Export Plug-In . SVG Version: 6.00 Build 0)  -->
<svg version="1.1" id="Layer_1" xmlns="http://www.w3.org/2000/svg" xmlns:xlink="http://www.w3.org/1999/xlink" x="0px" y="0px"
	 viewBox="0 0 154.9 194.7" style="enable-background:new 0 0 154.9 194.7;" xml:space="preserve">
<style type="text/css">
	.st0{fill-rule:evenodd;clip-rule:evenodd;fill:#FFFFFF;}
	.st1{fill:#FFFFFF;}
</style>
<title>noon-reports</title>
<path class="st0" d="M98.8,166.9c4-8.4,8-16.6,11.8-24.9c0.8-1.8,1.2-3.7,1.3-5.6c0.1-9,0.1-18,0.1-26.9c10.6-1.3,22.3,6.1,27.5,17
	c5.4,11.7,3,25.6-6.2,34.8C124,170.3,110,172.6,98.8,166.9z"/>
<path class="st0" d="M77.2,141.2H107l-12.7,26.7C84.7,165.1,76.5,152.4,77.2,141.2z"/>
<path class="st0" d="M43,142.4H22.4c-3,0-5.8-0.6-5.8-4.4s2.6-4.6,5.6-4.6c14,0,28,0,42,0c3,0,5.7,0.9,5.6,4.6s-2.8,4.3-5.8,4.3H43z
	"/>
<path class="st0" d="M113.2,29c-6.9,0-13.7-0.1-20.6,0c-3.2,0-5.8-0.8-5.9-4.3s2.4-4.6,5.6-4.5c14,0.1,28,0.1,42,0
	c3.2,0,5.6,0.8,5.6,4.5s-2.6,4.4-5.8,4.4C127.2,29,120.2,29,113.2,29z"/>
<path class="st0" d="M43.3,105.9c7,0,14,0,21,0c2.9,0,5.4,0.6,5.6,4.1s-2.3,4.8-5.4,4.8c-14.1,0.1-28.3,0.1-42.4,0
	c-3.2,0-5.5-1.3-5.4-4.9s2.7-4.1,5.6-4C29.2,105.9,36.2,105.9,43.3,105.9z"/>
<path class="st0" d="M43.2,170c-7,0-14,0-21,0c-3.1,0-5.7-0.7-5.6-4.5c0.1-3.5,2.6-4.3,5.5-4.3c14.1,0,28.3,0,42.4,0
	c2.9,0,5.4,0.9,5.4,4.4s-2.3,4.4-5.3,4.4L43.2,170z"/>
<path class="st0" d="M113.6,48c7,0,14,0,21,0c3.1,0,5.4,0.8,5.3,4.3s-2.2,4.5-5.3,4.5c-14.3,0-28.5,0-42.8,0c-3.1,0-5.3-1.4-5.2-4.6
	c0.1-3,2.1-4.3,5.1-4.2C99.1,48.1,106.4,48,113.6,48z"/>
<path class="st0" d="M113.7,75.7c6.9,0,13.7,0,20.6,0c3.1,0,5.7,0.7,5.6,4.4s-2.7,4.4-5.8,4.4c-13.9,0-27.8,0-41.6,0
	c-3.1,0-5.6-0.9-5.9-4.4c-0.3-2.8,2-4.5,6.1-4.5C99.7,75.7,106.7,75.7,113.7,75.7z"/>
<path class="st0" d="M108.4,106.3V136H78.1C79,118.5,92.8,104.9,108.4,106.3z M106.4,108c-13-0.7-27.1,13.7-26,26.3h26V108z"/>
<path class="st1" d="M144.5,194.7H10.3c-5.7,0-10.3-4.6-10.3-10.3c0,0,0,0,0,0v-174C0,4.6,4.6,0,10.3,0c0,0,0,0,0,0h134.2
	c5.7,0,10.3,4.6,10.3,10.3c0,0,0,0,0,0v174C154.9,190.1,150.2,194.7,144.5,194.7C144.5,194.7,144.5,194.7,144.5,194.7z M10.3,4.8
	c-3.1,0-5.6,2.5-5.6,5.6c0,0,0,0,0,0v174c0,3.1,2.5,5.6,5.6,5.6h134.2c3.1,0,5.6-2.5,5.6-5.6v-174c0-3.1-2.5-5.6-5.6-5.6L10.3,4.8z"
	/>
<path class="st0" d="M43.3,35.4c8.9,0,16.1,7.2,16,16.1s-7.2,16.1-16.1,16c-8.9,0-16.1-7.2-16-16.1c0,0,0,0,0,0
	C27.2,42.5,34.4,35.3,43.3,35.4z M54.7,51.5c0-6.3-5.1-11.5-11.5-11.5s-11.5,5.1-11.5,11.5s5.1,11.5,11.5,11.5c0,0,0,0,0,0
	C49.6,62.9,54.7,57.8,54.7,51.5z"/>
<path class="st0" d="M40.9,26.1v-4.5c-0.1-1.3,0.9-2.4,2.1-2.4c1.3-0.1,2.4,0.9,2.4,2.1c0,0.1,0,0.2,0,0.3c0,3,0,6,0,9
	c0,1.3-1,2.3-2.3,2.3s-2.3-1-2.3-2.3C40.9,29.2,40.9,27.7,40.9,26.1z"/>
<path class="st0" d="M18,53.7h-4.5c-1.3,0.1-2.4-0.9-2.4-2.1c-0.1-1.3,0.9-2.4,2.1-2.4c0.1,0,0.2,0,0.3,0h9c1.3-0.1,2.4,0.9,2.4,2.1
	c0.1,1.3-0.9,2.4-2.1,2.4c-0.1,0-0.2,0-0.3,0H18z"/>
<path class="st0" d="M68.4,53.7H64c-1.3,0.1-2.4-0.9-2.4-2.1c-0.1-1.3,0.9-2.4,2.1-2.4c0.1,0,0.2,0,0.3,0h9c1.3-0.1,2.4,0.9,2.4,2.1
	c0.1,1.3-0.9,2.4-2.1,2.4c-0.1,0-0.2,0-0.3,0H68.4z"/>
<path class="st0" d="M40.9,76.7c0-1.5,0-3,0-4.5c0-1.3,1-2.3,2.3-2.3s2.3,1,2.3,2.3c0,3,0,6,0,9c0,1.3-1,2.3-2.3,2.3s-2.3-1-2.3-2.3
	C40.9,79.7,40.9,78.2,40.9,76.7z"/>
<path class="st0" d="M22.4,33c0.1-0.9,0.7-1.7,1.5-2.1c0.8-0.4,1.7-0.3,2.3,0.3c1.4,1.3,2.8,2.7,4.1,4.2c0.8,1,0.6,2.4-0.4,3.2
	c-0.8,0.7-2,0.7-2.9,0c-1.4-1.3-2.8-2.7-4.1-4.1C22.8,34,22.6,33.5,22.4,33z"/>
<path class="st0" d="M61.6,30.6c0.9,0.1,1.7,0.6,2.1,1.5c0.4,0.8,0.3,1.8-0.3,2.4c-1.3,1.4-2.7,2.8-4.2,4.1c-1,0.8-2.4,0.6-3.2-0.4
	c-0.6-0.8-0.6-2,0.1-2.8c1.3-1.4,2.6-2.7,4-4C60.6,31,61.1,30.8,61.6,30.6z"/>
<path class="st0" d="M64.1,69.8c-0.1,0.9-0.6,1.7-1.5,2.1c-0.8,0.4-1.8,0.3-2.4-0.3c-1.4-1.3-2.7-2.6-4-4c-0.8-1-0.7-2.4,0.3-3.2
	c0.9-0.7,2.1-0.7,3,0c1.4,1.3,2.7,2.6,4,4C63.7,68.8,63.9,69.3,64.1,69.8z"/>
<path class="st0" d="M24.9,72.3c-0.9,0-1.8-0.6-2.2-1.5c-0.4-0.8-0.3-1.8,0.4-2.4c1.3-1.3,2.5-2.6,3.9-3.8c0.9-0.8,2.4-0.8,3.2,0.2
	c0.8,0.9,0.8,2.1,0,3c-1.3,1.3-2.6,2.6-3.9,3.9C25.9,71.9,25.4,72.1,24.9,72.3z"/>
</svg>
