<svg id="Layer_1" data-name="Layer 1" xmlns="http://www.w3.org/2000/svg" viewBox="0 0 191.72 191.68"><defs><style>.cls-1{fill:#fff;fill-rule:evenodd;}</style></defs><title>onboard-noon-rep</title><path class="cls-1" d="M86.37,141.46c-.06-30.14,24.29-55,54-55.12,30.61-.14,55.42,24.21,55.45,54.41s-24.27,55-54,55.09C111.13,195.9,86.43,171.69,86.37,141.46Zm103.58.26c0-26.1-19.87-48.89-47.24-49.38-27.95-.51-50.41,21-50.41,47.91,0,27.13,20.58,49,47,49.64C167,190.6,189.86,169.09,190,141.72Z" transform="translate(-4.14 -4.16)"/><path class="cls-1" d="M99.54,53.42c17,.48,30.09,7.8,39.24,22.13,1.35,2.11,1,4.14-.65,5.09s-3.22.3-4.56-1.85C124.8,64.72,108,56.9,92.66,59.76A40.83,40.83,0,0,0,60.2,91.42c-3.6,16.37,3.52,32.57,18.45,42.07.79.5,1.83,1.19,2,1.94A4.38,4.38,0,0,1,80,138.7c-1.12,1.36-2.74,1.06-4.2.2a44.78,44.78,0,0,1-14-13.21c-10.57-15.21-11.11-35.87-1-51.29C69.87,60.57,83.2,54.15,99.54,53.42Z" transform="translate(-4.14 -4.16)"/><path class="cls-1" d="M34.06,30.65A5.34,5.34,0,0,1,37,32.53Q48.8,44.23,60.53,56c1.84,1.85,2,3.61.43,5.07s-3.11,1.29-4.89-.49Q44.31,48.85,32.59,37.05c-1.12-1.12-2.12-2.46-1.12-4.06C32,32.07,32.77,30.65,34.06,30.65Z" transform="translate(-4.14 -4.16)"/><path class="cls-1" d="M102.54,24.9c0,5.42,0,10.83,0,16.25,0,2.69-1.05,4-3.14,4s-3.23-1.37-3.24-4q0-16.37,0-32.73c0-2.94,1.46-4.57,3.73-4.21s2.67,2,2.67,4V24.9Z" transform="translate(-4.14 -4.16)"/><path class="cls-1" d="M24.94,102.55c-5.66,0-11.32,0-17,0-2.74,0-4.27-1.64-3.7-3.84s2.43-2.56,4.39-2.56H32.18c3,0,6,0,9,0,2.55,0,3.92,1.18,4,3.25s-1.21,3.13-3.94,3.15C35.77,102.57,30.36,102.55,24.94,102.55Z" transform="translate(-4.14 -4.16)"/><path class="cls-1" d="M168,34.33a6.86,6.86,0,0,1-2.05,3q-11.52,11.63-23.12,23.16c-1.9,1.89-3.58,2-5.07.55s-1.16-3.34.6-5.1q11.57-11.59,23.16-23.13c1.16-1.16,2.37-2.1,4.24-1.35C166.9,31.91,168.24,33.25,168,34.33Z" transform="translate(-4.14 -4.16)"/><path class="cls-1" d="M62.22,139.66A17.33,17.33,0,0,1,60.28,143q-11.51,11.64-23.13,23.16c-1.84,1.83-3.76,2-5.13.64s-1.25-3.19.65-5.1c7.8-7.87,15.6-15.73,23.53-23.46a5.28,5.28,0,0,1,3.88-1C60.82,137.28,61.43,138.7,62.22,139.66Z" transform="translate(-4.14 -4.16)"/><path class="cls-1" d="M137.53,138V107.7a12,12,0,0,1,0-1.7,3,3,0,0,1,3.1-2.81c1.78,0,2.77,1.14,3.08,2.86a8.74,8.74,0,0,1,0,1.45q0,16.27,0,32.53c0,3.18-1,4.2-4.17,4.2q-16.64,0-33.27,0c-2.6,0-4-1.12-4.07-3.1s1.35-3.17,4-3.17c9.47,0,18.94,0,28.41,0Z" transform="translate(-4.14 -4.16)"/></svg>