<svg id="Layer_1" data-name="Layer 1" xmlns="http://www.w3.org/2000/svg" xmlns:xlink="http://www.w3.org/1999/xlink" viewBox="0 0 40.8 32.83"><defs><style>.cls-1{fill:url(#linear-gradient);}.cls-2{fill:url(#linear-gradient-2);}.cls-3{fill:url(#linear-gradient-3);}.cls-4{fill:url(#linear-gradient-4);}.cls-5{fill:url(#linear-gradient-5);}.cls-6{fill:url(#linear-gradient-6);}.cls-7{fill:url(#linear-gradient-7);}.cls-8{fill:url(#linear-gradient-8);}</style><linearGradient id="linear-gradient" x1="-190.59" y1="246.77" x2="-190.59" y2="247.72" gradientTransform="matrix(5.18, 0, 0, -7.76, 999.58, 1929.27)" gradientUnits="userSpaceOnUse"><stop offset="0" stop-color="#5558ff"/><stop offset="1" stop-color="#00c0ff"/></linearGradient><linearGradient id="linear-gradient-2" x1="-190.63" y1="246.83" x2="-190.63" y2="247.78" gradientTransform="matrix(5.18, 0, 0, -7.76, 1004.6, 1938.87)" xlink:href="#linear-gradient"/><linearGradient id="linear-gradient-3" x1="-191.23" y1="246.83" x2="-191.23" y2="247.78" gradientTransform="matrix(5.26, 0, 0, -7.76, 1012.3, 1938.89)" xlink:href="#linear-gradient"/><linearGradient id="linear-gradient-4" x1="-216.93" y1="254.09" x2="-216.93" y2="255.04" gradientTransform="matrix(12.94, 0, 0, -10.35, 2819.59, 2645.87)" gradientUnits="userSpaceOnUse"><stop offset="0" stop-color="#addcff"/><stop offset="0.5" stop-color="#eaf6ff"/><stop offset="1" stop-color="#eaf6ff"/></linearGradient><linearGradient id="linear-gradient-5" x1="-217.07" y1="254.14" x2="-217.07" y2="255.08" gradientTransform="matrix(13.02, 0, 0, -10.35, 2845.01, 2655.4)" xlink:href="#linear-gradient-4"/><linearGradient id="linear-gradient-6" x1="-217.02" y1="254.14" x2="-217.02" y2="255.08" gradientTransform="matrix(13.02, 0, 0, -10.35, 2832.49, 2655.4)" xlink:href="#linear-gradient-4"/><linearGradient id="linear-gradient-7" x1="-217.01" y1="262.15" x2="-217.01" y2="263.1" gradientTransform="matrix(12.94, 0, 0, -16.35, 2839.51, 4308.53)" xlink:href="#linear-gradient-4"/><linearGradient id="linear-gradient-8" x1="-229.22" y1="269.47" x2="-229.22" y2="270.42" gradientTransform="matrix(42.96, 0, 0, -34.57, 9866.75, 9352.21)" xlink:href="#linear-gradient"/></defs><title>ops</title><g id="chartering"><g id="cargo-boat"><path id="Path_5" data-name="Path 5" class="cls-1" d="M13.3,13.85a2.46,2.46,0,0,1-2.46-2.46V7.7a1.23,1.23,0,0,1,1.23-1.23h2.46A1.23,1.23,0,0,1,15.76,7.7h0v3.69A2.46,2.46,0,0,1,13.3,13.85Z" transform="translate(-0.04 -4.03)"/><path id="Path_6" data-name="Path 6" class="cls-2" d="M18.06,23a2.46,2.46,0,0,1-2.45-2.46V16.82a1.23,1.23,0,0,1,1.22-1.23h2.46a1.24,1.24,0,0,1,1.23,1.23h0v3.69A2.46,2.46,0,0,1,18.06,23Z" transform="translate(-0.04 -4.03)"/><path id="Path_7" data-name="Path 7" class="cls-3" d="M6.27,23a2.54,2.54,0,0,1-2.54-2.46V16.82A1.31,1.31,0,0,1,5,15.59H7.5a1.24,1.24,0,0,1,1.23,1.23h0v3.69A2.46,2.46,0,0,1,6.27,23Z" transform="translate(-0.04 -4.03)"/><path id="Path_8" data-name="Path 8" class="cls-4" d="M18.27,6.47H14.58v3.69a1.23,1.23,0,1,1-2.45.07V6.47H8.44A1.23,1.23,0,0,0,7.21,7.7v8.6H19.5V7.7A1.23,1.23,0,0,0,18.27,6.47Z" transform="translate(-0.04 -4.03)"/><path id="Path_9" data-name="Path 9" class="cls-5" d="M23.08,15.52H19.31v3.69a1.23,1.23,0,0,1-2.46.07V15.52H13.17a1.23,1.23,0,0,0-1.23,1.23h0v8.6H24.31v-8.6A1.23,1.23,0,0,0,23.08,15.52Z" transform="translate(-0.04 -4.03)"/><path id="Path_10" data-name="Path 10" class="cls-6" d="M11.18,15.52H7.5v3.69A1.23,1.23,0,0,1,5,19.28V15.52H1.27A1.23,1.23,0,0,0,0,16.75H0v8.6H12.41v-8.6a1.23,1.23,0,0,0-1.23-1.23Z" transform="translate(-0.04 -4.03)"/><path id="Path_11" data-name="Path 11" class="cls-7" d="M35.93,11.39l2.46-1.23L35.93,8.93H33.47l-1.23-.78L31,8.93H28.56L26.1,10.16l2.46,1.23v2.46H27.33a1.22,1.22,0,0,0-1.23,1.2v8.63H38.39v-8.6a1.22,1.22,0,0,0-1.21-1.23H35.93Z" transform="translate(-0.04 -4.03)"/><g id="Group_15" data-name="Group 15"><g id="Group_14" data-name="Group 14"><path id="Path_12" data-name="Path 12" class="cls-8" d="M39.65,22.78H26.5l-1.7,2.35H0V35.69a1.19,1.19,0,0,0,1.2,1.17H27.7A13,13,0,0,0,40.84,23.91h0A1.17,1.17,0,0,0,39.65,22.78Zm-6-17.59a1.2,1.2,0,0,0-2.39,0V8.7h2.39Zm7.17,4.69a1.18,1.18,0,0,0-1.19-1.17H36.06v2.34h3.59A1.18,1.18,0,0,0,40.84,9.88ZM25.31,11.05h3.58V8.71H25.31a1.17,1.17,0,1,0,0,2.34Z" transform="translate(-0.04 -4.03)"/></g></g></g></g></svg>