<svg id="Layer_1" data-name="Layer 1" xmlns="http://www.w3.org/2000/svg" viewBox="0 0 192.3 192.37"><defs><style>.cls-1{fill:#fff;fill-rule:evenodd;}</style></defs><title>PeriodMgt</title><path class="cls-1" d="M16.25,122.12l9.56,16.56,8.37-4.81c2.68-1.53,3.6-1.36,5.74.86s4.23,4.26,6.37,6.36c1.84,1.8,2.05,2.89.79,5.11-1.61,2.84-3.26,5.65-5,8.72l16.57,9.59c1.67-2.9,3.28-5.72,4.92-8.54,1.39-2.38,2.45-2.72,5.14-1.95,3,.87,6,1.66,9.06,2.42,2.21.55,3,1.44,3,3.76,0,3.33,0,6.66,0,10.22h9.49v6.47H83.61c-1.87,0-3.74,0-5.61,0-2.51,0-3.61-1.14-3.62-3.7,0-3.14,0-6.27,0-9.41A1.5,1.5,0,0,0,73,162c-4.74-1.21-4.72-1.26-7.16,3-1,1.79-2.05,3.59-3.13,5.35-1.16,1.91-2.83,2.39-4.77,1.28Q47,165.33,36.15,159a3.07,3.07,0,0,1-1.24-4.61q2.37-4.29,4.9-8.48a1.45,1.45,0,0,0-.29-2.2c-1.2-1.05-2.27-2.24-3.45-3.42-3.1,1.79-6.1,3.53-9.1,5.24-2.63,1.51-4,1.13-5.58-1.53q-6-10.39-12-20.79c-1.41-2.44-1-4,1.48-5.47s5.18-3,7.8-4.49c.95-.52,1.31-1,1-2.17-1.32-4.66-1.26-4.68-6.19-4.68-2.07,0-4.14,0-6.21,0s-3.36-1.2-3.37-3.35q0-12.61,0-25.24c0-2.27,1.18-3.41,3.48-3.43,3.2,0,6.41,0,9.61,0,1,0,1.51-.22,1.79-1.33,1.2-4.74,1.25-4.73-3-7.17-1.78-1-3.59-2-5.35-3.13C8.53,61.55,8,59.88,9.15,58q6.19-10.86,12.5-21.65c1.23-2.11,2.76-2.5,4.89-1.32,2.79,1.56,5.57,3.15,8.31,4.79a1.49,1.49,0,0,0,2.21-.28c1.09-1.16,2.35-2.15,3.54-3.23-1.92-3.32-3.66-6.32-5.37-9.32-1.5-2.63-1.12-4,1.54-5.58q10.38-6,20.78-12c2.45-1.4,4-1,5.48,1.49s3,5.18,4.48,7.8c.52.95,1,1.31,2.18,1,4.66-1.35,4.68-1.28,4.68-6.2,0-2.07,0-4.14,0-6.21s1.19-3.35,3.35-3.36q12.72,0,25.44,0a3,3,0,0,1,3.23,3.27c0,3.27,0,6.55,0,9.82,0,1,.23,1.5,1.34,1.78,4.75,1.21,4.73,1.26,7.17-3,1-1.79,2-3.6,3.13-5.36S120.88,8,122.8,9.11q10.86,6.21,21.65,12.5c2.1,1.23,2.48,2.76,1.32,4.89-.85,1.58-1.78,3.13-2.67,4.69l-2.65,4.6,4.64,4.43c2.71-1.57,5.7-3.3,8.7-5,2.64-1.5,4.07-1.11,5.59,1.52q6,10.31,11.9,20.61c1.55,2.7,1.14,4.2-1.54,5.76s-5.06,3-7.63,4.38c-.93.52-1.33,1-1,2.17,1.34,4.68,1.28,4.7,6.19,4.7,2.14,0,4.27,0,6.41,0a3,3,0,0,1,3.17,3.12c.06,4.2,0,8.4,0,12.74h-6.33V80.73h-9.46c-3.52,0-4-.48-4.88-3.89-.69-2.84-1.48-5.66-2.28-8.48-.66-2.31-.27-3.47,1.79-4.68,2.87-1.69,5.76-3.34,8.77-5.08L155,42.05l-7.63,4.36c-3.73,2.14-4.18,2-7.13-1.1-1.87-2-3.87-3.86-5.83-5.78-1.74-1.7-1.93-2.83-.72-5,1.63-2.88,3.3-5.75,5.05-8.78l-16.55-9.57-4.83,8.29c-1.54,2.64-2.54,3-5.4,2.15s-6-1.66-9.06-2.4a3.26,3.26,0,0,1-2.87-3.5c0-3.4,0-6.8,0-10.37H80.77v9.46c0,3.21-.54,3.81-3.73,4.59q-4.26,1.05-8.48,2.27c-2.55.74-3.63.38-5-1.92-1.64-2.81-3.26-5.64-5-8.58L42.08,25.77,46.75,34c1.69,2.94,1.55,3.75-.85,6q-3,2.91-5.94,5.94c-2.2,2.29-3.06,2.44-5.9.82L25.83,42c-3.2,5.52-6.35,11-9.58,16.56,2.87,1.66,5.69,3.29,8.5,4.93,2.39,1.39,2.74,2.44,2,5.11-.88,3.07-1.68,6.16-2.44,9.27a3.26,3.26,0,0,1-3.52,2.84c-3.4,0-6.8,0-10.36,0V100c3.22,0,6.46,0,9.7,0,2.88,0,3.58.62,4.27,3.37.73,3,1.54,5.92,2.39,8.86.71,2.45.35,3.59-1.8,4.85C22.1,118.75,19.21,120.4,16.25,122.12Z" transform="translate(-3.85 -3.82)"/><path class="cls-1" d="M196.15,141.57c0,29.75-24.24,54.26-53.56,54.61C112,196.54,87,171.54,87.15,141.4c.14-29.51,24.43-54,53.7-54.3C171.32,86.77,196.3,111.61,196.15,141.57Zm-6.4.09a48.08,48.08,0,1,0-48.21,48.06A48.26,48.26,0,0,0,189.75,141.66Z" transform="translate(-3.85 -3.82)"/><path class="cls-1" d="M143.74,80.2l-6,1.11c-6-28.48-31.95-40.42-50.73-38.94A48.34,48.34,0,0,0,42.78,83.85a46.72,46.72,0,0,0,8.59,34.45c7.36,10.34,17.49,16.57,30,19.31-.38,2.08-.73,4-1.09,6C62.51,141.71,38.15,123.92,36,94.42A54.37,54.37,0,0,1,86.68,36C118.7,33.89,140.6,58.36,143.74,80.2Z" transform="translate(-3.85 -3.82)"/><path class="cls-1" d="M183.33,141.51c0,23.4-18.62,41.8-42.24,41.79-22.48,0-41-18.94-41.11-41.74s19.12-42,42.47-41.64C164.67,100.25,183.34,119,183.33,141.51ZM141.59,176.9a35.27,35.27,0,1,0-35.18-35.45A35.54,35.54,0,0,0,141.59,176.9Z" transform="translate(-3.85 -3.82)"/><path class="cls-1" d="M156.46,148.69l-3.9,5.17c-4.45-3.35-8.79-6.55-13-9.87a3.24,3.24,0,0,1-1-2.26c-.07-8.48,0-16.95,0-25.57h6.39v2.52c0,6.41,0,12.81,0,19.22a3.49,3.49,0,0,0,1.6,3.32C149.77,143.55,153,146.07,156.46,148.69Z" transform="translate(-3.85 -3.82)"/></svg>