<svg id="Layer_1" data-name="Layer 1" xmlns="http://www.w3.org/2000/svg" viewBox="0 0 194.66 194.36"><defs><style>.cls-1{fill:#fff;}</style></defs><title>period-vessel</title><path class="cls-1" d="M20.4,133c-.77,0-1.57,0-2.38-.07a3.18,3.18,0,0,1,.39-6.35c.65,0,1.32.06,2,.06A32.84,32.84,0,0,0,20.4,61c-.67,0-1.34,0-2,.06A3.18,3.18,0,1,1,18,54.68c.78,0,1.57-.07,2.37-.07a39.2,39.2,0,0,1,0,78.4Z" transform="translate(-2.67 -2.82)"/><path class="cls-1" d="M48,133c-.77,0-1.57,0-2.37-.07a3.18,3.18,0,0,1,.38-6.35c.66,0,1.32.06,2,.06A32.84,32.84,0,0,0,48,61c-.67,0-1.33,0-2,.06a3.18,3.18,0,0,1-.38-6.35c.79,0,1.58-.07,2.37-.07A39.2,39.2,0,0,1,48,133Z" transform="translate(-2.67 -2.82)"/><path class="cls-1" d="M75.74,133c-.77,0-1.57,0-2.38-.07a3.18,3.18,0,0,1,.39-6.35c.66,0,1.32.06,2,.06a32.84,32.84,0,1,0,0-65.68c-.67,0-1.34,0-2,.06a3.18,3.18,0,0,1-.37-6.35c.78,0,1.57-.07,2.37-.07a39.2,39.2,0,1,1,0,78.4Z" transform="translate(-2.67 -2.82)"/><path class="cls-1" d="M104.29,133c-.77,0-1.57,0-2.37-.07a3.18,3.18,0,1,1,.38-6.35c.66,0,1.32.06,2,.06a32.84,32.84,0,0,0,0-65.68c-.67,0-1.34,0-2,.06a3.18,3.18,0,0,1-.37-6.35c.78,0,1.57-.07,2.37-.07a39.2,39.2,0,1,1,0,78.4Z" transform="translate(-2.67 -2.82)"/><path class="cls-1" d="M104.84,61H18.22a3.18,3.18,0,1,1,0-6.36h86.62a3.18,3.18,0,0,1,0,6.36Z" transform="translate(-2.67 -2.82)"/><path class="cls-1" d="M104.84,133H18.22a3.18,3.18,0,1,1,0-6.36h86.62a3.18,3.18,0,0,1,0,6.36Z" transform="translate(-2.67 -2.82)"/><path class="cls-1" d="M74.45,156.63a3.18,3.18,0,0,1-3.18-3.18V129.83a3.18,3.18,0,1,1,6.36,0v23.62A3.18,3.18,0,0,1,74.45,156.63Z" transform="translate(-2.67 -2.82)"/><path class="cls-1" d="M85.18,156.63A3.18,3.18,0,0,1,82,153.45V129.83a3.18,3.18,0,1,1,6.36,0v23.62A3.18,3.18,0,0,1,85.18,156.63Z" transform="translate(-2.67 -2.82)"/><path class="cls-1" d="M46.16,183.94A10.44,10.44,0,1,1,56.6,173.5,10.45,10.45,0,0,1,46.16,183.94Zm0-14.52a4.08,4.08,0,1,0,4.08,4.08A4.08,4.08,0,0,0,46.16,169.42Z" transform="translate(-2.67 -2.82)"/><path class="cls-1" d="M81.71,183.94A10.44,10.44,0,1,1,92.15,173.5,10.46,10.46,0,0,1,81.71,183.94Zm0-14.52a4.08,4.08,0,1,0,4.08,4.08A4.08,4.08,0,0,0,81.71,169.42Z" transform="translate(-2.67 -2.82)"/><path class="cls-1" d="M117.08,183.94a10.44,10.44,0,1,1,10.43-10.44A10.45,10.45,0,0,1,117.08,183.94Zm0-14.52a4.08,4.08,0,1,0,4.07,4.08A4.08,4.08,0,0,0,117.08,169.42Z" transform="translate(-2.67 -2.82)"/><path class="cls-1" d="M98.06,197.18c-32.8,0-76.63-.91-77.36-.92-6.24,0-17.77-3.71-17.95-17.4-.18-14.32,0-33.89,0-34.09a3.18,3.18,0,0,1,3.18-3.14H20.19a3.18,3.18,0,0,1,3.19,3.18v5.46H134.52c1.39,0,4.69-.58,5.46-5.92a3.19,3.19,0,0,1,3.15-2.73h45.18a9,9,0,1,1,0,18h-27.6c0,4.05-.25,10.86-2.45,16.08-4.9,11.62-13.46,18.71-24.77,20.48C129.4,196.87,117.81,197.18,98.06,197.18ZM9.09,148c-.05,6.12-.12,20,0,30.79S19.55,189.9,20.73,189.9c.53,0,44.48.92,77.33.92,23.84,0,31.89-.48,34.44-.88,9.15-1.44,15.84-7.05,19.9-16.68,2.21-5.25,2.07-13.7,1.82-16.51a3.23,3.23,0,0,1,.83-2.42,3.16,3.16,0,0,1,2.34-1h30.92a2.66,2.66,0,1,0,0-5.31H145.67a11.58,11.58,0,0,1-11.15,8.65H20.19A3.18,3.18,0,0,1,17,153.45V148H9.09Z" transform="translate(-2.67 -2.82)"/><path class="cls-1" d="M85.17,61.39H74.7a3.18,3.18,0,0,1-3.18-3.18v-25A3.18,3.18,0,0,1,74.7,30H85.17a3.18,3.18,0,0,1,3.18,3.18v25A3.18,3.18,0,0,1,85.17,61.39ZM77.88,55H82V36.4H77.88Z" transform="translate(-2.67 -2.82)"/><path class="cls-1" d="M79.93,36.4a3.18,3.18,0,0,1-3.18-3.18V6a3.19,3.19,0,0,1,4.53-2.88L95.64,9.83a3.19,3.19,0,0,1,.17,5.68l-12.7,6.9V33.22A3.18,3.18,0,0,1,79.93,36.4ZM83.11,11v4.17l4.13-2.24Z" transform="translate(-2.67 -2.82)"/></svg>