<svg id="Layer_1" data-name="Layer 1" xmlns="http://www.w3.org/2000/svg" viewBox="0 0 126.77 186.76"><defs><style>.cls-1{fill:#fff;}</style></defs><title>PNI-FDD</title><path class="cls-1" d="M100,6.62A63.45,63.45,0,0,0,36.62,70c0,14,8.27,35.41,26,67.22,12.11,21.71,24.17,40,24.68,40.82L96,191.25a4.75,4.75,0,0,0,7.92,0L112.68,178c.5-.77,12.47-18.94,24.68-40.82,17.76-31.81,26-53.17,26-67.22A63.45,63.45,0,0,0,100,6.62Zm29.07,126c-12,21.57-23.82,39.46-24.32,40.21L100,180l-4.75-7.2c-.5-.76-12.37-18.81-24.32-40.22C54.47,103.08,46.12,82,46.12,70a53.89,53.89,0,0,1,107.77,0C153.88,82,145.54,103.08,129.07,132.59Z" transform="translate(-36.62 -6.62)"/><path class="cls-1" d="M100,34.46a35.15,35.15,0,1,0,35.14,35.15A35.18,35.18,0,0,0,100,34.46Zm0,60.79a25.65,25.65,0,1,1,25.65-25.64A25.67,25.67,0,0,1,100,95.25Z" transform="translate(-36.62 -6.62)"/></svg>