<svg id="pie-chart" xmlns="http://www.w3.org/2000/svg" xmlns:xlink="http://www.w3.org/1999/xlink" width="40.908" height="40.908" viewBox="0 0 40.908 40.908">
  <defs>
    <linearGradient id="linear-gradient" x1="0.5" y1="1" x2="0.5" gradientUnits="objectBoundingBox">
      <stop offset="0" stop-color="#fd3a84"/>
      <stop offset="1" stop-color="#ffa68d"/>
    </linearGradient>
    <linearGradient id="linear-gradient-2" x1="0.5" y1="1" x2="0.5" gradientUnits="objectBoundingBox">
      <stop offset="0" stop-color="#ffc2cc"/>
      <stop offset="1" stop-color="#fff2f4"/>
    </linearGradient>
  </defs>
  <path id="Path_15" data-name="Path 15" d="M18.057,97.034a18.017,18.017,0,1,1,0-36.034,1.2,1.2,0,0,1,1.2,1.2v15.58h15.58a1.2,1.2,0,0,1,1.2,1.2A18.038,18.038,0,0,1,18.057,97.034Z" transform="translate(0 -56.126)" fill="url(#linear-gradient)"/>
  <path id="Path_16" data-name="Path 16" d="M289.057,19.255H272.2a1.2,1.2,0,0,1-1.2-1.2V1.2A1.2,1.2,0,0,1,272.2,0a18.1,18.1,0,0,1,18.057,18.057A1.2,1.2,0,0,1,289.057,19.255Z" transform="translate(-249.348)" fill="url(#linear-gradient-2)"/>
</svg>
