<?xml version="1.0" encoding="utf-8"?>
<!-- Generator: Adobe Illustrator 23.0.0, SVG Export Plug-In . SVG Version: 6.00 Build 0)  -->
<svg version="1.1" id="Layer_1" xmlns="http://www.w3.org/2000/svg" xmlns:xlink="http://www.w3.org/1999/xlink" x="0px" y="0px"
	 viewBox="0 0 163.9 193.9" style="enable-background:new 0 0 163.9 193.9;" xml:space="preserve">
<style type="text/css">
	.st0{fill-rule:evenodd;clip-rule:evenodd;fill:#FFFFFF;}
</style>
<title>secure-chat-box</title>
<path class="st0" d="M94.3,0c2.6,0.7,5.3,1.2,7.8,2.2c13.9,5,23.3,18.2,23.4,33.1c0,3.1,0,6.2,0,9.3c4.8,0.9,8,3.5,9.2,8.2
	c0.2,0.8,0.2,1.6,0.2,2.4c0,10.5,0,21.1,0,31.6c-0.1,1.2,0.6,2.3,1.7,2.7c10.7,5.5,19.3,13.2,24,24.4c6.8,16,3.3,30.4-7.9,43
	c-2.8,3.2-6.4,5.7-9.8,8.3c-0.9,0.6-1.5,1.7-1.4,2.8c0,7.2,0,14.4,0,21.6c0,1.6-0.2,3.1-1.7,3.9s-3,0.4-4.5-0.5
	c-8.8-5.3-17.7-10.4-26.5-15.7c-2-1.2-4.2-1.9-6.6-2c-10.3-0.7-20.3-3.9-28.9-9.5c-2.1-1.5-4.7-2-7.2-1.4c-1.9,0.4-4,0.4-6,0.7
	c-1.1,0.1-2.2,0.4-3.2,0.9c-9,5.2-17.9,10.6-26.9,15.9l-1.1,0.7c-3.7,2.1-6.3,0.7-6.3-3.5c0-6.9-0.1-13.9,0-20.8
	c0.2-1.6-0.6-3.1-2-3.8c-10.4-7-17.5-16.4-19.8-29c-2-11.3,0.8-21.5,7.6-30.7C17,83,29.1,76.4,43.1,73.1l2.3-0.5
	c0-5.6,0.2-11.2-0.1-16.7c-0.3-6,3.1-10.6,9.5-11.8c0-3.6-0.3-7.4,0-11c1.3-14.8,9.1-25,22.7-30.7c2.7-1,5.5-1.8,8.4-2.4H94.3z
	 M135.1,96.6c0,2.4,0,4.3,0,6.1c0,5.7-4.6,10.4-10.3,10.4c-0.1,0-0.1,0-0.2,0c-4,0-8,0-11.9,0c-16.3,0-32.6,0-48.8,0
	c-0.8,0-1.5,0.3-2,0.9c-2.5,4.4-3.9,9.4-4,14.5c-0.2,10.4,4,19,11.5,26c10.3,9.6,22.8,13.8,36.6,14.4c1.2,0.1,2.4,0.4,3.5,1
	c7.5,4.3,15,8.8,22.5,13.2c0.7,0.4,1.4,0.8,2.4,1.3v-2.5c0-5.7,0-11.5,0-17.2c-0.1-1.7,0.8-3.2,2.2-4.1c2.1-1.3,4.1-2.7,6-4.2
	c9.9-8.5,15.9-18.9,13.7-32.4C154.3,111.4,146.2,103.1,135.1,96.6L135.1,96.6z M89.9,51.3L89.9,51.3c-11.1,0-22.2,0-33.3,0
	c-3.4,0-4.5,1.1-4.5,4.3c0,15.4,0,30.8,0,46.2c0,2.9,1.2,4.1,4.2,4.1c22.5,0,44.9,0,67.4,0c3,0,4.1-1.2,4.1-4.2c0-15.3,0-30.7,0-46
	c0-3.5-1.1-4.5-4.5-4.5L89.9,51.3z M29.5,174c0.9-0.5,1.5-0.8,2-1.1c6.6-4,13.2-7.8,19.8-11.9c2.8-1.8,5.7-3.1,9.1-3.1
	c0.8-0.1,1.6-0.2,2.4-0.5C51,143.9,47.5,129,54.5,112.3c-6.6-1.3-9.5-6.4-9.2-11.3c0.3-4.2,0-8.3,0-12.5v-8.3c-0.3,0-0.6,0-0.9,0.1
	c-12.6,2.5-23.4,8.3-31,18.9c-6.2,8.6-8.1,18.1-5.1,28.3c3,9.8,9.5,16.9,18.1,22.3c2.1,1.1,3.3,3.3,3.1,5.7
	C29.4,161.5,29.5,167.6,29.5,174z M106,44.2c0-3.3,0.1-6.4,0-9.5c-0.4-6.7-4.9-12.4-11.3-14.5c-6.3-2.1-13.2-0.1-17.4,5
	c-4.7,5.7-3.4,12.5-3.5,19L106,44.2z M67.2,44.2c0-1.5,0-3,0-4.4c-0.1-2.8,0.1-5.7,0.4-8.5c1.8-9.8,9.6-17.3,19.4-18.7
	c9.2-1.4,18.6,3.5,23.4,12.1c2.5,4.5,2.8,9.4,2.7,14.3c0,1.7,0,3.5,0,5.2h5.4c-0.2-4.7,0-9.3-0.7-13.7C115.4,17.1,104,7.5,90.2,7
	c-12.5-0.5-24.5,8.5-27.8,21.1c-0.5,2.7-0.8,5.4-0.7,8.1c-0.1,2.6,0,5.3,0,8L67.2,44.2z"/>
<path class="st0" d="M106.1,121.2h28.4c2.6,0,4.1,1.3,4.1,3.4c0,2.1-1.4,3.5-4,3.5c-19.1,0-38.2,0-57.3,0c-2.5,0-3.8-1.3-3.8-3.5
	s1.5-3.4,3.8-3.5L106.1,121.2z"/>
<path class="st0" d="M93.3,137.8h15.9c2.6,0,4,1.3,4,3.4s-1.4,3.4-4,3.4c-10.6,0-21.2,0-31.8,0c-2.5,0-4-1.4-4-3.5s1.5-3.3,4-3.4
	H93.3z"/>
<path class="st0" d="M86.6,88.3c0-0.4,0-0.8,0-1.1c0.2-2.9,0.2-5.2-3.3-7c-4.5-2.3-5.5-7.8-3.5-12.6c1.9-4.8,6.9-7.7,12-7
	c5,0.9,8.8,5,9.3,10.1c0.3,5.2-1.9,9-6.5,11.4c-0.6,0.4-0.9,1-1,1.6c-0.1,3.2,0,6.3-0.1,9.4c0,2.4-1.1,3.7-3.3,3.7s-3.5-1.3-3.6-3.7
	c0-0.8,0-1.6,0-2.5L86.6,88.3L86.6,88.3z M94.2,71.6c0.1-2.3-1.7-4.2-4-4.3s-4.2,1.7-4.3,4c0,0.1,0,0.3,0,0.4c0.1,2.3,2,4.4,4.1,4.4
	C92.4,75.9,94.2,74,94.2,71.6z"/>
</svg>
