<?xml version="1.0" encoding="utf-8"?>
<!-- Generator: Adobe Illustrator 23.0.0, SVG Export Plug-In . SVG Version: 6.00 Build 0)  -->
<svg version="1.1" id="Layer_1" xmlns="http://www.w3.org/2000/svg" xmlns:xlink="http://www.w3.org/1999/xlink" x="0px" y="0px"
	 viewBox="0 0 195 195.1" style="enable-background:new 0 0 195 195.1;" xml:space="preserve">
<style type="text/css">
	.st0{fill-rule:evenodd;clip-rule:evenodd;fill:#FFFFFF;}
</style>
<title>skype-integration</title>
<path class="st0" d="M190.7,97.5c-0.3,3.8-0.8,7.7-0.9,11.6c-0.1,2.2,0.2,4.3,0.9,6.4c8.7,22.1,4.1,46.7-12.8,62.7
	c-18,17.1-39.1,21-62.4,12.5c-1.9-0.7-4-1-6-0.9C58.9,195.5,14.9,163.2,6,113.1c-1.5-8.6-0.5-17.6-0.8-26.4c0.1-2.4-0.2-4.9-0.9-7.2
	C-4.1,56-0.4,34.7,17.2,17.1S56.1-4.1,79.5,4.4c2,0.8,4.2,1.1,6.4,0.9C136.9-1.2,183.6,35,190,86.1
	C190.5,89.9,190.7,93.7,190.7,97.5z M172.7,98.2c-0.1-47.1-41.4-82.2-87.1-74.8c-3.5,0.5-7.1,0-10.3-1.4
	c-15.7-7.1-33.6-4.3-45.6,7.7s-14.9,29.9-7.7,45.6c1.3,2.9,1.5,6.6,1.6,9.9c0.2,8.7-0.9,17.5,0.4,25.9c6,39.4,45.9,67.6,85.1,60.7
	c3.9-0.7,8-0.2,11.6,1.5c15.3,6.9,29.9,5.1,42.6-5.7s17.5-25.5,12-41.5c-2.9-8.5-4-16.3-2.6-24.9C172.6,100.2,172.7,99.2,172.7,98.2
	L172.7,98.2z"/>
<path class="st0" d="M97.5,150.8c-14.1-0.3-27-3.6-35.2-16.3c-2.6-4.1-3.7-9.4-4.5-14.3c-0.6-4.2,3.3-7.9,7.5-8.4
	c4.4-0.5,9.1,2.3,9.6,6.6c1,8.3,6.3,11.8,13.6,13.5c7.2,1.8,14.7,1.4,21.6-1.1c2.2-0.8,4.2-2,6-3.6c5.7-5.2,4.7-14.1-2.3-17.2
	c-6-2.6-12.6-4-18.9-5.8c-5.7-1.7-11.5-3-17-5.1C67.4,95,60.4,87.5,59.6,75.8c-0.9-12.4,5-21.6,15.9-26.7c14.1-6.6,28.6-6.6,43-0.4
	c5.5,2.3,10.2,6.4,13.2,11.6c2.6,4.5,1.6,9.3-2.3,12.1c-3.7,2.9-9.1,2.2-11.9-1.6c-0.2-0.2-0.3-0.4-0.5-0.7
	c-2.6-3.8-6.7-6.4-11.2-7.1c-6.9-1.5-14.1-1.1-20.8,1.3c-4.9,1.8-7.4,5-7.4,9.4s2,7.3,7.3,8.9c9.1,2.8,18.3,5,27.5,7.6
	c2.4,0.6,4.7,1.5,7,2.5c11.7,5.2,18.5,13.7,18.2,27c-0.3,13.1-7.1,22-18.7,26.9c-6.6,2.8-14,3.7-21,5.4
	C97.7,151.5,97.6,151.2,97.5,150.8z"/>
</svg>
