<svg id="Layer_1" data-name="Layer 1" xmlns="http://www.w3.org/2000/svg" viewBox="0 0 187.67 188.37"><defs><style>.cls-1{fill:#fff;}</style></defs><title>soa</title><path class="cls-1" d="M32.56,55.67A24.93,24.93,0,1,1,57.48,30.74,25,25,0,0,1,32.56,55.67Zm0-41.94a17,17,0,1,0,17,17A17,17,0,0,0,32.56,13.73Z" transform="translate(-6.16 -5.82)"/><path class="cls-1" d="M168.91,56.84a24.93,24.93,0,1,1,24.93-24.92A24.95,24.95,0,0,1,168.91,56.84Zm0-41.93a17,17,0,1,0,17,17A17,17,0,0,0,168.91,14.91Z" transform="translate(-6.16 -5.82)"/><path class="cls-1" d="M168.91,194.18a24.93,24.93,0,1,1,24.93-24.92A24.95,24.95,0,0,1,168.91,194.18Zm0-41.93a17,17,0,1,0,17,17A17,17,0,0,0,168.91,152.25Z" transform="translate(-6.16 -5.82)"/><path class="cls-1" d="M31.09,192.6A24.93,24.93,0,1,1,56,167.68,25,25,0,0,1,31.09,192.6Zm0-41.93a17,17,0,1,0,17,17A17,17,0,0,0,31.09,150.67Z" transform="translate(-6.16 -5.82)"/><path class="cls-1" d="M119.84,167.68a17.8,17.8,0,1,1-17.8-17.8A17.81,17.81,0,0,1,119.84,167.68Z" transform="translate(-6.16 -5.82)"/><path class="cls-1" d="M48.89,97.73a17.8,17.8,0,1,1-17.8-17.81A17.8,17.8,0,0,1,48.89,97.73Z" transform="translate(-6.16 -5.82)"/><circle class="cls-1" cx="95.29" cy="21.76" r="17.8"/><circle class="cls-1" cx="165.91" cy="91.91" r="17.8"/><path class="cls-1" d="M138.12,100.54a36.67,36.67,0,1,1-36.67-36.67A36.66,36.66,0,0,1,138.12,100.54Z" transform="translate(-6.16 -5.82)"/><rect class="cls-1" x="91.34" y="39.56" width="7.92" height="18.6"/><rect class="cls-1" x="91.34" y="131" width="7.92" height="13.06"/><rect class="cls-1" x="122.27" y="57.78" width="38.92" height="7.91" transform="translate(-8.31 112.49) rotate(-45)"/><rect class="cls-1" x="41.7" y="137.49" width="40.66" height="7.91" transform="translate(-88.01 79.46) rotate(-44.99)"/><rect class="cls-1" x="131.85" y="87.86" width="15.7" height="7.91"/><rect class="cls-1" x="43.04" y="87.86" width="15.86" height="7.91"/><rect class="cls-1" x="136.32" y="121.47" width="7.91" height="38.96" transform="translate(-64.73 132.69) rotate(-44.43)"/><rect class="cls-1" x="56.46" y="39.55" width="7.91" height="41.6" transform="translate(-31.14 53.74) rotate(-44.44)"/></svg>