<svg id="Layer_1" data-name="Layer 1" xmlns="http://www.w3.org/2000/svg" viewBox="0 0 191.13 191.16"><defs><style>.cls-1{fill:#fff;fill-rule:evenodd;}</style></defs><title>sys-configure</title><path class="cls-1" d="M138.33,167.89c1.81.93,3.59,1.9,5.43,2.77,8.76,4.1,9.31,13.68,7.4,20.7-.88,3.22-3.8,4.24-7.11,4.22-9.44-.07-18.89,0-28.33,0q-29.31,0-58.61,0c-6.8,0-8.77-2.26-9.08-9.09-.37-8.24,2.69-14,10.64-16.89a10.45,10.45,0,0,0,2-1.16,10.82,10.82,0,0,0,1.25-1.17c-1.34-.11-2.24-.26-3.15-.26-12.94,0-25.87,0-38.81-.08-9.74,0-15.51-5.68-15.52-15.35q-.06-58.22,0-116.44c0-9.62,5.8-15.37,15.46-15.57a21.38,21.38,0,0,1,3.1,0c4.65.55,8.37-.65,11.56-4.46S41.51,11,45.72,13.31c2.74,1.54,4.24,1,5.15-2,1.54-5.09,4-6.82,9.34-6.88,2.59,0,5.18,0,7.76,0,4.73.11,7.57,2.23,8.67,6.75.77,3.19,2.28,3.58,5,2.11,4.33-2.32,8-2,11.17,1.72s6.8,4.64,11.5,4.61c25.1-.21,50.2-.11,75.3-.11,10,0,15.92,5.82,15.93,15.88q0,57.83,0,115.66c0,10.15-5.7,15.8-15.88,15.82q-20.5,0-41,0Zm49.47-32.73v-3.87q0-47.13,0-94.27c0-7.86-1.69-9.52-9.57-9.52-23.92,0-47.84.1-71.77-.07-3.43,0-5.37.77-6.63,4.08-1,2.74-1.22,4.28,2.18,5,4.37,1,6.51,3.8,6.71,8.3.12,2.84.09,5.69,0,8.53-.12,5.07-2,7.72-6.83,9-3.17.87-3.41,2.19-2.09,5,1,2.06,2,5.51,1,6.8A71.68,71.68,0,0,1,88.84,86.44c-1.31,1-4.77.08-6.92-.77-3.32-1.31-4.31-1.12-5.32,2.43-1.13,3.93-4.12,6.58-8.22,6.32-6.17-.39-13.68,2.8-17.24-5.66,0-.12,0-.25-.1-.38-1.32-4-2-4.33-6-2.39-3.64,1.81-7.16,1.7-9.88-1.48C31.32,80,24.13,77.11,26.78,69a6.73,6.73,0,0,1,.5-1c1.86-3.67,1.57-4.36-2.31-5.67S18.52,58.19,18.7,54c.26-5.89-2.38-12.77,4.78-16.72.56-.31,1.31-.34,1.78-.73,1.14-.94,3.23-2.38,3-3-.72-2.14-1.85-5.28-3.5-5.78-8.33-2.55-12.58.94-12.59,9.66q0,46.93,0,93.88v3.87Zm-175.6,8.2c0,2.71,0,5,0,7.31,0,6.29,2.1,8.4,8.3,8.41l98.88,0q30.24,0,60.49,0c4.61,0,7.35-1.71,7.74-5.33a99.94,99.94,0,0,0,.08-10.4ZM26.47,44.65c0,2.63-.12,5.34.07,8A3,3,0,0,0,28,54.83c8.17,3.24,10.42,9.59,5.77,18A28.2,28.2,0,0,1,37.48,76a25.67,25.67,0,0,1,2.37,3.94c9.38-5.57,15.31-3.06,19.22,6.7H68.6c2.53-9.33,8.23-11.71,17.73-7.82l7.1-6.56c-5.69-8.43-.49-16,7.24-18.06V44.34C92.86,43,89,35.42,92.4,28.55c.32-.65.87-1.75.63-2a42.89,42.89,0,0,0-5.93-6c-.6-.47-2.39.78-3.67,1-2,.26-4.12.73-6,.28-4.85-1.14-8.37-3.9-8.65-9.27H58.94c-1.15,8-10.4,12.44-18,7.57L34,26.58A11.34,11.34,0,0,1,26.47,44.65Zm117.27,143c.78-7.13.11-7.85-5.64-11.06a36.94,36.94,0,0,1-9-7.15,6.64,6.64,0,0,0-5.51-2.52q-23.26.15-46.51,0a7.61,7.61,0,0,0-6.52,2.85,34.74,34.74,0,0,1-9.1,7c-5.34,3-6.42,4.68-5,10.9Z" transform="translate(-4.43 -4.42)"/><path class="cls-1" d="M175.48,68.74c-4.7,5.48-1,7.54,3.4,9.93,1.39.76,2.09,3.52,2.35,5.47a38.3,38.3,0,0,1,.05,8.89,7.44,7.44,0,0,1-6,6.82c-2.51.6-3.05,1.62-1.59,3.75,2.14,3.13,1.61,6.23-.66,8.91s-4.5,5.61-7.41,7.27a10.8,10.8,0,0,1-7.92.44c-2.88-1-3.64-.79-4.54,2.17-.55,1.82-2.57,4.17-4.25,4.46a41.07,41.07,0,0,1-13.35.44c-2.06-.33-4.15-3.19-5.33-5.39s-1.84-3-4.25-1.62c-3.58,2.06-7,1.26-9.86-1.6-1.65-1.64-3.29-3.3-4.94-4.93-2.82-2.78-3.56-5.94-1.56-9.47,1.29-2.28,1.38-3.9-1.72-4.41a5.12,5.12,0,0,1-1.78-.73c-6.08-3.78-3.8-9.86-4-15.16-.14-3.77,2.07-6.32,5.74-7.3,2.58-.69,3-1.76,1.69-4.14-2-3.59-1.31-7,1.6-9.87,1.83-1.82,3.62-3.69,5.54-5.43,2.65-2.41,5.82-3.12,8.9-1.22,2.88,1.78,3.86.71,4.47-2a5,5,0,0,1,1-2.08c4.34-5.13,10.22-3.23,15.6-3.17,3.69,0,5.83,2.58,6.71,6,.65,2.5,1.69,2.65,3.84,1.53,4-2.09,6.91-1.56,10.19,1.56a49,49,0,0,1,5.14,5.26C173.76,64.69,174.43,66.67,175.48,68.74Zm-2.1,16c-8.06-3.34-9.58-7.06-7-16.42-1.62-1.79-3.18-3.49-4.69-5.15-7.19,4.14-14.49.42-16.47-6.75a31.23,31.23,0,0,0-4.53.05c-1.11.16-2.66.51-3.14,1.31-4.45,7.41-7.25,8.48-15.83,5.59l-5.23,4.9c3.7,7.11,2,12-5.07,15.75a3.33,3.33,0,0,0-1.38,2.3,52.24,52.24,0,0,0-.06,5.58c7.85,2.64,10.37,8.84,6.61,16.3l5.22,4.86c7.56-3.18,11.15-1.84,15.7,5.72a3.07,3.07,0,0,0,2.11,1.18c1.91.17,3.85.06,5.72.06,1.53-7.65,9.93-10.71,16.35-6.72l4.85-5.42c-4-7.23-.61-13.38,6.83-16.41Z" transform="translate(-4.43 -4.42)"/><path class="cls-1" d="M105.32,151.3A5.34,5.34,0,1,1,94.65,151a5.48,5.48,0,0,1,5.31-5.14A5.42,5.42,0,0,1,105.32,151.3Z" transform="translate(-4.43 -4.42)"/><path class="cls-1" d="M63.76,67.53A17.94,17.94,0,0,1,45.65,49.28a18.17,18.17,0,0,1,18.06-18A18.41,18.41,0,0,1,82,49.62,18.21,18.21,0,0,1,63.76,67.53ZM53.39,48.94a10.36,10.36,0,0,0,9.84,10.79,10.26,10.26,0,1,0-9.84-10.79Z" transform="translate(-4.43 -4.42)"/><path class="cls-1" d="M141.91,72A16.39,16.39,0,0,1,158,88.43a16.62,16.62,0,0,1-16.57,16.1,16.37,16.37,0,0,1-16-16.55A16.05,16.05,0,0,1,141.91,72ZM133.3,88a8.22,8.22,0,0,0,8.11,8.59,8.41,8.41,0,1,0,.34-16.82A8.28,8.28,0,0,0,133.3,88Z" transform="translate(-4.43 -4.42)"/></svg>