<svg id="Capa_1" data-name="Capa 1" xmlns="http://www.w3.org/2000/svg" viewBox="0 0 512.02 512.02"><defs><style>.cls-1{fill:#f44336;}.cls-2{fill:#4B7CF3;}.cls-3{fill:#fff;}</style></defs><title>sys</title><path class="cls-1" d="M493.25,160H256A96,96,0,0,0,172.18,303L53.57,99.43C140-12.38,300.64-33,412.46,53.4A256,256,0,0,1,493.25,160Z" transform="translate(0 0)"/><circle class="cls-2" cx="256.01" cy="256.01" r="256.01"/><path class="cls-3" d="M186.46,284.51a41.83,41.83,0,0,1-6.67,23.25q-6.66,10.32-19.5,16.15t-30.45,5.84q-21.11,0-34.82-8a46.25,46.25,0,0,1-15.81-15.32q-6.08-9.58-6.08-18.63a12.62,12.62,0,0,1,12.94-12.74A11,11,0,0,1,93.8,278a22.87,22.87,0,0,1,5.4,8.65A57.54,57.54,0,0,0,105.09,298a23.86,23.86,0,0,0,8.9,7.54q5.73,3,15.07,3,12.84,0,20.87-6t8-14.93a15.81,15.81,0,0,0-4.33-11.53,28,28,0,0,0-11.19-6.76q-6.85-2.34-18.34-5A134.78,134.78,0,0,1,98.37,256a41.63,41.63,0,0,1-16.44-13.13q-6.08-8.31-6.08-20.67a35.52,35.52,0,0,1,6.42-20.92q6.42-9.13,18.58-14.05t28.6-4.92a70.84,70.84,0,0,1,22.72,3.26,48.13,48.13,0,0,1,15.9,8.66,36.08,36.08,0,0,1,9.24,11.33,26.11,26.11,0,0,1,2.92,11.58,13.65,13.65,0,0,1-3.65,9.29,11.61,11.61,0,0,1-9.09,4.13c-3.31,0-5.82-.82-7.54-2.48a33.31,33.31,0,0,1-5.59-8.12,37,37,0,0,0-9.34-12.6q-5.45-4.51-17.51-4.52-11.19,0-18.05,4.91t-6.85,11.82a12,12,0,0,0,2.33,7.4,19.9,19.9,0,0,0,6.42,5.35,43.06,43.06,0,0,0,8.27,3.5q4.19,1.26,13.81,3.69a219.46,219.46,0,0,1,21.84,6.23A66.59,66.59,0,0,1,171.92,254a34.08,34.08,0,0,1,10.7,12.3Q186.46,273.73,186.46,284.51Z" transform="translate(0 0)"/><path class="cls-3" d="M242.78,312.14V266.91l-34.82-54a113,113,0,0,1-6.47-11.38,17.31,17.31,0,0,1-1.9-7.11,11.35,11.35,0,0,1,3.84-8.56,13.4,13.4,0,0,1,9.49-3.6q5.93,0,9,3.36T231.11,199l26.65,43.29L284.71,199l4.08-6.72a42.77,42.77,0,0,1,3.65-5.1,14.52,14.52,0,0,1,4.43-3.65,12.77,12.77,0,0,1,5.93-1.27,12.54,12.54,0,0,1,9.1,3.56,11.12,11.12,0,0,1,3.64,8.22,17.21,17.21,0,0,1-1.84,7.58,99.35,99.35,0,0,1-6.33,10.51l-35.7,54.77v45.23q0,8.85-4.08,13.23a14.62,14.62,0,0,1-20.82.05Q242.78,321.08,242.78,312.14Z" transform="translate(0 0)"/><path class="cls-3" d="M438.89,284.51a41.9,41.9,0,0,1-6.66,23.25q-6.66,10.32-19.5,16.15t-30.45,5.84q-21.12,0-34.83-8a46.31,46.31,0,0,1-15.8-15.32q-6.09-9.58-6.08-18.63a12.61,12.61,0,0,1,12.93-12.74,11,11,0,0,1,7.74,2.92,23.12,23.12,0,0,1,5.4,8.65A57.55,57.55,0,0,0,357.52,298a23.94,23.94,0,0,0,8.9,7.54q5.74,3,15.08,3,12.84,0,20.87-6t8-14.93a15.76,15.76,0,0,0-4.33-11.53,27.91,27.91,0,0,0-11.18-6.76q-6.87-2.34-18.34-5A134.54,134.54,0,0,1,350.81,256a41.49,41.49,0,0,1-16.44-13.13q-6.08-8.31-6.08-20.67a35.52,35.52,0,0,1,6.42-20.92q6.42-9.13,18.58-14.05t28.6-4.92a70.81,70.81,0,0,1,22.71,3.26,48.18,48.18,0,0,1,15.91,8.66,36.36,36.36,0,0,1,9.24,11.33,26.11,26.11,0,0,1,2.92,11.58,13.69,13.69,0,0,1-3.65,9.29,11.61,11.61,0,0,1-9.1,4.13c-3.3,0-5.82-.82-7.53-2.48a33.29,33.29,0,0,1-5.6-8.12,36.88,36.88,0,0,0-9.34-12.6q-5.44-4.51-17.51-4.52-11.18,0-18,4.91T355,219.53a12,12,0,0,0,2.33,7.4,19.9,19.9,0,0,0,6.42,5.35,43.32,43.32,0,0,0,8.27,3.5q4.19,1.26,13.82,3.69a219.46,219.46,0,0,1,21.84,6.23A66.52,66.52,0,0,1,424.35,254a34,34,0,0,1,10.7,12.3Q438.89,273.73,438.89,284.51Z" transform="translate(0 0)"/></svg>