<?xml version="1.0" encoding="utf-8"?>
<!-- Generator: Adobe Illustrator 23.0.0, SVG Export Plug-In . SVG Version: 6.00 Build 0)  -->
<svg version="1.1" id="Layer_1" xmlns="http://www.w3.org/2000/svg" xmlns:xlink="http://www.w3.org/1999/xlink" x="0px" y="0px"
	 viewBox="0 0 196.2 179.5" style="enable-background:new 0 0 196.2 179.5;" xml:space="preserve">
<style type="text/css">
	.st0{fill-rule:evenodd;clip-rule:evenodd;fill:#FFFFFF;}
</style>
<title>teams</title>
<path class="st0" d="M148.2,144.9c-6.7,22.9-26,35.8-46.7,34.5c-22.5-1.6-40.7-19.1-43-41.6h-2.7c-13.8,0-27.7-0.2-41.5,0.1
	C4.8,138-0.1,131,0,123.7c0.3-24.2,0.1-48.3,0.1-72.4c0-8.6,5.2-13.7,13.8-13.7c19.9,0,39.7,0,59.5,0h2.8
	c-5-21.3,10.5-36.4,26.1-37.5c16.1-1.1,30.2,11,31.3,27.1c1.1,16.1-11,30.2-27.1,31.3c-2,0.1-4.1,0.1-6.1-0.2v8.5h89.8
	c5,0,6.1,1.1,6.1,6.1c0,15.1,0,30.3,0,45.5c0,17.4-12.6,30.9-29.9,31.9c-5.6,0.2-11.1-1.2-15.8-4.1L148.2,144.9z M50.2,46H13.9
	c-4.2,0-5.5,1.3-5.5,5.5v72.2c0,4.3,1.3,5.6,5.4,5.6h72.4c4.3,0,5.6-1.3,5.6-5.6V71.1c0-6.4-0.1-12.9,0-19.4c0.1-4-1.3-5.7-5.3-5.7
	L50.2,46z M67.3,137.8c0.1,1.1,0.1,1.9,0.3,2.6c3.8,20.3,23.3,33.8,43.7,30c17.7-3.3,30.6-18.7,30.6-36.7c0.1-18.8,0-37.5,0-56.3
	c0-0.7-0.1-1.3-0.1-2.1h-41.5v2.6c0,15.7,0,31.4,0,47.1c0.1,3.9-1.7,7.6-4.7,10.1c-2.5,2-5.6,3-8.8,2.8L67.3,137.8z M150.4,75.3v3
	c0,17.4,0,34.8,0,52.1c0,1.4-0.3,2.9-0.3,4.3c0.1,0.9,0.4,1.7,1.1,2.3c5,4.1,11.5,5.7,17.8,4.4c11.5-2.1,18.8-11.3,18.9-23.3
	c0.1-13.6,0-27.2,0-40.8c0-0.7-0.1-1.3-0.1-2L150.4,75.3z M100.5,50c2.8-0.1,5.6,0.1,8.3-0.5c10.4-2.1,17.5-11.8,16.4-22.4
	c-0.9-10.3-9.5-18.3-20.3-18.7C90.7,7.9,79.9,22.5,84.7,35.8c0.4,0.8,1.1,1.4,2,1.7C94.9,38.1,98.7,41.4,100.5,50z"/>
<path class="st0" d="M187.9,37.5c0,12.1-8.9,21-21,21S146,49.6,146,37.7c-0.3-11.3,8.6-20.7,19.9-21c0.4,0,0.7,0,1.1,0
	C179,16.7,187.9,25.5,187.9,37.5z M167.3,25.2c-7.4-0.2-12.5,4.6-12.7,11.8c-0.2,7.9,4.6,12.9,12.2,13c7.5,0.1,12.5-4.7,12.7-12.2
	C179.7,30.5,174.7,25.3,167.3,25.2z"/>
<path class="st0" d="M46,71H29.4v-8.3H71v8.1H54.5v41.7H46V71z"/>
</svg>
