<?xml version="1.0" encoding="utf-8"?>
<!-- Generator: Adobe Illustrator 23.0.0, SVG Export Plug-In . SVG Version: 6.00 Build 0)  -->
<svg version="1.1" id="Layer_1" xmlns="http://www.w3.org/2000/svg" xmlns:xlink="http://www.w3.org/1999/xlink" x="0px" y="0px"
	 viewBox="0 0 200 200" style="enable-background:new 0 0 200 200;" xml:space="preserve">
<style type="text/css">
	.st0{fill-rule:evenodd;clip-rule:evenodd;fill:#FFFFFF;}
</style>
<g>
	<path class="st0" d="M88.7,89c-6.2,0-12.3-0.1-18.5,0c-3,0.1-4.2-1-4-4.1c0.2-3.5,0.1-7.1,0-10.6c-0.1-2.7,0.8-3.9,3.7-3.9
		c12.8,0.1,25.6,0.1,38.4,0c2.6,0,3.7,1.1,3.6,3.6c0,0.2,0,0.3,0,0.5c0.9,14.5,0.9,14.5-13.5,14.5C95.1,89.1,91.9,89.1,88.7,89z"/>
	<path class="st0" d="M89.3,114.6c-6,0-12-0.2-18,0.1c-4.1,0.2-5.5-1.4-5.2-5.4c0.3-2.7,0.2-5.5,0-8.3c-0.2-3.3,0.8-4.7,4.4-4.6
		c12.3,0.2,24.6,0.2,36.9,0c3.5-0.1,4.5,1.3,4.5,4.6c0.3,13.7,0.4,13.7-13.4,13.7C95.4,114.6,92.4,114.6,89.3,114.6z"/>
	<path class="st0" d="M89.3,140.2c-6.3,0-12.6-0.1-18.9,0c-3.1,0.1-4.5-1-4.3-4.3c0.2-3.4,0.2-6.8,0-10.1c-0.1-2.7,0.9-4,3.7-4
		c12.9,0,25.8-0.1,38.7,0.2c1.1,0,3,2,3.2,3.2c1.7,14.9,1.7,15-13.2,15C95.5,140.2,92.4,140.2,89.3,140.2z"/>
	<path class="st0" d="M50,89.1c-9.8-0.1-9.5,1.7-9.5-9.3c0-10.7-0.4-9.2,9.1-9.1c10.8,0,9.9-1.6,9.9,9.7
		C59.7,90.6,59.8,88.9,50,89.1z"/>
	<path class="st0" d="M50,96.4c10.3,0.2,9.6-1.8,9.6,9.5c0,8.7,0,8.8-8.8,8.7c-11.3-0.1-10.3,1.5-10.3-10.3c0-0.5,0-0.9,0-1.4
		c0-6.5,0-6.5,6.7-6.5C48.1,96.4,49,96.4,50,96.4z"/>
	<path class="st0" d="M49.8,140.2c-9.9-0.1-9.3,1.4-9.2-9.1c0-10.2-1-9.3,9.1-9.3c11.2,0,9.9-1,10,9.8c0,0.3,0,0.6,0,0.9
		c0,7.6,0,7.6-7.5,7.6C51.3,140.2,50.6,140.2,49.8,140.2z"/>
	<g>
		<path class="st0" d="M143.4,118c-1,0.1-2,0.2-2.9,0.3c-5.2,0.6-10.2,2-14.4,5.2c-1.6,1.2-2.9,2.7-3.5,4.6c-1,3-0.1,5.5,1.9,7.7
			c1.9,2.1,4.2,3.4,6.8,4.4c4.1,1.7,8.4,2.4,12.8,2.5c5.4,0.1,10.7-0.6,15.8-2.7c2.4-1,4.6-2.3,6.4-4.3c2-2.2,2.9-4.8,1.9-7.7
			c-0.6-1.9-1.9-3.3-3.5-4.5c-3.2-2.5-6.9-3.9-10.8-4.6c-2-0.4-4.1-0.5-6.2-0.8c-0.1,0-0.2-0.1-0.3-0.1
			C146.1,118,144.8,118,143.4,118z"/>
		<path class="st0" d="M174.8,192.4c1.1-0.1,2.2-0.2,3.2-0.3c4.8-0.6,9.4-1.8,13.4-4.5c1.8-1.2,3.4-2.7,4.3-4.8
			c0.4-0.9,0.6-1.8,0.6-2.7c0.1-1.5,0-3,0-4.6c-0.7,1.2-1.2,2.3-2,3.2c-1.8,2.3-4.3,3.7-6.9,4.8c-4.2,1.7-8.6,2.5-13.1,2.6
			c-5.3,0.1-10.4-0.5-15.3-2.5c-2.8-1.1-5.3-2.5-7.2-4.9c-0.7-0.9-1.3-2.1-1.9-3.1c-0.1,2-0.4,4.2,0.2,6.3c0.6,2.1,1.9,3.6,3.6,4.9
			c3.2,2.5,6.9,3.9,10.9,4.6c2.1,0.4,4.3,0.5,6.5,0.8c0.1,0,0.2,0.1,0.3,0.1C172.6,192.4,173.7,192.4,174.8,192.4z"/>
		<path class="st0" d="M173.6,173.8c4.7-0.1,9.6-0.8,14.2-2.8c2.4-1,4.6-2.4,6.4-4.3c2.9-3.1,3-7.3,0.1-10.6
			c-1.9-2.1-4.3-3.5-6.9-4.6c-4-1.6-8.3-2.4-12.6-2.5c-5.1-0.2-10,0.4-14.8,2.2c-2.9,1.1-5.5,2.5-7.6,4.7c-1.3,1.4-2.2,3.1-2.3,5.1
			c-0.1,2.1,0.7,3.9,2.1,5.5c2.3,2.6,5.2,4.1,8.3,5.2C164.6,173.2,168.9,173.8,173.6,173.8z"/>
		<path class="st0" d="M196.3,166.1c-1.1,3.5-3.6,5.5-6.5,7.1c-3.6,1.9-7.5,3-11.5,3.4c-6.4,0.7-12.7,0.3-18.7-2
			c-2.9-1.1-5.6-2.6-7.6-5.1c-0.8-0.9-1.3-2.1-1.9-3.1c0,2.6-0.5,5.3,0.9,7.8c1.1,1.9,2.7,3.3,4.5,4.5c3.6,2.2,7.5,3.4,11.7,4
			c3.6,0.5,7.3,0.6,10.9,0.2c5.2-0.6,10.1-2,14.4-5.2c1.8-1.4,3.4-3.1,3.8-5.4C196.5,170.3,196.3,168.3,196.3,166.1z"/>
		<path class="st0" d="M168.4,135.3c-1.3,3.8-4.3,5.9-7.8,7.5c-3.3,1.6-6.8,2.4-10.4,2.8c-2.9,0.3-5.8,0.4-8.8,0.1
			c-4.9-0.5-9.7-1.6-13.9-4.3c-2.4-1.5-4.3-3.4-5.2-6.1c-0.1,2.6-0.6,5.3,0.7,7.7c1.1,2.1,2.8,3.5,4.8,4.7c3.5,2.1,7.2,3.2,11.2,3.8
			c4.6,0.7,9.1,0.7,13.6-0.2c0.2,0,0.4-0.1,0.6-0.2c3.1-2.1,6.6-3.4,10.2-4.2c1.3-0.3,2.2-1.2,3-2.1c1.5-1.7,2.3-3.7,2.2-6
			c-0.1-1.2,0-2.4,0-3.6C168.5,135.3,168.4,135.3,168.4,135.3z"/>
		<path class="st0" d="M122.1,144.6c0.1,2,0,4,0.3,5.9c0.4,2.5,2.1,4.2,4.1,5.6c3.4,2.5,7.3,3.8,11.4,4.6c2.8,0.5,5.7,0.7,8.6,0.6
			c0.1,0,0.3,0,0.3,0c0.3-1.1,0.4-2.2,0.8-3.2c0.4-1,1-2,1.4-2.9c-1.6,0-3.3,0.1-5,0c-5.4-0.2-10.5-1.2-15.3-3.8
			c-2.5-1.4-4.7-3.1-5.9-5.8c-0.2-0.3-0.3-0.7-0.4-1.1C122.2,144.6,122.2,144.6,122.1,144.6z"/>
		<path class="st0" d="M146.9,179.9c0-2.1,0-4,0-6.1c-0.9,0-1.9,0-2.8,0c-4.5-0.2-8.9-0.9-13-2.6c-2.6-1.1-5-2.4-6.8-4.6
			c-0.8-1-1.4-2.2-2.1-3.2c-0.2,1.8-0.3,3.8,0.1,5.8c0.5,2.5,2.2,4.2,4.1,5.6c3.2,2.3,6.8,3.6,10.6,4.4c2.7,0.6,5.4,0.7,8.2,0.8
			C145.8,180,146.3,179.9,146.9,179.9z"/>
		<path class="st0" d="M146.9,170.6c0-2,0-4,0-6.1c-0.5,0-1,0-1.5,0c-4.6,0-9.2-0.7-13.5-2.3c-2.8-1.1-5.5-2.5-7.5-4.8
			c-0.9-1-1.5-2.2-2.1-3.2c-0.4,1.9-0.3,6,0.8,7.6c1.2,1.9,2.7,3.3,4.5,4.5c3.5,2.2,7.3,3.4,11.3,3.9c2.5,0.3,4.9,0.3,7.4,0.5
			C146.5,170.6,146.6,170.6,146.9,170.6z"/>
	</g>
	<path class="st0" d="M169.6,25.2c-2.2-10.5-11.8-18.5-22.9-18.5C106.8,6.6,66.9,6.6,27,6.7c-13.3,0-23.4,10-23.4,23.4
		C3.5,75.4,3.5,120.7,3.7,166c0,2.6,1.6,5.6,3.4,7.6c5.3,5.6,11,10.8,16.6,16.1c4.3,4.1,6.7,4.1,11,0c6.1-5.8,12.2-11.6,18.5-17.6
		c6.8,6.4,13.3,12.7,19.9,18.9c3.4,3.2,6.2,3.2,9.7,0.2c1.7-1.5,3.3-3.2,5-4.8c4.9-4.8,9.9-9.5,16.1-15.5c3.3,3.9,8.6,9.6,12.1,13.7
		V167c-1.1-1.8-4.7-5.5-6.9-7c-5.4-3.7-7.6-4.6-12.2,0.1c-5.9,6.1-11.4,12.6-17.4,19.3c-7.8-7.5-14.1-13.4-20.3-19.4
		c-4.6-4.4-7.1-4.5-11.7-0.1c-6,5.7-12,11.4-18.2,17.4c-4-3.8-7.9-7.2-11.5-11c-0.9-0.9-1.4-2.7-1.4-4.1c-0.1-44.1-0.1-88.1,0-132.2
		c0-5.9,4.4-10.5,10.3-11.1c5.6-0.5,11.1,3.6,12.1,9.2c1.1,5.7-2.3,10.8-8.3,12.4c-1.2,0.3-2.5,0.2-3.7,0.4
		c-3.5,0.7-5.6,2.9-5.5,6.4c0.1,3.2,1.9,5.5,5.4,5.9c1.7,0.2,3.4,0.2,5.1,0.2c34.2,0,68.4,0,102.6,0c1.8,0,3.5,0.2,5.9,0.3
		c0,19.4,0,38.2,0,57c4.3,0,8.1,0,12.2,0c0-2,0-3.7,0-5.3c0-16.2,0.1-32.3-0.1-48.5c0-3.1,0.9-4.5,3.8-5.7
		C166.4,46.6,171.8,36,169.6,25.2z M147.5,40.9c-1.1,0.2-2.1,0.1-3.2,0.1c-30.6,0-61.2,0-91.8,0c-0.9,0-1.8,0-3.5,0
		c3.2-7.4,3.3-14.3,0.1-21.7c2-0.1,3.4-0.3,4.8-0.3c30,0,60,0,90,0c1.5,0,3.1,0.1,4.6,0.4c5.7,1.2,9.5,5.9,9.3,11
		C157.4,35.5,153,40.1,147.5,40.9z"/>
</g>
</svg>
