<?xml version="1.0" encoding="utf-8"?>
<!-- Generator: Adobe Illustrator 23.0.0, SVG Export Plug-In . SVG Version: 6.00 Build 0)  -->
<svg version="1.1" id="Layer_1" xmlns="http://www.w3.org/2000/svg" xmlns:xlink="http://www.w3.org/1999/xlink" x="0px" y="0px"
	 viewBox="0 0 148.3 192" style="enable-background:new 0 0 148.3 192;" xml:space="preserve">
<style type="text/css">
	.st0{fill:#FFFFFF;}
	.st1{fill-rule:evenodd;clip-rule:evenodd;fill:#FFFFFF;}
</style>
<title>vessel-position</title>
<path class="st0" d="M101.6,43.8c-1.9,0-3.4-1.5-3.4-3.4V28.8H44.6v11.6c0,1.9-1.5,3.4-3.4,3.4c-1.9,0-3.4-1.5-3.4-3.4v-15
	c0-1.9,1.5-3.4,3.4-3.4h60.4c1.9,0,3.4,1.5,3.4,3.4v15C105,42.2,103.5,43.8,101.6,43.8z"/>
<path class="st0" d="M71.4,28.8c-1.9,0-3.4-1.5-3.4-3.4c0,0,0,0,0,0V9.1c0-1.9,1.5-3.4,3.4-3.4c1.9,0,3.4,1.5,3.4,3.4v16.3
	C74.8,27.2,73.3,28.8,71.4,28.8L71.4,28.8z"/>
<path class="st0" d="M123.2,161.5c-0.3,0-0.7-0.1-1-0.1c-1.8-0.6-2.8-2.5-2.3-4.2c0,0,0,0,0,0l16-52.4L71.4,82L7.6,104.7l15.7,52.5
	c0.6,1.8-0.5,3.7-2.3,4.3c-1.8,0.6-3.7-0.5-4.3-2.3L0.2,103.5c-0.5-1.7,0.4-3.6,2.1-4.2l68-24.1c0.7-0.3,1.5-0.3,2.3,0l68.7,24.1
	c1.7,0.6,2.7,2.5,2.1,4.2l-17,55.6C125.9,160.5,124.6,161.5,123.2,161.5z"/>
<path class="st0" d="M71.4,166.4c-1.9,0-3.4-1.5-3.4-3.4V78.4c0-1.9,1.5-3.4,3.4-3.4c1.9,0,3.4,1.5,3.4,3.4V163
	C74.8,164.9,73.3,166.4,71.4,166.4C71.4,166.4,71.4,166.4,71.4,166.4z"/>
<path class="st0" d="M44.2,110.2c-1.9,0-3.4-1.5-3.4-3.4c0-1.4,0.8-2.6,2.1-3.2l9.9-4c1.8-0.7,3.7,0.2,4.4,1.9s-0.2,3.7-1.9,4.4
	l-9.9,4C45.1,110.1,44.7,110.2,44.2,110.2z"/>
<path class="st0" d="M98.2,110.2c-0.4,0-0.9-0.1-1.3-0.3l-9.9-4c-1.7-0.8-2.5-2.8-1.7-4.5c0.7-1.6,2.6-2.4,4.2-1.8l9.9,4
	c1.7,0.7,2.6,2.7,1.9,4.4C100.8,109.3,99.5,110.2,98.2,110.2z"/>
<path class="st0" d="M139,192c-0.9,0-1.7-0.4-2.4-1L122,177l-12.8,12.6c-1.3,1.2-3.3,1.3-4.6,0.1l-15-13l-15.6,12.9
	c-1.3,1.1-3.1,1.1-4.4,0l-15.4-13l-14,11.9c-1.3,1.1-3.1,1.1-4.4,0l-14-11.9L6.7,191.1c-1.3,1.3-3.5,1.3-4.8,0
	c-1.3-1.3-1.3-3.5,0-4.8c0,0,0.1-0.1,0.1-0.1l17.3-16.4c1.3-1.2,3.2-1.2,4.5-0.1l14.2,12l14-11.9c1.3-1.1,3.1-1.1,4.4,0l15.4,12.9
	l15.6-13c1.3-1.1,3.1-1.1,4.4,0l14.8,12.9l13-12.7c1.3-1.3,3.4-1.3,4.7,0l17,16.4c1.3,1.3,1.4,3.5,0.1,4.8
	C140.8,191.6,139.9,192,139,192z"/>
<path class="st0" d="M117,97.8c-1.9,0-3.4-1.5-3.4-3.4V60.1H29.3v33.7c0,1.9-1.5,3.4-3.4,3.4c-1.9,0-3.4-1.5-3.4-3.4c0,0,0,0,0,0
	V56.7c0-1.9,1.5-3.4,3.4-3.4h0H117c1.9,0,3.4,1.5,3.4,3.4v37.7C120.4,96.3,118.8,97.8,117,97.8z"/>
<path class="st1" d="M136.9,34.3c-4-6.4-8.2-12.8-10.6-20.1c-1.4-4.3,0.1-9.1,3.7-11.8c3.6-2.9,8.6-3.3,12.6-0.9
	c3.9,2.2,6.1,6.5,5.5,11c-0.3,1.8-0.9,3.6-1.8,5.3c-2.9,5.6-5.9,11.1-8.9,16.7L136.9,34.3z M129.8,11.4c0,4,3.3,7.3,7.3,7.3
	c4,0,7.3-3.3,7.3-7.3s-3.3-7.3-7.3-7.3c0,0,0,0,0,0C133,4.1,129.8,7.4,129.8,11.4C129.8,11.4,129.8,11.4,129.8,11.4z"/>
</svg>
