<?xml version="1.0" encoding="utf-8"?>
<!-- Generator: Adobe Illustrator 23.0.0, SVG Export Plug-In . SVG Version: 6.00 Build 0)  -->
<svg version="1.1" id="Layer_1" xmlns="http://www.w3.org/2000/svg" xmlns:xlink="http://www.w3.org/1999/xlink" x="0px" y="0px"
	 viewBox="0 0 196.7 151.4" style="enable-background:new 0 0 196.7 151.4;" xml:space="preserve">
<style type="text/css">
	.st0{fill:#FFFFFF;}
</style>
<title>vessel-cargo-match</title>
<path class="st0" d="M29.8,151.4c-4.7,0-9-2.1-13.1-6.2c-4.2-4.3-10.1-6.7-16.2-6.5l-0.4-3.4c7.1-0.3,14,2.4,19,7.5
	c7,7,13.8,6.9,24.5-0.2c11.8-7.9,20-8,28.3-0.6c6.9,6.2,13.5,8.6,23.3,0c11-9.6,24-8.8,34.1,2.4c1.8,2.2,4.6,3.4,7.4,3.3
	c4.6-0.1,9.1-3.1,11-4.7c0.1-0.4,0.4-0.7,0.6-1c2.7-2.9,16.2-12.4,28-3.3c12.1,9.3,18.3,8.8,18.3,8.8l0.5,3.4
	c-0.7,0.1-7.6,0.8-20.9-9.4c-9.4-7.2-19.7,0-22.6,2.3c-0.4,0.8-1,1.5-1.8,2c-6.3,5.2-16.2,8.6-23.1,1c-8.8-9.7-19.7-10.5-29.3-2.1
	c-9.8,8.6-18.4,8.6-27.9,0c-7-6.4-13.6-6.1-24,0.9C39.5,149.4,34.4,151.4,29.8,151.4z"/>
<path class="st0" d="M29.8,139.9c-4.7,0-9-2.1-13.1-6.2c-4.2-4.4-10.1-6.7-16.2-6.5l-0.4-3.4c7.1-0.3,14,2.4,19,7.5
	c7,7,13.8,6.9,24.5-0.2c11.8-7.9,20-8,28.3-0.6c6.9,6.2,13.6,8.6,23.4,0c11-9.7,24-8.8,34.1,2.4c1.8,2.2,4.6,3.4,7.4,3.3
	c4.6-0.1,9.1-3.1,11-4.7c0.1-0.4,0.3-0.8,0.6-1.1c2.7-2.8,16.2-12.4,28-3.3c12.1,9.3,18.3,8.8,18.3,8.8l0.5,3.4
	c-0.7,0.1-7.6,0.8-20.9-9.4c-9.4-7.2-19.7,0-22.6,2.3c-0.4,0.8-1,1.5-1.8,2c-6.3,5.2-16.2,8.6-23.1,1c-8.8-9.7-19.7-10.5-29.3-2.1
	c-9.8,8.6-18.4,8.6-27.9,0c-7-6.4-13.6-6.1-24,0.9C39.5,137.9,34.4,139.9,29.8,139.9z"/>
<path class="st0" d="M112.2,115.7c-26.6,0-50.5,0-73.1-0.1c-2.8,0-6.2-1.2-9.9-3.6C18.1,104.8,9,94.7,1.4,81.1
	c-0.2-0.5-0.4-1-0.5-1.5c0-0.2-0.1-0.4-0.2-0.7l-0.5-2.2h196.6l-0.1,1.8c-0.7,12.9-3.8,24.1-9.5,34.1c-1.2,1.8-3.2,2.8-5.4,2.9
	C158.6,115.6,135.4,115.6,112.2,115.7z M4.8,80.2c7.3,12.7,15.9,22.1,26.3,28.8c3.1,2,5.9,3.1,8,3.1c22.6,0.1,46.5,0.1,73.1,0.1
	c23.2,0,46.3,0,69.5-0.1c0.9-0.1,1.8-0.5,2.4-1.2c5.3-9.4,8.4-20,9-30.8L4.8,80.2z"/>
<path class="st0" d="M150,75.8H0.1V64.4c0-1.3,0-2.6,0-3.8c0-2.9,0.1-5.8-0.1-8.7c-0.1-1.6,0-3.6,1.3-5c1.2-1.1,2.9-1.7,4.6-1.5h0.5
	c2.9,0.1,6,0.1,9.9,0.1c2.3,0,4.6,0,6.9,0h6.9h47.3c1.1,0,2.2,0.1,3.4,0.2l1.8,0.1l1.6,0.1v8.8h31.8c11.3,0,20,0,28.2-0.1h0.2
	c1.7,0,3.5,0.2,4.8,1.5s1.3,3.3,1.2,4.6c-0.2,2.9-0.2,5.9-0.1,9c0,1.4,0,2.9,0,4.4L150,75.8L150,75.8z M3.5,72.4h143
	c0-0.9,0-1.8,0-2.6c0-3.2-0.1-6.2,0.1-9.3c0.1-1.5-0.1-1.9-0.3-2s-0.6-0.4-2.3-0.4H144c-8.1,0.1-16.9,0.1-28.2,0.1H80.5v-9h-0.2
	c-1.2-0.1-2.2-0.2-3.2-0.2H29.9h-6.9h-6.9c-3.9,0-7,0-10-0.1c-0.8-0.1-1.7,0-2.4,0.4c-0.2,0.2-0.4,0.8-0.3,2.4c0.2,3,0.2,6,0.1,9
	c0,1.3,0,2.5,0,3.8V72.4z M42.3,69.8c-4.4,0-8-3.5-8.1-7.9c0-2.1,0.8-4.2,2.3-5.7c1.5-1.6,3.7-2.5,5.9-2.4l0,0
	c2.2,0,4.3,0.9,5.9,2.5c1.5,1.5,2.3,3.6,2.2,5.7c-0.1,4.3-3.6,7.8-8,7.8H42.3z M42.3,55.5v1.7c-1.3,0-2.5,0.5-3.4,1.5
	c-0.8,0.8-1.3,2-1.3,3.2c0,2.5,2.2,4.6,4.7,4.5c2.5,0,4.6-2,4.7-4.5c0-1.2-0.4-2.4-1.3-3.2c-0.9-0.9-2.1-1.4-3.4-1.4L42.3,55.5z
	 M18.3,69.8h-0.1c-4.3,0-7.8-3.5-7.8-7.9c0,0,0,0,0-0.1c-0.2-4.3,3.2-7.9,7.5-8.1c0.2,0,0.3,0,0.5,0h0.2c4.3,0,7.9,3.5,7.9,7.8
	c0,0,0,0.1,0,0.1c0.1,4.3-3.3,8-7.6,8.1C18.6,69.8,18.4,69.8,18.3,69.8L18.3,69.8z M18.3,57.2c-2.4-0.1-4.4,1.7-4.6,4.1
	c0,0.2,0,0.3,0,0.5c-0.1,2.4,1.9,4.5,4.3,4.5c0.1,0,0.1,0,0.2,0l0,0c2.4,0.1,4.6-1.7,4.7-4.2c0-0.2,0-0.3,0-0.5
	c0.1-2.4-1.8-4.4-4.3-4.5C18.5,57.2,18.4,57.2,18.3,57.2L18.3,57.2z M66.2,69.8L66.2,69.8c-2.2,0-4.3-0.9-5.8-2.5
	c-3.1-3.2-3-8.3,0.2-11.3c1.5-1.4,3.4-2.2,5.5-2.2h0.1c2.2,0,4.3,0.8,5.8,2.4c1.5,1.5,2.3,3.5,2.3,5.6c0,4.4-3.6,8-8,8
	C66.3,69.8,66.2,69.8,66.2,69.8z M66.2,55.5l-0.1,1.7c-2.5,0-4.6,2-4.6,4.5c0,1.2,0.4,2.3,1.3,3.2c0.9,0.9,2.1,1.4,3.3,1.4l0,0
	c2.5,0.1,4.7-2,4.7-4.5c0,0,0-0.1,0-0.1c0-1.2-0.5-2.3-1.3-3.2c-0.9-0.9-2.1-1.4-3.3-1.4L66.2,55.5z"/>
<path class="st0" d="M187.8,75.8h-37.9V50h9.6v-2.5H150l0.1-1.8c0.2-7.2,4.4-8.8,7.9-8.9c7.4-0.2,14.7-0.2,21.6,0
	c4.8,0.1,8,3.1,8.1,7.7c0.1,7,0.1,13.8,0.1,21c0,2.8,0,5.7,0,8.6L187.8,75.8L187.8,75.8z M153.4,72.4h31c0-2.3,0-4.6,0-6.9
	c0-7.2,0.1-13.9-0.1-20.8c-0.1-3.8-3.4-4.3-4.8-4.3c-6.9-0.2-14.1-0.2-21.5,0c-2,0-3.8,0.6-4.4,3.8h9.3v9.3h-9.6V72.4z"/>
<path class="st0" d="M133.2,55.8h-0.3c-2.5,0-4.5,0-6.1,0H125c-2.6,0-4.4-0.1-5.7-1.3s-1.3-3.3-1.2-7c0-1.6,0.1-3.5,0-5.9
	c-0.1-5.7-0.1-11.5,0-17.1c0-5.9,0-12-0.1-17.9c0-1.5,0.1-3.6,1.5-5.1c1.1-1.1,2.7-1.6,5-1.4c2.3,0.2,4.7,0.2,7,0
	c2.7-0.3,4.4,0.2,5.6,1.5s1.6,2.8,1.4,5.3c-0.2,4.9-0.2,9.9-0.1,14.8c0,2.1,0,4.2,0,6.3s0,4.2,0,6.3c0,5.1,0,10.5,0.1,15.7
	c0.2,1.6-0.3,3.2-1.4,4.5C136.1,55.4,134.6,55.9,133.2,55.8z M129.5,52.3c1.1,0,2.2,0,3.5,0h0.2c0.6,0.1,1.2-0.1,1.6-0.4
	c0.1-0.2,0.4-0.6,0.4-2c-0.1-5.3-0.1-10.6-0.1-15.7c0-2.1,0-4.2,0-6.3c0-2.1,0-4.2,0-6.3c0-4.9-0.1-10,0.1-15
	c0.1-1.8-0.2-2.5-0.5-2.8s-1.4-0.5-2.8-0.4c-2.5,0.2-5.1,0.2-7.6,0c-0.8-0.2-1.6-0.1-2.3,0.4c-0.3,0.2-0.5,0.9-0.5,2.6
	c0.1,6,0.1,12.1,0.1,18c0,5.6,0,11.4,0.1,17.1c0,2.4,0,4.4-0.1,6c0,2-0.1,4.2,0.2,4.6s2,0.3,5,0.3L129.5,52.3z"/>
<path class="st0" d="M96.5,55.8c-2.3,0-4.1-0.1-5.4-1.3s-1.3-3.4-1.3-7.3c0-1.5,0-3.4,0-5.6c0-3.2,0-6.4,0-9.5c0-1.5,0-2.9,0-4.3
	c0-2.1,0-4.1,0-6.2c0-5,0-10.2,0-15.3c-0.2-1.7,0.3-3.4,1.4-4.7c1-1,2.5-1.5,4.6-1.4c1.2,0.1,2.6,0.1,4.1,0.1s3.2,0,5.1-0.1h0.3
	c1.3-0.1,2.7,0.4,3.7,1.3c0.9,1,1.4,2.4,1.2,3.8c0,16.7,0,33.1,0,45.6c0.1,1.4-0.4,2.8-1.3,3.8c-1.1,1-2.5,1.4-4,1.3h-0.3
	c-2.7,0-4.5,0-6.1,0L96.5,55.8z M95.2,3.5c-0.5,0-1,0.1-1.5,0.4C93.5,4,93.3,4.6,93.3,6c0.1,5.1,0.1,10.4,0.1,15.4
	c0,2.1,0,4.1,0,6.2c0,1.5,0,2.9,0,4.3c0,3.1,0,6.3,0,9.5c0,2.3,0,4.2,0,5.7c0,2.2-0.1,4.5,0.3,4.8c0.1,0.2,0.8,0.3,2.9,0.3h2
	c1.7,0,3.7-0.1,6.2,0h0.5c0.5,0.1,1,0,1.4-0.2c0.3-0.4,0.4-0.9,0.3-1.4c0-12.5,0-28.9,0-45.6c0-1-0.2-1.3-0.3-1.3s-0.4-0.3-1.2-0.3
	h-0.2c-1.5,0-3.4,0.1-5.2,0.1c-1.6,0-3,0-4.3-0.1L95.2,3.5z"/>
<path class="st0" d="M43.8,32H13.1V8.7h30.6V32z M16.6,28.6h23.8V12.1H16.6V28.6z"/>
<path class="st0" d="M73.9,32.1H43.3V8.6h30.6V32.1z M46.8,28.7h23.7V12H46.8V28.7z"/>
<path class="st0" d="M43.8,45.9H13V30.8h30.8V45.9z M16.4,42.4h23.9v-8.2H16.4V42.4z"/>
<path class="st0" d="M74,46H43.3V30.8H74V46z M46.8,42.6h23.8v-8.4H46.8L46.8,42.6z"/>
</svg>
