<?xml version="1.0" encoding="utf-8"?>
<!-- Generator: Adobe Illustrator 23.0.0, SVG Export Plug-In . SVG Version: 6.00 Build 0)  -->
<svg version="1.1" id="Layer_1" xmlns="http://www.w3.org/2000/svg" xmlns:xlink="http://www.w3.org/1999/xlink" x="0px" y="0px"
	 viewBox="0 0 193.1 187" style="enable-background:new 0 0 193.1 187;" xml:space="preserve">
<style type="text/css">
	.st0{fill:#FFFFFF;}
</style>
<title>vessel-list</title>
<path class="st0" d="M38.8,187c-4.4,0-8.4-1.9-12.3-5.8c-3.8-3.9-9.1-6.1-14.5-5.9c-1.1,0.1-2.1-0.7-2.2-1.8
	c-0.1-1.1,0.7-2.1,1.8-2.2c6.7-0.3,13.1,2.2,17.8,7c6.2,6.2,12.4,6.1,22-0.3c11-7.3,18.7-7.5,26.5-0.5c6.2,5.6,12.1,7.7,20.9,0
	c10.3-9,22.5-8.2,31.9,2.2c1.6,1.9,3.9,2.9,6.4,2.9c4.1-0.1,8.2-2.8,9.8-4.2c0.1-0.4,0.4-0.7,0.6-1c2.6-2.7,15.2-11.6,26.3-3.1
	s16.5,8,16.6,8c1.1-0.1,2.1,0.7,2.2,1.7c0.1,1.1-0.6,2.1-1.7,2.2c-0.7,0.1-7.2,0.7-19.5-8.8c-8.4-6.4-17.5-0.1-20.2,2
	c-0.4,0.8-1,1.4-1.7,1.9c-5.9,4.9-15.2,8.1-21.8,0.9c-7.9-8.7-17.7-9.4-26.3-1.9c-9.2,8.1-17.3,8.1-26.3,0
	c-6.3-5.7-12.2-5.5-21.6,0.8C47.9,185.1,43.1,187,38.8,187z"/>
<path class="st0" d="M38.8,170.4c-4.4,0-8.4-1.9-12.3-5.8c-3.8-4-9.1-6.1-14.6-5.9c-1.1,0.1-2.1-0.7-2.2-1.8s0.7-2.1,1.8-2.2
	c6.7-0.3,13.1,2.2,17.8,7c6.2,6.2,12.4,6.1,22-0.3c11-7.4,18.7-7.5,26.5-0.5c6.2,5.6,12.1,7.7,20.9,0c10.3-9,22.5-8.2,31.9,2.2
	c1.6,1.9,3.9,3,6.4,2.9c4.1-0.1,8.2-2.8,9.8-4.2c0.1-0.4,0.4-0.7,0.6-1c2.5-2.7,15.2-11.6,26.3-3.1s16.5,8,16.6,8
	c1.1-0.1,2.1,0.7,2.2,1.7c0.1,1.1-0.6,2.1-1.7,2.2c-0.7,0.1-7.2,0.7-19.5-8.8c-8.4-6.4-17.5-0.1-20.2,2c-0.4,0.8-1,1.4-1.7,1.9
	c-5.9,4.9-15.2,8.1-21.8,0.9c-7.9-8.7-17.7-9.4-26.3-1.9c-9.2,8.1-17.3,8.1-26.2,0c-6.3-5.7-12.2-5.5-21.6,0.8
	C47.9,168.5,43.1,170.4,38.8,170.4z"/>
<rect x="42.4" y="137.2" class="st0" width="5.3" height="4"/>
<rect x="51.6" y="137.2" class="st0" width="70.9" height="4"/>
<polygon class="st0" points="182.8,165.4 178.9,164.4 188,128 103.1,128 103.1,124 193.1,124 "/>
<polygon class="st0" points="17.9,158.9 0,124 97.1,124 97.1,128 6.6,128 21.5,157 "/>
<path class="st0" d="M13.3,126.9l-3.6-1.7c0.3-0.7,8.3-17.3,12-22.4l0.6-0.9c4-5.5,11.4-15.7,25.2-16.7c13.7-1,31.4,0,31.5,0
	l1.9,0.1V126h-4V89c-9.7-0.5-19.4-0.5-29.1,0.1c-12,0.9-18.4,9.8-22.3,15.1l-0.7,0.9C21.4,109.9,13.4,126.7,13.3,126.9z"/>
<path class="st0" d="M70.3,88.7H51V52.3h19.2V88.7z M55,84.7h11.2V56.3H55V84.7z"/>
<rect x="53" y="64.4" class="st0" width="15.3" height="4"/>
<path class="st0" d="M70.3,117.5H33.9v-8.6c0-3.9,2-8.5,11.8-8.5H46c8.4,0.1,22.2,0,22.2,0h2L70.3,117.5z M37.9,113.5h28.4v-9.1
	c-4.2,0-13.8,0-20.3,0h-0.3c-7.8,0-7.8,3.1-7.8,4.5V113.5z"/>
<rect x="44.8" y="101.8" class="st0" width="4" height="13.7"/>
<rect x="56.1" y="101.8" class="st0" width="4" height="13.7"/>
<path class="st0" d="M178.5,116.5h-15V0h15V116.5z M167.5,112.5h7V4h-7V112.5z"/>
<polygon class="st0" points="187.1,126 183.1,126 183.1,116.5 79,116.5 79,112.5 187.1,112.5 "/>
<path class="st0" d="M153.1,100.7H91.3V64.4h61.8V100.7z M95.3,96.7h53.8V68.4H95.3L95.3,96.7z"/>
<rect x="105.3" y="72.7" class="st0" width="4" height="20.8"/>
<rect x="120.2" y="72.7" class="st0" width="4" height="20.8"/>
<rect x="134.3" y="72.7" class="st0" width="4" height="20.8"/>
<polygon class="st0" points="96.3,68.1 94.4,64.6 122.2,49.1 148.9,64.7 146.9,68.1 122.2,53.7 "/>
<path class="st0" d="M167.5,23.2h-53.4V10.5h53.4V23.2z M118.1,19.2h45.4v-4.7h-45.4V19.2z"/>
<path class="st0" d="M122.1,44.7c-2.3,0-4.3-1.2-5.5-3.2c-2.6-4.2,0.5-8.5,3-10.7v-9.7c0-1.1,0.9-2,2-2s2,0.9,2,2v11.7l-0.8,0.6
	c0,0-4.4,3.3-2.8,6c0.5,1.1,1.8,1.6,2.9,1.2c1.1-0.4,2.3-1.7,2.1-4.1c-0.1-1.1,0.7-2.1,1.8-2.2c1.1-0.1,2.1,0.7,2.2,1.8
	c0.5,4.5-2,7.4-4.7,8.3C123.5,44.6,122.8,44.8,122.1,44.7z"/>
<rect x="120.2" y="42.6" class="st0" width="4" height="8.9"/>
</svg>
