<?xml version="1.0" encoding="utf-8"?>
<!-- Generator: Adobe Illustrator 23.0.0, SVG Export Plug-In . SVG Version: 6.00 Build 0)  -->
<svg version="1.1" id="Layer_1" xmlns="http://www.w3.org/2000/svg" xmlns:xlink="http://www.w3.org/1999/xlink" x="0px" y="0px"
	 viewBox="0 0 194.6 184.6" style="enable-background:new 0 0 194.6 184.6;" xml:space="preserve">
<style type="text/css">
	.st0{fill-rule:evenodd;clip-rule:evenodd;fill:#FFFFFF;}
	.st1{fill:#FFFFFF;}
</style>
<title>voyage-monitor</title>
<path class="st0" d="M0,136.7v-125c1-2.1,2-4.1,3.2-6c2-3,5.3-4.5,8.5-5.8h170.9c0.2,0.2,0.5,0.3,0.8,0.4c6.5,2.1,10.9,8,11.1,14.8
	c-0.1,39.3-0.1,78.7,0,118.1c0.1,8-6.8,15.8-15.5,15.7c-18.4-0.2-36.7-0.1-55-0.1h-2.6c0.7,3,1,5.7,1.9,8.1c2.5,5.9,8,8.7,13.1,11.5
	c3.6,2,6.7,5.4,6.1,8.9c-0.7,4.2-4.4,7.3-8.7,7.2c-24.5,0-49,0-73.5,0c-4,0-7.4-2.8-8.3-6.7c-0.7-3.3,1.4-6.9,4.8-8.8
	c3.6-2,7-4.2,10.2-6.7c4.2-3.3,5.8-7.9,5.4-13.4h-3.8c-17.8,0-35.6,0-53.3,0c-6.1,0-10.5-2.8-13.5-7.9C1.1,139.7,0.5,138.2,0,136.7z
	 M188,113.2V15.7c0-6.2-3-9.2-9.1-9.2H15.3c-5.8,0-8.9,3-8.9,8.9c0,31.9,0,63.8,0,95.7v2.1L188,113.2z M6.7,120
	c-0.1,0.2-0.1,0.4-0.2,0.6c0,4.6-0.1,9.1,0,13.7c0,5.2,3.1,8.2,8.3,8.2h164.8c5.2,0,8.3-3,8.3-8.2c0-4.2,0-8.5,0-12.7
	c0-0.5-0.1-1-0.1-1.5L6.7,120z M115.3,149.2H79c-0.1,7.5-2.7,13.9-8.4,19h53C117.3,160.8,116.3,158.5,115.3,149.2z M97.2,178.2h11.2
	c8.5,0,17.1,0,25.6,0c1.2,0,2.1-0.1,2.1-1.7s-1.1-1.6-2.2-1.6s-2,0.2-3,0.2c-13.9,0-27.7,0-41.5,0c-9.6,0-19.2-0.1-28.8-0.1
	c-1.9,0-2.6,0.7-2,2.2c0.6,0.7,1.4,1,2.2,1C72.9,178.2,85,178.1,97.2,178.2L97.2,178.2z"/>
<path class="st0" d="M16.3,106.7V16.3h161.8v90.4L16.3,106.7z M22.9,22.8v77.4h148.7V22.8H22.9z"/>
<path class="st1" d="M54.8,73.4C44.4,73.4,36,65,36,54.6s8.4-18.8,18.8-18.8s18.8,8.4,18.8,18.8c0,0,0,0,0,0
	C73.6,65,65.2,73.4,54.8,73.4z M54.8,41.1c-7.5,0-13.5,6-13.5,13.5s6,13.5,13.5,13.5s13.5-6,13.5-13.5
	C68.3,47.2,62.3,41.1,54.8,41.1z"/>
<path class="st1" d="M54.8,41.1c-1.5,0-2.7-1.2-2.7-2.7v-6.5c0-1.5,1.2-2.7,2.7-2.7c1.5,0,2.7,1.2,2.7,2.7v6.5
	C57.5,39.9,56.3,41.1,54.8,41.1z"/>
<path class="st1" d="M54.8,80c-1.5,0-2.7-1.2-2.7-2.7l0,0v-6.5c0-1.5,1.2-2.7,2.7-2.7c1.5,0,2.7,1.2,2.7,2.7v6.5
	C57.5,78.8,56.3,80,54.8,80L54.8,80z"/>
<path class="st1" d="M66.3,45.8c-1.5,0-2.7-1.2-2.7-2.6c0-0.7,0.3-1.4,0.8-1.9l4.6-4.6c1.1-1,2.8-1,3.8,0.1c1,1,1,2.6,0,3.6
	l-4.6,4.6C67.6,45.5,67,45.8,66.3,45.8z"/>
<path class="st1" d="M38.8,73.3c-1.5,0-2.7-1.2-2.7-2.7c0-0.7,0.3-1.4,0.8-1.9l4.6-4.6c1-1,2.7-1,3.8,0c1,1,1,2.7,0,3.8l0,0
	l-4.6,4.6C40.2,73,39.5,73.3,38.8,73.3z"/>
<path class="st1" d="M77.5,57.3H71c-1.5,0.1-2.7-1-2.8-2.5s1-2.7,2.5-2.8c0.1,0,0.2,0,0.3,0h6.5c1.5,0.1,2.6,1.4,2.5,2.8
	C79.9,56.1,78.9,57.2,77.5,57.3z"/>
<path class="st1" d="M38.7,57.3h-6.5c-1.5,0.1-2.7-1-2.8-2.5c-0.1-1.5,1-2.7,2.5-2.8c0.1,0,0.2,0,0.3,0h6.5c1.5-0.1,2.7,1,2.8,2.5
	c0.1,1.5-1,2.7-2.5,2.8C38.9,57.3,38.8,57.3,38.7,57.3z"/>
<path class="st1" d="M70.9,73.3c-0.7,0-1.4-0.3-1.9-0.8l-4.6-4.6c-1-1.1-1-2.8,0.1-3.8c1-1,2.6-1,3.6,0l4.6,4.6c1,1,1,2.7,0,3.8
	C72.3,73,71.6,73.3,70.9,73.3z"/>
<path class="st1" d="M43.4,45.8c-0.7,0-1.4-0.3-1.9-0.8l-4.6-4.6c-1-1.1-1-2.8,0.1-3.8c1-1,2.6-1,3.6,0l4.6,4.6c1,1,1,2.7,0,3.8
	C44.8,45.6,44.1,45.8,43.4,45.8z"/>
<path class="st1" d="M56.8,92.9H32.1c-1.5,0-2.7-1.2-2.7-2.7c0-1.5,1.2-2.7,2.7-2.7h24.6c1.5,0,2.7,1.2,2.7,2.7
	C59.4,91.7,58.2,92.9,56.8,92.9z"/>
<path class="st1" d="M111.6,92.9H99.3c-1.5,0-2.7-1.2-2.7-2.7c0-1.5,1.2-2.7,2.7-2.7h12.3c1.5,0,2.7,1.2,2.7,2.7
	C114.2,91.7,113.1,92.9,111.6,92.9L111.6,92.9z"/>
<path class="st1" d="M137.2,92.9h-12.3c-1.5,0-2.7-1.2-2.7-2.7c0-1.5,1.2-2.7,2.7-2.7h12.3c1.5,0,2.7,1.2,2.7,2.7
	C139.8,91.7,138.6,92.9,137.2,92.9z"/>
<path class="st1" d="M161.2,92.9h-12.3c-1.5,0-2.7-1.2-2.7-2.7c0-1.5,1.2-2.7,2.7-2.7h12.3c1.5,0,2.7,1.2,2.7,2.7
	C163.8,91.7,162.7,92.9,161.2,92.9z"/>
<path class="st1" d="M113.2,80c-0.6,0-1.1-0.2-1.6-0.5L97.7,69.2c-1.2-0.9-1.4-2.6-0.4-3.7c0.9-1.1,2.5-1.3,3.6-0.5l12.2,9
	l47.5-40.7c1-1.1,2.7-1.1,3.8-0.1c1.1,1,1.1,2.7,0.1,3.8c-0.1,0.1-0.3,0.3-0.4,0.4l-49.1,42.2C114.4,79.7,113.8,80,113.2,80z"/>
<path class="st1" d="M146.1,77.4c-1.5,0-2.7-1.2-2.7-2.7v0V51.6l-27.2-1c-1.5-0.1-2.5-1.4-2.4-2.9c0.1-1.4,1.3-2.4,2.6-2.4l29.8,1.1
	c1.4,0.1,2.6,1.2,2.6,2.7v25.6C148.7,76.2,147.5,77.4,146.1,77.4z"/>
</svg>
