<?xml version="1.0" encoding="utf-8"?>
<!-- Generator: Adobe Illustrator 23.0.0, SVG Export Plug-In . SVG Version: 6.00 Build 0)  -->
<svg version="1.1" id="Layer_1" xmlns="http://www.w3.org/2000/svg" xmlns:xlink="http://www.w3.org/1999/xlink" x="0px" y="0px"
	 viewBox="0 0 195.9 115.6" style="enable-background:new 0 0 195.9 115.6;" xml:space="preserve">
<style type="text/css">
	.st0{fill-rule:evenodd;clip-rule:evenodd;fill:#FFFFFF;}
</style>
<title>yahoo-integration</title>
<path class="st0" d="M0,11.3V0h85.1c-0.3,3.6-0.6,7-1.1,10.5c0,0.4-1,1-1.6,1c-4.4,0.4-8.8,0.8-13.2,1.1c-2.5,0.2-5.1,0.4-8.1,0.6
	C73,27.8,84.7,42.1,96.6,56.7l34.3-29.5l-26.3-0.7V15l71-0.6v12.8l-12,1.2c-3.8,0.4-7.6,0.7-11.3,1.2c-0.9,0.1-1.8,0.5-2.5,1.1
	c-14.7,13.1-29.3,26.2-43.9,39.4c-0.8,0.8-1.3,1.8-1.3,2.9c-0.5,9.4-0.8,18.9-1.2,28.3c0,0.6,0,1.1,0,1.9l27.6,1.2v10.3H46.6v-10.3
	l27.6-1.8c0-0.7,0.1-1.3,0.1-1.8c0-9.1,0-18.2,0-27.3c0-1-0.4-2-1-2.8C58,52.4,42.7,34.1,27.5,15.7C26.2,14,24.1,13,21.9,13
	C15,12.7,8.2,12.1,1.3,11.5C0.9,11.5,0.4,11.4,0,11.3z"/>
<path class="st0" d="M173.3,42.8l22.5,1c-4.3,17.9-8.6,35.6-12.9,53.5l-10.6-1C172.7,78.5,173,60.8,173.3,42.8z"/>
<path class="st0" d="M183.9,104.7v10.9h-13c-0.3-3.9-0.7-7.7-1-11.9L183.9,104.7z"/>
</svg>
